VotoSerifGX-ExtendedText.ufo
<glyph name="nine" format="2">
  <advance width="685"/>
  <unicode hex="0039"/>
  <outline>
    <contour>
      <point x="276" y="-9" type="curve" smooth="yes"/>
      <point x="517" y="-9"/>
      <point x="604" y="153"/>
      <point x="604" y="383" type="curve" smooth="yes"/>
      <point x="604" y="597"/>
      <point x="503" y="724"/>
      <point x="322" y="724" type="curve" smooth="yes"/>
      <point x="157" y="724"/>
      <point x="70" y="621"/>
      <point x="70" y="496" type="curve" smooth="yes"/>
      <point x="70" y="378"/>
      <point x="146" y="283"/>
      <point x="310" y="283" type="curve" smooth="yes"/>
      <point x="402" y="283"/>
      <point x="454" y="304"/>
      <point x="508" y="346" type="curve"/>
      <point x="509" y="145"/>
      <point x="432" y="35"/>
      <point x="291" y="35" type="curve" smooth="yes"/>
      <point x="215" y="35"/>
      <point x="176" y="56"/>
      <point x="144" y="132" type="curve"/>
      <point x="117" y="127"/>
      <point x="106" y="106"/>
      <point x="106" y="89" type="curve" smooth="yes"/>
      <point x="106" y="42"/>
      <point x="152" y="-9"/>
    </contour>
    <contour>
      <point x="331" y="334" type="curve" smooth="yes"/>
      <point x="223" y="333"/>
      <point x="165" y="406"/>
      <point x="165" y="495" type="curve" smooth="yes"/>
      <point x="165" y="597"/>
      <point x="212" y="676"/>
      <point x="326" y="676" type="curve" smooth="yes"/>
      <point x="451" y="676"/>
      <point x="507" y="578"/>
      <point x="508" y="394" type="curve"/>
      <point x="455" y="352"/>
      <point x="409" y="333"/>
    </contour>
  </outline>
</glyph>
<glyph name="question" format="2">
  <advance width="540"/>
  <unicode hex="003F"/>
  <outline>
    <contour>
      <point x="227" y="198" type="line"/>
      <point x="283" y="198" type="line"/>
      <point x="295" y="323" type="line"/>
      <point x="437" y="382"/>
      <point x="504" y="439"/>
      <point x="504" y="544" type="curve" smooth="yes"/>
      <point x="504" y="643"/>
      <point x="413" y="724"/>
      <point x="259" y="724" type="curve" smooth="yes"/>
      <point x="87" y="724"/>
      <point x="31" y="638"/>
      <point x="31" y="597" type="curve" smooth="yes"/>
      <point x="31" y="554"/>
      <point x="60" y="536"/>
      <point x="121" y="536" type="curve"/>
      <point x="121" y="614"/>
      <point x="156" y="680"/>
      <point x="262" y="680" type="curve" smooth="yes"/>
      <point x="344" y="680"/>
      <point x="399" y="630"/>
      <point x="399" y="553" type="curve" smooth="yes"/>
      <point x="399" y="452"/>
      <point x="347" y="401"/>
      <point x="216" y="343" type="curve"/>
    </contour>
    <contour>
      <point x="252" y="-7" type="curve" smooth="yes"/>
      <point x="284" y="-7"/>
      <point x="312" y="9"/>
      <point x="312" y="58" type="curve" smooth="yes"/>
      <point x="312" y="107"/>
      <point x="284" y="121"/>
      <point x="252" y="121" type="curve" smooth="yes"/>
      <point x="220" y="121"/>
      <point x="192" y="107"/>
      <point x="192" y="58" type="curve" smooth="yes"/>
      <point x="192" y="9"/>
      <point x="220" y="-7"/>
    </contour>
  </outline>
</glyph>
<glyph name="B" format="2">
  <advance width="798"/>
  <unicode hex="0042"/>
  <anchor x="399" y="0" name="bottom"/>
  <anchor x="399" y="714" name="top"/>
  <anchor x="778" y="714" name="topright"/>
  <outline>
    <contour>
      <point x="51" y="0" type="line"/>
      <point x="415" y="0" type="line" smooth="yes"/>
      <point x="617" y="0"/>
      <point x="720" y="62"/>
      <point x="720" y="206" type="curve" smooth="yes"/>
      <point x="720" y="303"/>
      <point x="652" y="370"/>
      <point x="523" y="375" type="curve"/>
      <point x="523" y="378" type="line"/>
      <point x="611" y="396"/>
      <point x="684" y="434"/>
      <point x="684" y="539" type="curve" smooth="yes"/>
      <point x="684" y="671"/>
      <point x="584" y="714"/>
      <point x="379" y="714" type="curve" smooth="yes"/>
      <point x="51" y="714" type="line"/>
      <point x="51" y="676" type="line"/>
      <point x="113" y="676" type="line" smooth="yes"/>
      <point x="152" y="676"/>
      <point x="166" y="663"/>
      <point x="166" y="601" type="curve" smooth="yes"/>
      <point x="166" y="110" type="line" smooth="yes"/>
      <point x="166" y="55"/>
      <point x="157" y="38"/>
      <point x="114" y="38" type="curve" smooth="yes"/>
      <point x="51" y="38" type="line"/>
    </contour>
    <contour>
      <point x="275" y="44" type="line"/>
      <point x="275" y="353" type="line"/>
      <point x="407" y="353" type="line" smooth="yes"/>
      <point x="551" y="353"/>
      <point x="604" y="305"/>
      <point x="604" y="202" type="curve" smooth="yes"/>
      <point x="604" y="98"/>
      <point x="542" y="44"/>
      <point x="404" y="44" type="curve" smooth="yes"/>
    </contour>
    <contour>
      <point x="275" y="397" type="line"/>
      <point x="275" y="670" type="line"/>
      <point x="365" y="670" type="line" smooth="yes"/>
      <point x="508" y="670"/>
      <point x="570" y="638"/>
      <point x="570" y="538" type="curve" smooth="yes"/>
      <point x="570" y="441"/>
      <point x="518" y="397"/>
      <point x="372" y="397" type="curve" smooth="yes"/>
    </contour>
  </outline>
</glyph>
<glyph name="S" format="2">
  <advance width="641"/>
  <unicode hex="0053"/>
  <anchor x="333" y="0" name="bottom"/>
  <anchor x="345" y="714" name="top"/>
  <anchor x="621" y="714" name="topright"/>
  <outline>
    <contour>
      <point x="332" y="-10" type="curve" smooth="yes"/>
      <point x="497" y="-10"/>
      <point x="588" y="83"/>
      <point x="588" y="187" type="curve" smooth="yes"/>
      <point x="588" y="297"/>
      <point x="501" y="353"/>
      <point x="365" y="414" type="curve" smooth="yes"/>
      <point x="241" y="468"/>
      <point x="193" y="506"/>
      <point x="193" y="564" type="curve" smooth="yes"/>
      <point x="193" y="633"/>
      <point x="248" y="679"/>
      <point x="340" y="679" type="curve" smooth="yes"/>
      <point x="436" y="679"/>
      <point x="494" y="631"/>
      <point x="494" y="546" type="curve"/>
      <point x="553" y="546"/>
      <point x="574" y="574"/>
      <point x="574" y="606" type="curve" smooth="yes"/>
      <point x="574" y="674"/>
      <point x="489" y="724"/>
      <point x="352" y="724" type="curve" smooth="yes"/>
      <point x="209" y="724"/>
      <point x="104" y="646"/>
      <point x="104" y="536" type="curve" smooth="yes"/>
      <point x="104" y="452"/>
      <point x="141" y="401"/>
      <point x="299" y="330" type="curve" smooth="yes"/>
      <point x="433" y="270"/>
      <point x="498" y="224"/>
      <point x="498" y="164" type="curve" smooth="yes"/>
      <point x="498" y="100"/>
      <point x="451" y="34"/>
      <point x="342" y="34" type="curve" smooth="yes"/>
      <point x="233" y="34"/>
      <point x="146" y="69"/>
      <point x="148" y="199" type="curve"/>
      <point x="110" y="199"/>
      <point x="73" y="188"/>
      <point x="73" y="129" type="curve" smooth="yes"/>
      <point x="73" y="67"/>
      <point x="140" y="-10"/>
    </contour>
  </outline>
</glyph>
<glyph name="X" format="2">
  <advance width="781"/>
  <unicode hex="0058"/>
  <anchor x="391" y="0" name="bottom"/>
  <anchor x="391" y="714" name="top"/>
  <anchor x="761" y="714" name="topright"/>
  <outline>
    <contour>
      <point x="10" y="0" type="line"/>
      <point x="293" y="0" type="line"/>
      <point x="293" y="38" type="line"/>
      <point x="250" y="38" type="line" smooth="yes"/>
      <point x="210" y="38"/>
      <point x="202" y="50"/>
      <point x="202" y="65" type="curve" smooth="yes"/>
      <point x="202" y="85"/>
      <point x="219" y="105"/>
      <point x="247" y="149" type="curve" smooth="yes"/>
      <point x="373" y="318" type="line"/>
      <point x="498" y="138" type="line" smooth="yes"/>
      <point x="528" y="99"/>
      <point x="536" y="84"/>
      <point x="536" y="66" type="curve" smooth="yes"/>
      <point x="536" y="49"/>
      <point x="526" y="38"/>
      <point x="490" y="38" type="curve" smooth="yes"/>
      <point x="460" y="38" type="line"/>
      <point x="460" y="0" type="line"/>
      <point x="772" y="0" type="line"/>
      <point x="772" y="38" type="line"/>
      <point x="740" y="38" type="line" smooth="yes"/>
      <point x="697" y="38"/>
      <point x="684" y="46"/>
      <point x="655" y="88" type="curve" smooth="yes"/>
      <point x="451" y="377" type="line"/>
      <point x="625" y="619" type="line" smooth="yes"/>
      <point x="658" y="664"/>
      <point x="669" y="676"/>
      <point x="717" y="676" type="curve" smooth="yes"/>
      <point x="754" y="676" type="line"/>
      <point x="754" y="714" type="line"/>
      <point x="492" y="714" type="line"/>
      <point x="492" y="676" type="line"/>
      <point x="523" y="676" type="line" smooth="yes"/>
      <point x="558" y="676"/>
      <point x="572" y="669"/>
      <point x="572" y="652" type="curve" smooth="yes"/>
      <point x="572" y="635"/>
      <point x="554" y="609"/>
      <point x="539" y="588" type="curve" smooth="yes"/>
      <point x="422" y="422" type="line"/>
      <point x="306" y="589" type="line" smooth="yes"/>
      <point x="288" y="614"/>
      <point x="276" y="630"/>
      <point x="276" y="649" type="curve" smooth="yes"/>
      <point x="276" y="663"/>
      <point x="283" y="676"/>
      <point x="326" y="676" type="curve" smooth="yes"/>
      <point x="347" y="676" type="line"/>
      <point x="347" y="714" type="line"/>
      <point x="34" y="714" type="line"/>
      <point x="34" y="676" type="line"/>
      <point x="75" y="676" type="line" smooth="yes"/>
      <point x="127" y="676"/>
      <point x="132" y="664"/>
      <point x="159" y="626" type="curve" smooth="yes"/>
      <point x="341" y="363" type="line"/>
      <point x="143" y="95" type="line" smooth="yes"/>
      <point x="113" y="57"/>
      <point x="100" y="38"/>
      <point x="51" y="38" type="curve" smooth="yes"/>
      <point x="10" y="38" type="line"/>
    </contour>
  </outline>
</glyph>
<glyph name="asciicircum" format="2">
  <advance width="701"/>
  <unicode hex="005E"/>
  <outline>
    <contour>
      <point x="68" y="251" type="line"/>
      <point x="126" y="251" type="line"/>
      <point x="349" y="650" type="line"/>
      <point x="573" y="251" type="line"/>
      <point x="631" y="251" type="line"/>
      <point x="368" y="714" type="line"/>
      <point x="329" y="714" type="line"/>
    </contour>
  </outline>
</glyph>
<glyph name="p" format="2">
  <advance width="734"/>
  <unicode hex="0070"/>
  <anchor x="367" y="-231" name="bottom"/>
  <anchor x="367" y="536" name="top"/>
  <anchor x="698" y="536" name="topright"/>
  <outline>
    <contour>
      <point x="22" y="-231" type="line"/>
      <point x="371" y="-231" type="line"/>
      <point x="371" y="-193" type="line"/>
      <point x="310" y="-193" type="line" smooth="yes"/>
      <point x="266" y="-193"/>
      <point x="240" y="-188"/>
      <point x="240" y="-119" type="curve" smooth="yes"/>
      <point x="240" y="-37" type="line" smooth="yes"/>
      <point x="240" y="37"/>
      <point x="234" y="68"/>
      <point x="235" y="86" type="curve"/>
      <point x="239" y="86" type="line"/>
      <point x="274" y="18"/>
      <point x="335" y="-12"/>
      <point x="425" y="-12" type="curve" smooth="yes"/>
      <point x="578" y="-12"/>
      <point x="666" y="76"/>
      <point x="666" y="271" type="curve" smooth="yes"/>
      <point x="666" y="454"/>
      <point x="591" y="546"/>
      <point x="428" y="546" type="curve" smooth="yes"/>
      <point x="326" y="546"/>
      <point x="262" y="498"/>
      <point x="236" y="444" type="curve"/>
      <point x="231" y="444" type="line"/>
      <point x="218" y="536" type="line"/>
      <point x="12" y="536" type="line"/>
      <point x="12" y="498" type="line"/>
      <point x="59" y="498" type="line" smooth="yes"/>
      <point x="120" y="498"/>
      <point x="133" y="493"/>
      <point x="133" y="425" type="curve" smooth="yes"/>
      <point x="133" y="-122" type="line" smooth="yes"/>
      <point x="133" y="-189"/>
      <point x="107" y="-193"/>
      <point x="64" y="-193" type="curve" smooth="yes"/>
      <point x="22" y="-193" type="line"/>
    </contour>
    <contour>
      <point x="402" y="38" type="curve" smooth="yes"/>
      <point x="284" y="38"/>
      <point x="240" y="120"/>
      <point x="240" y="274" type="curve" smooth="yes"/>
      <point x="240" y="394"/>
      <point x="273" y="495"/>
      <point x="401" y="495" type="curve" smooth="yes"/>
      <point x="519" y="495"/>
      <point x="558" y="409"/>
      <point x="558" y="263" type="curve" smooth="yes"/>
      <point x="558" y="108"/>
      <point x="498" y="38"/>
    </contour>
  </outline>
</glyph>
<glyph name="r" format="2">
  <advance width="556"/>
  <unicode hex="0072"/>
  <anchor x="207" y="0" name="bottom"/>
  <anchor x="309" y="536" name="top"/>
  <anchor x="544" y="536" name="topright"/>
  <outline>
    <contour>
      <point x="42" y="0" type="line"/>
      <point x="370" y="0" type="line"/>
      <point x="370" y="38" type="line"/>
      <point x="318" y="38" type="line" smooth="yes"/>
      <point x="267" y="38"/>
      <point x="250" y="43"/>
      <point x="250" y="113" type="curve" smooth="yes"/>
      <point x="250" y="288" type="line" smooth="yes"/>
      <point x="250" y="400"/>
      <point x="310" y="480"/>
      <point x="383" y="480" type="curve" smooth="yes"/>
      <point x="427" y="480"/>
      <point x="456" y="468"/>
      <point x="456" y="398" type="curve"/>
      <point x="505" y="398"/>
      <point x="538" y="418"/>
      <point x="538" y="459" type="curve" smooth="yes"/>
      <point x="538" y="508"/>
      <point x="495" y="546"/>
      <point x="424" y="546" type="curve" smooth="yes"/>
      <point x="336" y="546"/>
      <point x="283" y="500"/>
      <point x="250" y="427" type="curve"/>
      <point x="246" y="427" type="line"/>
      <point x="235" y="536" type="line"/>
      <point x="42" y="536" type="line"/>
      <point x="42" y="498" type="line"/>
      <point x="64" y="498" type="line" smooth="yes"/>
      <point x="134" y="498"/>
      <point x="144" y="492"/>
      <point x="144" y="427" type="curve" smooth="yes"/>
      <point x="144" y="115" type="line" smooth="yes"/>
      <point x="144" y="44"/>
      <point x="127" y="38"/>
      <point x="70" y="38" type="curve" smooth="yes"/>
      <point x="42" y="38" type="line"/>
    </contour>
  </outline>
</glyph>
<glyph name="w" format="2">
  <advance width="1047"/>
  <unicode hex="0077"/>
  <anchor x="524" y="0" name="bottom"/>
  <anchor x="524" y="536" name="top"/>
  <anchor x="1045" y="536" name="topright"/>
  <outline>
    <contour>
      <point x="256" y="0" type="line"/>
      <point x="337" y="0" type="line"/>
      <point x="513" y="404" type="line"/>
      <point x="691" y="0" type="line"/>
      <point x="773" y="0" type="line"/>
      <point x="945" y="437" type="line" smooth="yes"/>
      <point x="964" y="486"/>
      <point x="972" y="498"/>
      <point x="1015" y="498" type="curve" smooth="yes"/>
      <point x="1045" y="498" type="line"/>
      <point x="1045" y="536" type="line"/>
      <point x="808" y="536" type="line"/>
      <point x="808" y="498" type="line"/>
      <point x="842" y="498" type="line" smooth="yes"/>
      <point x="883" y="498"/>
      <point x="896" y="488"/>
      <point x="896" y="466" type="curve" smooth="yes"/>
      <point x="896" y="451"/>
      <point x="889" y="427"/>
      <point x="880" y="405" type="curve" smooth="yes"/>
      <point x="807" y="218" type="line" smooth="yes"/>
      <point x="785" y="164"/>
      <point x="762" y="113"/>
      <point x="754" y="88" type="curve"/>
      <point x="751" y="88" type="line"/>
      <point x="743" y="112"/>
      <point x="706" y="193"/>
      <point x="691" y="227" type="curve" smooth="yes"/>
      <point x="565" y="533" type="line"/>
      <point x="514" y="533" type="line"/>
      <point x="379" y="228" type="line" smooth="yes"/>
      <point x="362" y="191"/>
      <point x="332" y="121"/>
      <point x="324" y="91" type="curve"/>
      <point x="320" y="91" type="line"/>
      <point x="313" y="120"/>
      <point x="289" y="189"/>
      <point x="273" y="237" type="curve" smooth="yes"/>
      <point x="215" y="408" type="line" smooth="yes"/>
      <point x="208" y="425"/>
      <point x="199" y="457"/>
      <point x="199" y="469" type="curve" smooth="yes"/>
      <point x="199" y="490"/>
      <point x="211" y="498"/>
      <point x="250" y="498" type="curve" smooth="yes"/>
      <point x="276" y="498" type="line"/>
      <point x="276" y="536" type="line"/>
      <point x="3" y="536" type="line"/>
      <point x="3" y="498" type="line"/>
      <point x="32" y="498" type="line" smooth="yes"/>
      <point x="75" y="498"/>
      <point x="83" y="489"/>
      <point x="100" y="445" type="curve" smooth="yes"/>
    </contour>
  </outline>
</glyph>
<glyph name="z" format="2">
  <advance width="615"/>
  <unicode hex="007A"/>
  <anchor x="308" y="0" name="bottom"/>
  <anchor x="308" y="536" name="top"/>
  <anchor x="569" y="536" name="topright"/>
  <outline>
    <contour>
      <point x="53" y="0" type="line"/>
      <point x="556" y="0" type="line"/>
      <point x="561" y="164" type="line"/>
      <point x="516" y="164" type="line"/>
      <point x="512" y="122" type="line" smooth="yes"/>
      <point x="504" y="59"/>
      <point x="490" y="48"/>
      <point x="433" y="48" type="curve" smooth="yes"/>
      <point x="175" y="48" type="line"/>
      <point x="548" y="505" type="line"/>
      <point x="548" y="536" type="line"/>
      <point x="81" y="536" type="line"/>
      <point x="70" y="392" type="line"/>
      <point x="116" y="392" type="line"/>
      <point x="122" y="423" type="line" smooth="yes"/>
      <point x="131" y="478"/>
      <point x="144" y="488"/>
      <point x="195" y="488" type="curve" smooth="yes"/>
      <point x="424" y="488" type="line"/>
      <point x="53" y="30" type="line"/>
    </contour>
  </outline>
</glyph>
<glyph name="logicalnot" format="2">
  <advance width="701"/>
  <unicode hex="00AC"/>
  <outline>
    <contour>
      <point x="557" y="144" type="line"/>
      <point x="611" y="144" type="line"/>
      <point x="611" y="395" type="line"/>
      <point x="82" y="395" type="line"/>
      <point x="82" y="344" type="line"/>
      <point x="557" y="344" type="line"/>
    </contour>
  </outline>
</glyph>
<glyph name="ordmasculine" format="2">
  <advance width="472"/>
  <unicode hex="00BA"/>
  <outline>
    <contour>
      <point x="235" y="380" type="curve" smooth="yes"/>
      <point x="347" y="380"/>
      <point x="431" y="436"/>
      <point x="431" y="550" type="curve" smooth="yes"/>
      <point x="431" y="665"/>
      <point x="343" y="720"/>
      <point x="237" y="720" type="curve" smooth="yes"/>
      <point x="122" y="720"/>
      <point x="41" y="664"/>
      <point x="41" y="550" type="curve" smooth="yes"/>
      <point x="41" y="435"/>
      <point x="128" y="380"/>
    </contour>
    <contour>
      <point x="235" y="419" type="curve" smooth="yes"/>
      <point x="157" y="419"/>
      <point x="119" y="481"/>
      <point x="119" y="550" type="curve" smooth="yes"/>
      <point x="119" y="618"/>
      <point x="157" y="681"/>
      <point x="234" y="681" type="curve" smooth="yes"/>
      <point x="314" y="681"/>
      <point x="354" y="618"/>
      <point x="354" y="550" type="curve" smooth="yes"/>
      <point x="354" y="481"/>
      <point x="315" y="419"/>
    </contour>
  </outline>
</glyph>
<glyph name="guillemotright" format="2">
  <advance width="613"/>
  <unicode hex="00BB"/>
  <outline>
    <contour>
      <point x="303" y="79" type="line"/>
      <point x="363" y="79" type="line"/>
      <point x="525" y="253" type="line"/>
      <point x="525" y="287" type="line"/>
      <point x="363" y="461" type="line"/>
      <point x="303" y="461" type="line"/>
      <point x="447" y="270" type="line"/>
    </contour>
    <contour>
      <point x="89" y="79" type="line"/>
      <point x="148" y="79" type="line"/>
      <point x="311" y="253" type="line"/>
      <point x="311" y="287" type="line"/>
      <point x="148" y="461" type="line"/>
      <point x="89" y="461" type="line"/>
      <point x="233" y="270" type="line"/>
    </contour>
  </outline>
</glyph>
<glyph name="Oslash" format="2">
  <advance width="888"/>
  <unicode hex="00D8"/>
  <anchor x="444" y="0" name="bottom"/>
  <anchor x="444" y="714" name="top"/>
  <outline>
    <contour>
      <point x="150" y="-40" type="line"/>
      <point x="206" y="-40" type="line"/>
      <point x="252" y="28" type="line"/>
      <point x="303" y="3"/>
      <point x="368" y="-10"/>
      <point x="445" y="-10" type="curve" smooth="yes"/>
      <point x="709" y="-10"/>
      <point x="818" y="142"/>
      <point x="818" y="358" type="curve" smooth="yes"/>
      <point x="818" y="495"/>
      <point x="773" y="605"/>
      <point x="676" y="667" type="curve"/>
      <point x="736" y="755" type="line"/>
      <point x="680" y="755" type="line"/>
      <point x="636" y="687" type="line"/>
      <point x="584" y="711"/>
      <point x="521" y="725"/>
      <point x="446" y="725" type="curve" smooth="yes"/>
      <point x="198" y="725"/>
      <point x="68" y="585"/>
      <point x="68" y="359" type="curve" smooth="yes"/>
      <point x="68" y="214"/>
      <point x="115" y="108"/>
      <point x="210" y="47" type="curve"/>
    </contour>
    <contour>
      <point x="444" y="36" type="curve" smooth="yes"/>
      <point x="377" y="36"/>
      <point x="325" y="51"/>
      <point x="285" y="80" type="curve"/>
      <point x="633" y="602" type="line"/>
      <point x="683" y="547"/>
      <point x="704" y="464"/>
      <point x="704" y="358" type="curve" smooth="yes"/>
      <point x="704" y="156"/>
      <point x="635" y="36"/>
    </contour>
    <contour>
      <point x="254" y="115" type="line"/>
      <point x="206" y="169"/>
      <point x="182" y="249"/>
      <point x="182" y="358" type="curve" smooth="yes"/>
      <point x="182" y="560"/>
      <point x="269" y="679"/>
      <point x="446" y="679" type="curve" smooth="yes"/>
      <point x="511" y="679"/>
      <point x="564" y="663"/>
      <point x="601" y="635" type="curve"/>
    </contour>
  </outline>
</glyph>
<glyph name="Thorn" format="2">
  <advance width="723"/>
  <unicode hex="00DE"/>
  <anchor x="362" y="0" name="bottom"/>
  <anchor x="362" y="714" name="top"/>
  <outline>
    <contour>
      <point x="48" y="0" type="line"/>
      <point x="411" y="0" type="line"/>
      <point x="411" y="38" type="line"/>
      <point x="326" y="38" type="line" smooth="yes"/>
      <point x="284" y="38"/>
      <point x="274" y="54"/>
      <point x="274" y="108" type="curve" smooth="yes"/>
      <point x="274" y="163" type="line"/>
      <point x="363" y="163" type="line" smooth="yes"/>
      <point x="601" y="163"/>
      <point x="673" y="286"/>
      <point x="673" y="374" type="curve" smooth="yes"/>
      <point x="673" y="478"/>
      <point x="586" y="559"/>
      <point x="389" y="559" type="curve" smooth="yes"/>
      <point x="274" y="559" type="line"/>
      <point x="274" y="604" type="line" smooth="yes"/>
      <point x="274" y="662"/>
      <point x="283" y="676"/>
      <point x="328" y="676" type="curve" smooth="yes"/>
      <point x="387" y="676" type="line"/>
      <point x="387" y="714" type="line"/>
      <point x="48" y="714" type="line"/>
      <point x="48" y="676" type="line"/>
      <point x="115" y="676" type="line" smooth="yes"/>
      <point x="150" y="676"/>
      <point x="165" y="662"/>
      <point x="165" y="602" type="curve" smooth="yes"/>
      <point x="165" y="108" type="line" smooth="yes"/>
      <point x="165" y="52"/>
      <point x="150" y="38"/>
      <point x="115" y="38" type="curve" smooth="yes"/>
      <point x="48" y="38" type="line"/>
    </contour>
    <contour>
      <point x="274" y="206" type="line"/>
      <point x="274" y="515" type="line"/>
      <point x="383" y="515" type="line" smooth="yes"/>
      <point x="507" y="515"/>
      <point x="558" y="454"/>
      <point x="558" y="374" type="curve" smooth="yes"/>
      <point x="558" y="299"/>
      <point x="519" y="206"/>
      <point x="361" y="206" type="curve" smooth="yes"/>
    </contour>
  </outline>
</glyph>
<glyph name="dcroat" format="2">
  <advance width="735"/>
  <unicode hex="0111"/>
  <anchor x="367" y="0" name="bottom"/>
  <anchor x="367" y="760" name="top"/>
  <outline>
    <contour>
      <point x="305" y="-10" type="curve" smooth="yes"/>
      <point x="412" y="-10"/>
      <point x="474" y="40"/>
      <point x="509" y="115" type="curve"/>
      <point x="513" y="115" type="line"/>
      <point x="531" y="0" type="line"/>
      <point x="716" y="0" type="line"/>
      <point x="716" y="38" type="line"/>
      <point x="693" y="38" type="line" smooth="yes"/>
      <point x="623" y="38"/>
      <point x="611" y="47"/>
      <point x="611" y="121" type="curve" smooth="yes"/>
      <point x="611" y="592" type="line"/>
      <point x="712" y="592" type="line"/>
      <point x="712" y="631" type="line"/>
      <point x="611" y="631" type="line"/>
      <point x="611" y="760" type="line"/>
      <point x="392" y="760" type="line"/>
      <point x="392" y="722" type="line"/>
      <point x="425" y="722" type="line" smooth="yes"/>
      <point x="481" y="722"/>
      <point x="503" y="718"/>
      <point x="503" y="656" type="curve" smooth="yes"/>
      <point x="503" y="631" type="line"/>
      <point x="289" y="631" type="line"/>
      <point x="289" y="592" type="line"/>
      <point x="503" y="592" type="line"/>
      <point x="503" y="535" type="line" smooth="yes"/>
      <point x="503" y="506"/>
      <point x="504" y="468"/>
      <point x="504" y="430" type="curve"/>
      <point x="499" y="430" type="line"/>
      <point x="467" y="485"/>
      <point x="401" y="518"/>
      <point x="298" y="518" type="curve" smooth="yes"/>
      <point x="137" y="518"/>
      <point x="68" y="403"/>
      <point x="68" y="248" type="curve" smooth="yes"/>
      <point x="68" y="90"/>
      <point x="152" y="-10"/>
    </contour>
    <contour>
      <point x="333" y="40" type="curve" smooth="yes"/>
      <point x="241" y="37"/>
      <point x="176" y="119"/>
      <point x="176" y="247" type="curve" smooth="yes"/>
      <point x="176" y="370"/>
      <point x="212" y="468"/>
      <point x="331" y="468" type="curve" smooth="yes"/>
      <point x="465" y="468"/>
      <point x="504" y="394"/>
      <point x="504" y="251" type="curve" smooth="yes"/>
      <point x="504" y="141"/>
      <point x="454" y="42"/>
    </contour>
  </outline>
</glyph>
<glyph name="idotless" format="2">
  <advance width="380"/>
  <unicode hex="0131"/>
  <anchor x="189" y="0" name="bottom"/>
  <anchor x="189" y="536" name="top"/>
  <outline>
    <contour>
      <point x="30" y="0" type="line"/>
      <point x="366" y="0" type="line"/>
      <point x="366" y="38" type="line"/>
      <point x="335" y="38" type="line" smooth="yes"/>
      <point x="263" y="38"/>
      <point x="250" y="47"/>
      <point x="250" y="109" type="curve" smooth="yes"/>
      <point x="250" y="536" type="line"/>
      <point x="44" y="536" type="line"/>
      <point x="44" y="498" type="line"/>
      <point x="71" y="498" type="line" smooth="yes"/>
      <point x="124" y="498"/>
      <point x="144" y="489"/>
      <point x="144" y="430" type="curve" smooth="yes"/>
      <point x="144" y="111" type="line" smooth="yes"/>
      <point x="144" y="47"/>
      <point x="130" y="38"/>
      <point x="62" y="38" type="curve" smooth="yes"/>
      <point x="30" y="38" type="line"/>
    </contour>
  </outline>
</glyph>
<glyph name="OE" format="2">
  <advance width="1145"/>
  <unicode hex="0152"/>
  <anchor x="573" y="0" name="bottom"/>
  <anchor x="573" y="714" name="top"/>
  <outline>
    <contour>
      <point x="443" y="-6" type="curve" smooth="yes"/>
      <point x="480" y="-6"/>
      <point x="529" y="-3"/>
      <point x="567" y="0" type="curve"/>
      <point x="1083" y="0" type="line"/>
      <point x="1093" y="175" type="line"/>
      <point x="1043" y="175" type="line"/>
      <point x="1035" y="99" type="line" smooth="yes"/>
      <point x="1031" y="54"/>
      <point x="1002" y="44"/>
      <point x="964" y="44" type="curve" smooth="yes"/>
      <point x="673" y="44" type="line"/>
      <point x="672" y="352" type="line"/>
      <point x="962" y="352" type="line"/>
      <point x="962" y="396" type="line"/>
      <point x="672" y="396" type="line"/>
      <point x="672" y="670" type="line"/>
      <point x="927" y="670" type="line" smooth="yes"/>
      <point x="972" y="670"/>
      <point x="989" y="661"/>
      <point x="993" y="621" type="curve" smooth="yes"/>
      <point x="1001" y="539" type="line"/>
      <point x="1051" y="539" type="line"/>
      <point x="1044" y="714" type="line"/>
      <point x="569" y="714" type="line"/>
      <point x="530" y="720"/>
      <point x="481" y="721"/>
      <point x="444" y="721" type="curve" smooth="yes"/>
      <point x="196" y="721"/>
      <point x="68" y="585"/>
      <point x="68" y="359" type="curve" smooth="yes"/>
      <point x="68" y="123"/>
      <point x="193" y="-6"/>
    </contour>
    <contour>
      <point x="443" y="40" type="curve" smooth="yes"/>
      <point x="264" y="40"/>
      <point x="182" y="150"/>
      <point x="182" y="358" type="curve" smooth="yes"/>
      <point x="182" y="560"/>
      <point x="268" y="675"/>
      <point x="444" y="675" type="curve" smooth="yes"/>
      <point x="485" y="675"/>
      <point x="528" y="669"/>
      <point x="564" y="659" type="curve"/>
      <point x="564" y="56" type="line"/>
      <point x="538" y="46"/>
      <point x="509" y="40"/>
    </contour>
  </outline>
</glyph>
<glyph name="longs" format="2">
  <advance width="372"/>
  <unicode hex="017F"/>
  <anchor x="187" y="0" name="bottom"/>
  <anchor x="331" y="770" name="top"/>
  <outline>
    <contour>
      <point x="16" y="0" type="line"/>
      <point x="384" y="0" type="line"/>
      <point x="384" y="38" type="line"/>
      <point x="325" y="38" type="line" smooth="yes"/>
      <point x="255" y="38"/>
      <point x="241" y="46"/>
      <point x="241" y="105" type="curve" smooth="yes"/>
      <point x="241" y="592" type="line" smooth="yes"/>
      <point x="241" y="688"/>
      <point x="285" y="727"/>
      <point x="351" y="727" type="curve" smooth="yes"/>
      <point x="420" y="727"/>
      <point x="436" y="684"/>
      <point x="436" y="641" type="curve"/>
      <point x="483" y="641"/>
      <point x="508" y="654"/>
      <point x="508" y="690" type="curve" smooth="yes"/>
      <point x="508" y="719"/>
      <point x="468" y="770"/>
      <point x="351" y="770" type="curve" smooth="yes"/>
      <point x="207" y="770"/>
      <point x="134" y="695"/>
      <point x="134" y="582" type="curve" smooth="yes"/>
      <point x="134" y="105" type="line" smooth="yes"/>
      <point x="134" y="45"/>
      <point x="119" y="38"/>
      <point x="50" y="38" type="curve" smooth="yes"/>
      <point x="16" y="38" type="line"/>
    </contour>
  </outline>
</glyph>
<glyph name="uni0197" format="2">
  <advance width="437"/>
  <unicode hex="0197"/>
  <anchor x="218" y="0" name="bottom"/>
  <anchor x="218" y="714" name="top"/>
  <outline>
    <contour>
      <point x="48" y="0" type="line"/>
      <point x="387" y="0" type="line"/>
      <point x="387" y="38" type="line"/>
      <point x="328" y="38" type="line" smooth="yes"/>
      <point x="284" y="38"/>
      <point x="274" y="54"/>
      <point x="274" y="109" type="curve" smooth="yes"/>
      <point x="274" y="351" type="line"/>
      <point x="370" y="351" type="line"/>
      <point x="370" y="394" type="line"/>
      <point x="274" y="394" type="line"/>
      <point x="274" y="602" type="line" smooth="yes"/>
      <point x="274" y="662"/>
      <point x="282" y="676"/>
      <point x="329" y="676" type="curve" smooth="yes"/>
      <point x="387" y="676" type="line"/>
      <point x="387" y="714" type="line"/>
      <point x="48" y="714" type="line"/>
      <point x="48" y="676" type="line"/>
      <point x="115" y="676" type="line" smooth="yes"/>
      <point x="150" y="676"/>
      <point x="165" y="662"/>
      <point x="165" y="602" type="curve" smooth="yes"/>
      <point x="165" y="394" type="line"/>
      <point x="66" y="394" type="line"/>
      <point x="66" y="351" type="line"/>
      <point x="165" y="351" type="line"/>
      <point x="165" y="108" type="line" smooth="yes"/>
      <point x="165" y="52"/>
      <point x="153" y="38"/>
      <point x="111" y="38" type="curve" smooth="yes"/>
      <point x="48" y="38" type="line"/>
    </contour>
  </outline>
</glyph>
<glyph name="uni0199" format="2">
  <advance width="696"/>
  <unicode hex="0199"/>
  <anchor x="348" y="0" name="bottom"/>
  <anchor x="348" y="767" name="top"/>
  <outline>
    <contour>
      <point x="23" y="0" type="line"/>
      <point x="343" y="0" type="line"/>
      <point x="343" y="38" type="line"/>
      <point x="320" y="38" type="line" smooth="yes"/>
      <point x="263" y="38"/>
      <point x="240" y="43"/>
      <point x="240" y="107" type="curve" smooth="yes"/>
      <point x="240" y="185" type="line"/>
      <point x="338" y="267" type="line"/>
      <point x="453" y="114" type="line" smooth="yes"/>
      <point x="529" y="14"/>
      <point x="554" y="0"/>
      <point x="678" y="0" type="curve" smooth="yes"/>
      <point x="698" y="0" type="line"/>
      <point x="698" y="38" type="line"/>
      <point x="695" y="38" type="line" smooth="yes"/>
      <point x="657" y="38"/>
      <point x="619" y="60"/>
      <point x="563" y="131" type="curve" smooth="yes"/>
      <point x="411" y="328" type="line"/>
      <point x="582" y="503" type="line" smooth="yes"/>
      <point x="588" y="491"/>
      <point x="613" y="500"/>
      <point x="662" y="500" type="curve"/>
      <point x="662" y="536" type="line"/>
      <point x="413" y="536" type="line"/>
      <point x="413" y="500" type="line"/>
      <point x="465" y="500"/>
      <point x="489" y="492"/>
      <point x="489" y="476" type="curve" smooth="yes"/>
      <point x="489" y="455"/>
      <point x="442" y="416"/>
      <point x="393" y="378" type="curve" smooth="yes"/>
      <point x="237" y="243" type="line"/>
      <point x="237" y="294"/>
      <point x="240" y="323"/>
      <point x="240" y="377" type="curve" smooth="yes"/>
      <point x="240" y="660" type="line" smooth="yes"/>
      <point x="240" y="718"/>
      <point x="284" y="722"/>
      <point x="312" y="722" type="curve" smooth="yes"/>
      <point x="338" y="722"/>
      <point x="360" y="715"/>
      <point x="389" y="667" type="curve"/>
      <point x="437" y="670"/>
      <point x="448" y="680"/>
      <point x="448" y="700" type="curve" smooth="yes"/>
      <point x="448" y="730"/>
      <point x="415" y="767"/>
      <point x="309" y="767" type="curve" smooth="yes"/>
      <point x="184" y="767"/>
      <point x="133" y="704"/>
      <point x="133" y="658" type="curve" smooth="yes"/>
      <point x="133" y="104" type="line" smooth="yes"/>
      <point x="133" y="42"/>
      <point x="111" y="38"/>
      <point x="47" y="38" type="curve" smooth="yes"/>
      <point x="23" y="38" type="line"/>
    </contour>
  </outline>
</glyph>
<glyph name="uni01AC" format="2">
  <advance width="761"/>
  <unicode hex="01AC"/>
  <anchor x="381" y="0" name="bottom"/>
  <anchor x="381" y="714" name="top"/>
  <outline>
    <contour>
      <point x="204" y="0" type="line"/>
      <point x="585" y="0" type="line"/>
      <point x="585" y="38" type="line"/>
      <point x="512" y="38" type="line" smooth="yes"/>
      <point x="465" y="38"/>
      <point x="450" y="48"/>
      <point x="450" y="114" type="curve" smooth="yes"/>
      <point x="450" y="670" type="line"/>
      <point x="603" y="670" type="line" smooth="yes"/>
      <point x="655" y="670"/>
      <point x="676" y="664"/>
      <point x="680" y="607" type="curve" smooth="yes"/>
      <point x="687" y="537" type="line"/>
      <point x="734" y="537" type="line"/>
      <point x="728" y="714" type="line"/>
      <point x="192" y="714" type="line" smooth="yes"/>
      <point x="71" y="714"/>
      <point x="18" y="661"/>
      <point x="18" y="594" type="curve" smooth="yes"/>
      <point x="18" y="540"/>
      <point x="43" y="510"/>
      <point x="76" y="510" type="curve" smooth="yes"/>
      <point x="99" y="510"/>
      <point x="111" y="518"/>
      <point x="122" y="527" type="curve"/>
      <point x="106" y="544"/>
      <point x="91" y="566"/>
      <point x="91" y="598" type="curve" smooth="yes"/>
      <point x="91" y="658"/>
      <point x="136" y="670"/>
      <point x="190" y="670" type="curve" smooth="yes"/>
      <point x="340" y="670" type="line"/>
      <point x="340" y="116" type="line" smooth="yes"/>
      <point x="340" y="48"/>
      <point x="325" y="38"/>
      <point x="273" y="38" type="curve" smooth="yes"/>
      <point x="204" y="38" type="line"/>
    </contour>
  </outline>
</glyph>
<glyph name="uni01AE" format="2">
  <advance width="732"/>
  <unicode hex="01AE"/>
  <anchor x="366" y="-240" name="bottom"/>
  <anchor x="366" y="714" name="top"/>
  <outline>
    <contour>
      <point x="480" y="-240" type="curve" smooth="yes"/>
      <point x="511" y="-240"/>
      <point x="552" y="-234"/>
      <point x="575" y="-227" type="curve"/>
      <point x="575" y="-184" type="line"/>
      <point x="550" y="-191"/>
      <point x="528" y="-192"/>
      <point x="496" y="-192" type="curve" smooth="yes"/>
      <point x="445" y="-192"/>
      <point x="420" y="-168"/>
      <point x="420" y="-95" type="curve" smooth="yes"/>
      <point x="420" y="670" type="line"/>
      <point x="568" y="670" type="line" smooth="yes"/>
      <point x="627" y="670"/>
      <point x="645" y="664"/>
      <point x="650" y="607" type="curve" smooth="yes"/>
      <point x="656" y="537" type="line"/>
      <point x="704" y="537" type="line"/>
      <point x="697" y="714" type="line"/>
      <point x="33" y="714" type="line"/>
      <point x="26" y="537" type="line"/>
      <point x="75" y="537" type="line"/>
      <point x="82" y="621" type="line" smooth="yes"/>
      <point x="86" y="664"/>
      <point x="107" y="670"/>
      <point x="164" y="670" type="curve" smooth="yes"/>
      <point x="309" y="670" type="line"/>
      <point x="309" y="-68" type="line" smooth="yes"/>
      <point x="309" y="-197"/>
      <point x="361" y="-240"/>
    </contour>
  </outline>
</glyph>
<glyph name="uhorn" format="2">
  <advance width="831"/>
  <unicode hex="01B0"/>
  <anchor x="415" y="0" name="bottom"/>
  <anchor x="415" y="536" name="top"/>
  <outline>
    <contour>
      <point x="328" y="-10" type="curve" smooth="yes"/>
      <point x="434" y="-10"/>
      <point x="493" y="43"/>
      <point x="521" y="87" type="curve"/>
      <point x="526" y="87" type="line"/>
      <point x="541" y="0" type="line"/>
      <point x="737" y="0" type="line"/>
      <point x="737" y="38" type="line"/>
      <point x="695" y="38" type="line" smooth="yes"/>
      <point x="646" y="38"/>
      <point x="630" y="41"/>
      <point x="630" y="102" type="curve" smooth="yes"/>
      <point x="630" y="380" type="line"/>
      <point x="707" y="379"/>
      <point x="800" y="434"/>
      <point x="800" y="541" type="curve" smooth="yes"/>
      <point x="800" y="598"/>
      <point x="774" y="628"/>
      <point x="739" y="628" type="curve" smooth="yes"/>
      <point x="713" y="628"/>
      <point x="688" y="614"/>
      <point x="688" y="588" type="curve" smooth="yes"/>
      <point x="688" y="538"/>
      <point x="738" y="543"/>
      <point x="738" y="503" type="curve" smooth="yes"/>
      <point x="738" y="451"/>
      <point x="675" y="415"/>
      <point x="630" y="415" type="curve"/>
      <point x="630" y="536" type="line"/>
      <point x="426" y="536" type="line"/>
      <point x="426" y="498" type="line"/>
      <point x="454" y="498" type="line" smooth="yes"/>
      <point x="508" y="498"/>
      <point x="523" y="494"/>
      <point x="523" y="441" type="curve" smooth="yes"/>
      <point x="523" y="217" type="line" smooth="yes"/>
      <point x="523" y="123"/>
      <point x="468" y="49"/>
      <point x="364" y="49" type="curve" smooth="yes"/>
      <point x="255" y="49"/>
      <point x="237" y="125"/>
      <point x="237" y="206" type="curve" smooth="yes"/>
      <point x="237" y="536" type="line"/>
      <point x="24" y="536" type="line"/>
      <point x="24" y="498" type="line"/>
      <point x="60" y="498" type="line" smooth="yes"/>
      <point x="126" y="498"/>
      <point x="130" y="488"/>
      <point x="130" y="423" type="curve" smooth="yes"/>
      <point x="130" y="186" type="line" smooth="yes"/>
      <point x="130" y="59"/>
      <point x="183" y="-10"/>
    </contour>
  </outline>
</glyph>
<glyph name="uni01B6" format="2">
  <advance width="615"/>
  <unicode hex="01B6"/>
  <anchor x="308" y="0" name="bottom"/>
  <anchor x="308" y="536" name="top"/>
  <outline>
    <contour>
      <point x="53" y="0" type="line"/>
      <point x="556" y="0" type="line"/>
      <point x="561" y="164" type="line"/>
      <point x="516" y="164" type="line"/>
      <point x="512" y="124" type="line" smooth="yes"/>
      <point x="504" y="44"/>
      <point x="479" y="48"/>
      <point x="419" y="48" type="curve" smooth="yes"/>
      <point x="175" y="48" type="line"/>
      <point x="346" y="257" type="line"/>
      <point x="502" y="257" type="line"/>
      <point x="502" y="300" type="line"/>
      <point x="381" y="300" type="line"/>
      <point x="548" y="505" type="line"/>
      <point x="548" y="536" type="line"/>
      <point x="81" y="536" type="line"/>
      <point x="70" y="392" type="line"/>
      <point x="116" y="392" type="line"/>
      <point x="123" y="433" type="line" smooth="yes"/>
      <point x="132" y="484"/>
      <point x="150" y="488"/>
      <point x="199" y="488" type="curve" smooth="yes"/>
      <point x="424" y="488" type="line"/>
      <point x="269" y="300" type="line"/>
      <point x="96" y="300" type="line"/>
      <point x="96" y="257" type="line"/>
      <point x="235" y="257" type="line"/>
      <point x="53" y="30" type="line"/>
    </contour>
  </outline>
</glyph>
<glyph name="uni01C2" format="2">
  <advance width="666"/>
  <unicode hex="01C2"/>
  <anchor x="333" y="0" name="bottom"/>
  <anchor x="333" y="760" name="top"/>
  <outline>
    <contour>
      <point x="300" y="0" type="line"/>
      <point x="367" y="0" type="line"/>
      <point x="367" y="249" type="line"/>
      <point x="607" y="249" type="line"/>
      <point x="607" y="311" type="line"/>
      <point x="367" y="311" type="line"/>
      <point x="367" y="447" type="line"/>
      <point x="607" y="447" type="line"/>
      <point x="607" y="509" type="line"/>
      <point x="367" y="509" type="line"/>
      <point x="367" y="760" type="line"/>
      <point x="300" y="760" type="line"/>
      <point x="300" y="509" type="line"/>
      <point x="60" y="509" type="line"/>
      <point x="60" y="447" type="line"/>
      <point x="300" y="447" type="line"/>
      <point x="300" y="311" type="line"/>
      <point x="60" y="311" type="line"/>
      <point x="60" y="249" type="line"/>
      <point x="300" y="249" type="line"/>
    </contour>
  </outline>
</glyph>
<glyph name="eturned" format="2">
  <advance width="638"/>
  <unicode hex="01DD"/>
  <anchor x="319" y="0" name="bottom"/>
  <anchor x="319" y="536" name="top"/>
  <outline>
    <contour>
      <point x="303" y="-10" type="curve" smooth="yes"/>
      <point x="474" y="-10"/>
      <point x="570" y="83"/>
      <point x="570" y="272" type="curve" smooth="yes"/>
      <point x="570" y="448"/>
      <point x="471" y="546"/>
      <point x="292" y="546" type="curve" smooth="yes"/>
      <point x="148" y="546"/>
      <point x="78" y="490"/>
      <point x="78" y="438" type="curve" smooth="yes"/>
      <point x="78" y="424"/>
      <point x="83" y="413"/>
      <point x="98" y="403" type="curve"/>
      <point x="127" y="459"/>
      <point x="183" y="495"/>
      <point x="272" y="495" type="curve" smooth="yes"/>
      <point x="383" y="495"/>
      <point x="461" y="418"/>
      <point x="461" y="266" type="curve"/>
      <point x="55" y="266" type="line"/>
      <point x="55" y="239" type="line" smooth="yes"/>
      <point x="55" y="78"/>
      <point x="153" y="-10"/>
    </contour>
    <contour>
      <point x="302" y="36" type="curve" smooth="yes"/>
      <point x="213" y="36"/>
      <point x="160" y="108"/>
      <point x="160" y="222" type="curve"/>
      <point x="458" y="222" type="line"/>
      <point x="452" y="107"/>
      <point x="410" y="36"/>
    </contour>
  </outline>
</glyph>
<glyph name="uni01E5" format="2">
  <advance width="645"/>
  <unicode hex="01E5"/>
  <anchor x="323" y="-239" name="bottom"/>
  <anchor x="323" y="536" name="top"/>
  <outline>
    <contour>
      <point x="284" y="-239" type="curve" smooth="yes"/>
      <point x="453" y="-239"/>
      <point x="549" y="-191"/>
      <point x="580" y="-118" type="curve"/>
      <point x="653" y="-118" type="line"/>
      <point x="653" y="-74" type="line"/>
      <point x="592" y="-74" type="line"/>
      <point x="593" y="-68"/>
      <point x="593" y="-61"/>
      <point x="593" y="-54" type="curve" smooth="yes"/>
      <point x="593" y="55"/>
      <point x="520" y="93"/>
      <point x="392" y="93" type="curve" smooth="yes"/>
      <point x="288" y="93" type="line" smooth="yes"/>
      <point x="236" y="93"/>
      <point x="186" y="99"/>
      <point x="186" y="135" type="curve" smooth="yes"/>
      <point x="186" y="166"/>
      <point x="207" y="191"/>
      <point x="232" y="202" type="curve"/>
      <point x="242" y="196"/>
      <point x="291" y="192"/>
      <point x="308" y="192" type="curve" smooth="yes"/>
      <point x="459" y="192"/>
      <point x="532" y="267"/>
      <point x="532" y="368" type="curve" smooth="yes"/>
      <point x="532" y="417"/>
      <point x="506" y="465"/>
      <point x="476" y="491" type="curve"/>
      <point x="498" y="502"/>
      <point x="515" y="519"/>
      <point x="551" y="519" type="curve" smooth="yes"/>
      <point x="567" y="519"/>
      <point x="589" y="507"/>
      <point x="590" y="468" type="curve"/>
      <point x="619" y="468"/>
      <point x="635" y="494"/>
      <point x="635" y="519" type="curve" smooth="yes"/>
      <point x="635" y="548"/>
      <point x="614" y="571"/>
      <point x="568" y="571" type="curve" smooth="yes"/>
      <point x="514" y="571"/>
      <point x="474" y="538"/>
      <point x="448" y="512" type="curve"/>
      <point x="410" y="535"/>
      <point x="368" y="546"/>
      <point x="308" y="546" type="curve" smooth="yes"/>
      <point x="153" y="546"/>
      <point x="77" y="465"/>
      <point x="77" y="379" type="curve" smooth="yes"/>
      <point x="77" y="309"/>
      <point x="112" y="246"/>
      <point x="192" y="214" type="curve"/>
      <point x="154" y="198"/>
      <point x="107" y="162"/>
      <point x="107" y="118" type="curve" smooth="yes"/>
      <point x="107" y="74"/>
      <point x="143" y="51"/>
      <point x="189" y="40" type="curve"/>
      <point x="102" y="38"/>
      <point x="33" y="-17"/>
      <point x="33" y="-87" type="curve" smooth="yes"/>
      <point x="33" y="-186"/>
      <point x="123" y="-239"/>
    </contour>
    <contour>
      <point x="290" y="-195" type="curve" smooth="yes"/>
      <point x="173" y="-195"/>
      <point x="117" y="-151"/>
      <point x="117" y="-92" type="curve" smooth="yes"/>
      <point x="117" y="-3"/>
      <point x="187" y="8"/>
      <point x="261" y="8" type="curve" smooth="yes"/>
      <point x="396" y="8" type="line" smooth="yes"/>
      <point x="457" y="8"/>
      <point x="504" y="-2"/>
      <point x="507" y="-74" type="curve"/>
      <point x="318" y="-74" type="line"/>
      <point x="318" y="-118" type="line"/>
      <point x="494" y="-118" type="line"/>
      <point x="472" y="-173"/>
      <point x="400" y="-195"/>
    </contour>
    <contour>
      <point x="305" y="236" type="curve" smooth="yes"/>
      <point x="225" y="236"/>
      <point x="171" y="280"/>
      <point x="171" y="364" type="curve" smooth="yes"/>
      <point x="171" y="450"/>
      <point x="221" y="502"/>
      <point x="306" y="502" type="curve" smooth="yes"/>
      <point x="396" y="502"/>
      <point x="437" y="447"/>
      <point x="437" y="365" type="curve" smooth="yes"/>
      <point x="437" y="273"/>
      <point x="391" y="236"/>
    </contour>
  </outline>
</glyph>
<glyph name="uni023C" format="2">
  <advance width="587"/>
  <unicode hex="023C"/>
  <anchor x="293" y="-139" name="bottom"/>
  <anchor x="293" y="714" name="top"/>
  <anchor x="567" y="536" name="topright"/>
  <outline>
    <contour>
      <point x="171" y="-139" type="line"/>
      <point x="230" y="-139" type="line"/>
      <point x="492" y="714" type="line"/>
      <point x="436" y="714" type="line"/>
    </contour>
    <component base="c"/>
  </outline>
</glyph>
<glyph name="uni023F" format="2">
  <advance width="531"/>
  <unicode hex="023F"/>
  <anchor x="265" y="-238" name="bottom"/>
  <anchor x="265" y="536" name="top"/>
  <anchor x="469" y="536" name="topright"/>
  <outline>
    <contour>
      <point x="393" y="-238" type="curve" smooth="yes"/>
      <point x="465" y="-238"/>
      <point x="500" y="-200"/>
      <point x="500" y="-158" type="curve" smooth="yes"/>
      <point x="500" y="-135"/>
      <point x="484" y="-118"/>
      <point x="451" y="-117" type="curve"/>
      <point x="451" y="-170"/>
      <point x="427" y="-187"/>
      <point x="389" y="-187" type="curve" smooth="yes"/>
      <point x="354" y="-187"/>
      <point x="331" y="-183"/>
      <point x="317" y="-136" type="curve" smooth="yes"/>
      <point x="302" y="-86"/>
      <point x="282" y="-38"/>
      <point x="241" y="-7" type="curve"/>
      <point x="133" y="19" type="line"/>
      <point x="194" y="-13"/>
      <point x="233" y="-43"/>
      <point x="260" y="-113" type="curve" smooth="yes"/>
      <point x="283" y="-185"/>
      <point x="305" y="-238"/>
    </contour>
    <component base="s"/>
  </outline>
</glyph>
<glyph name="uni0241" format="2">
  <advance width="616"/>
  <unicode hex="0241"/>
  <anchor x="307" y="0" name="bottom"/>
  <anchor x="307" y="714" name="top"/>
  <outline>
    <contour>
      <point x="86" y="0" type="line"/>
      <point x="424" y="0" type="line"/>
      <point x="424" y="38" type="line"/>
      <point x="356" y="38" type="line" smooth="yes"/>
      <point x="321" y="38"/>
      <point x="312" y="47"/>
      <point x="312" y="114" type="curve" smooth="yes"/>
      <point x="312" y="265" type="line"/>
      <point x="480" y="314"/>
      <point x="555" y="415"/>
      <point x="555" y="515" type="curve" smooth="yes"/>
      <point x="555" y="634"/>
      <point x="464" y="725"/>
      <point x="286" y="725" type="curve" smooth="yes"/>
      <point x="133" y="725"/>
      <point x="49" y="669"/>
      <point x="49" y="595" type="curve" smooth="yes"/>
      <point x="49" y="553"/>
      <point x="77" y="538"/>
      <point x="147" y="538" type="curve"/>
      <point x="147" y="622"/>
      <point x="174" y="682"/>
      <point x="281" y="682" type="curve" smooth="yes"/>
      <point x="381" y="682"/>
      <point x="440" y="637"/>
      <point x="440" y="524" type="curve" smooth="yes"/>
      <point x="440" y="426"/>
      <point x="332" y="330"/>
      <point x="201" y="302" type="curve"/>
      <point x="201" y="114" type="line" smooth="yes"/>
      <point x="201" y="47"/>
      <point x="194" y="38"/>
      <point x="153" y="38" type="curve" smooth="yes"/>
      <point x="86" y="38" type="line"/>
    </contour>
  </outline>
</glyph>
<glyph name="uni024C" format="2">
  <advance width="782"/>
  <unicode hex="024C"/>
  <anchor x="391" y="0" name="bottom"/>
  <anchor x="391" y="714" name="top"/>
  <anchor x="767" y="714" name="topright"/>
  <outline>
    <contour>
      <point x="42" y="313" type="line"/>
      <point x="170" y="313" type="line"/>
      <point x="170" y="357" type="line"/>
      <point x="42" y="357" type="line"/>
    </contour>
    <component base="R"/>
  </outline>
</glyph>
<glyph name="uni024F" format="2">
  <advance width="681"/>
  <unicode hex="024F"/>
  <anchor x="341" y="-231" name="bottom"/>
  <anchor x="341" y="536" name="top"/>
  <anchor x="679" y="536" name="topright"/>
  <outline>
    <contour>
      <point x="18" y="314" type="line"/>
      <point x="666" y="314" type="line"/>
      <point x="666" y="358" type="line"/>
      <point x="18" y="358" type="line"/>
    </contour>
    <component base="y"/>
  </outline>
</glyph>
<glyph name="uni0252" format="2">
  <advance width="736"/>
  <unicode hex="0252"/>
  <anchor x="368" y="0" name="bottom"/>
  <anchor x="368" y="536" name="top"/>
  <outline>
    <contour>
      <point x="442" y="-6" type="curve" smooth="yes"/>
      <point x="593" y="-6"/>
      <point x="677" y="97"/>
      <point x="677" y="265" type="curve" smooth="yes"/>
      <point x="677" y="446"/>
      <point x="594" y="548"/>
      <point x="443" y="548" type="curve" smooth="yes"/>
      <point x="353" y="548"/>
      <point x="276" y="507"/>
      <point x="236" y="428" type="curve"/>
      <point x="229" y="428" type="line"/>
      <point x="224" y="504"/>
      <point x="191" y="545"/>
      <point x="123" y="545" type="curve" smooth="yes"/>
      <point x="72" y="545"/>
      <point x="42" y="538"/>
      <point x="24" y="535" type="curve"/>
      <point x="24" y="490" type="line"/>
      <point x="43" y="496"/>
      <point x="61" y="497"/>
      <point x="75" y="497" type="curve" smooth="yes"/>
      <point x="128" y="497"/>
      <point x="135" y="464"/>
      <point x="135" y="392" type="curve" smooth="yes"/>
      <point x="135" y="2" type="line"/>
      <point x="212" y="2" type="line"/>
      <point x="239" y="75" type="line"/>
      <point x="245" y="75" type="line"/>
      <point x="277" y="26"/>
      <point x="333" y="-6"/>
    </contour>
    <contour>
      <point x="407" y="44" type="curve" smooth="yes"/>
      <point x="273" y="44"/>
      <point x="241" y="131"/>
      <point x="241" y="271" type="curve" smooth="yes"/>
      <point x="241" y="392"/>
      <point x="295" y="496"/>
      <point x="418" y="498" type="curve" smooth="yes"/>
      <point x="505" y="500"/>
      <point x="569" y="413"/>
      <point x="569" y="271" type="curve" smooth="yes"/>
      <point x="569" y="134"/>
      <point x="520" y="44"/>
    </contour>
  </outline>
</glyph>
<glyph name="uni0255" format="2">
  <advance width="587"/>
  <unicode hex="0255"/>
  <anchor x="293" y="0" name="bottom"/>
  <anchor x="293" y="536" name="top"/>
  <outline>
    <contour>
      <point x="135" y="-28" type="line"/>
      <point x="145" y="-11"/>
      <point x="163" y="16"/>
      <point x="174" y="34" type="curve"/>
      <point x="208" y="8"/>
      <point x="266" y="-10"/>
      <point x="340" y="-10" type="curve" smooth="yes"/>
      <point x="482" y="-10"/>
      <point x="554" y="52"/>
      <point x="554" y="134" type="curve" smooth="yes"/>
      <point x="554" y="238"/>
      <point x="465" y="254"/>
      <point x="396" y="254" type="curve" smooth="yes"/>
      <point x="300" y="254"/>
      <point x="244" y="202"/>
      <point x="205" y="150" type="curve"/>
      <point x="186" y="183"/>
      <point x="174" y="218"/>
      <point x="174" y="266" type="curve" smooth="yes"/>
      <point x="174" y="437"/>
      <point x="240" y="501"/>
      <point x="334" y="501" type="curve" smooth="yes"/>
      <point x="414" y="501"/>
      <point x="455" y="430"/>
      <point x="455" y="377" type="curve"/>
      <point x="529" y="378"/>
      <point x="543" y="414"/>
      <point x="543" y="435" type="curve" smooth="yes"/>
      <point x="543" y="488"/>
      <point x="476" y="546"/>
      <point x="335" y="546" type="curve" smooth="yes"/>
      <point x="186" y="546"/>
      <point x="67" y="477"/>
      <point x="67" y="265" type="curve" smooth="yes"/>
      <point x="67" y="166"/>
      <point x="94" y="102"/>
      <point x="129" y="67" type="curve"/>
      <point x="111" y="41"/>
      <point x="92" y="11"/>
      <point x="81" y="-9" type="curve"/>
    </contour>
    <contour>
      <point x="357" y="41" type="curve" smooth="yes"/>
      <point x="292" y="41"/>
      <point x="250" y="73"/>
      <point x="224" y="102" type="curve"/>
      <point x="259" y="149"/>
      <point x="303" y="206"/>
      <point x="399" y="206" type="curve" smooth="yes"/>
      <point x="462" y="206"/>
      <point x="498" y="180"/>
      <point x="498" y="130" type="curve" smooth="yes"/>
      <point x="498" y="60"/>
      <point x="422" y="41"/>
    </contour>
  </outline>
</glyph>
<glyph name="uni0267" format="2">
  <advance width="732"/>
  <unicode hex="0267"/>
  <anchor x="367" y="-234" name="bottom"/>
  <anchor x="367" y="767" name="top"/>
  <outline>
    <contour>
      <point x="440" y="-234" type="curve" smooth="yes"/>
      <point x="565" y="-234"/>
      <point x="631" y="-153"/>
      <point x="631" y="-91" type="curve" smooth="yes"/>
      <point x="631" y="361" type="line" smooth="yes"/>
      <point x="631" y="496"/>
      <point x="568" y="546"/>
      <point x="439" y="546" type="curve" smooth="yes"/>
      <point x="313" y="546"/>
      <point x="263" y="493"/>
      <point x="241" y="445" type="curve"/>
      <point x="236" y="445" type="line"/>
      <point x="239" y="463"/>
      <point x="239" y="496"/>
      <point x="240" y="523" type="curve" smooth="yes"/>
      <point x="240" y="672" type="line" smooth="yes"/>
      <point x="240" y="721"/>
      <point x="283" y="722"/>
      <point x="310" y="722" type="curve" smooth="yes"/>
      <point x="336" y="722"/>
      <point x="360" y="723"/>
      <point x="389" y="667" type="curve"/>
      <point x="436" y="670"/>
      <point x="448" y="680"/>
      <point x="448" y="701" type="curve" smooth="yes"/>
      <point x="448" y="726"/>
      <point x="419" y="767"/>
      <point x="309" y="767" type="curve" smooth="yes"/>
      <point x="184" y="767"/>
      <point x="133" y="708"/>
      <point x="133" y="653" type="curve" smooth="yes"/>
      <point x="133" y="108" type="line" smooth="yes"/>
      <point x="133" y="43"/>
      <point x="117" y="38"/>
      <point x="53" y="38" type="curve" smooth="yes"/>
      <point x="22" y="38" type="line"/>
      <point x="22" y="0" type="line"/>
      <point x="344" y="0" type="line"/>
      <point x="344" y="38" type="line"/>
      <point x="319" y="38" type="line" smooth="yes"/>
      <point x="251" y="38"/>
      <point x="240" y="44"/>
      <point x="240" y="107" type="curve" smooth="yes"/>
      <point x="240" y="319" type="line" smooth="yes"/>
      <point x="240" y="421"/>
      <point x="300" y="488"/>
      <point x="401" y="488" type="curve" smooth="yes"/>
      <point x="486" y="488"/>
      <point x="524" y="442"/>
      <point x="524" y="337" type="curve" smooth="yes"/>
      <point x="524" y="-117" type="line" smooth="yes"/>
      <point x="524" y="-172"/>
      <point x="475" y="-187"/>
      <point x="441" y="-187" type="curve" smooth="yes"/>
      <point x="416" y="-187"/>
      <point x="390" y="-183"/>
      <point x="362" y="-130" type="curve"/>
      <point x="322" y="-133"/>
      <point x="305" y="-140"/>
      <point x="305" y="-165" type="curve" smooth="yes"/>
      <point x="305" y="-207"/>
      <point x="360" y="-234"/>
    </contour>
  </outline>
</glyph>
<glyph name="uni0272" format="2">
  <advance width="775"/>
  <unicode hex="0272"/>
  <anchor x="388" y="-234" name="bottom"/>
  <anchor x="388" y="536" name="top"/>
  <outline>
    <contour>
      <point x="58" y="-234" type="curve" smooth="yes"/>
      <point x="183" y="-234"/>
      <point x="252" y="-154"/>
      <point x="252" y="-91" type="curve" smooth="yes"/>
      <point x="252" y="319" type="line" smooth="yes"/>
      <point x="252" y="377"/>
      <point x="269" y="487"/>
      <point x="410" y="487" type="curve" smooth="yes"/>
      <point x="508" y="487"/>
      <point x="540" y="428"/>
      <point x="540" y="343" type="curve" smooth="yes"/>
      <point x="540" y="0" type="line"/>
      <point x="746" y="0" type="line"/>
      <point x="746" y="38" type="line"/>
      <point x="721" y="38" type="line" smooth="yes"/>
      <point x="657" y="38"/>
      <point x="647" y="43"/>
      <point x="647" y="109" type="curve" smooth="yes"/>
      <point x="647" y="356" type="line" smooth="yes"/>
      <point x="647" y="485"/>
      <point x="582" y="546"/>
      <point x="451" y="546" type="curve" smooth="yes"/>
      <point x="351" y="546"/>
      <point x="299" y="519"/>
      <point x="255" y="454" type="curve"/>
      <point x="249" y="454" type="line"/>
      <point x="242" y="536" type="line"/>
      <point x="42" y="536" type="line"/>
      <point x="42" y="498" type="line"/>
      <point x="73" y="498" type="line" smooth="yes"/>
      <point x="130" y="498"/>
      <point x="144" y="491"/>
      <point x="144" y="429" type="curve" smooth="yes"/>
      <point x="144" y="-117" type="line" smooth="yes"/>
      <point x="144" y="-172"/>
      <point x="93" y="-187"/>
      <point x="58" y="-187" type="curve" smooth="yes"/>
      <point x="34" y="-187"/>
      <point x="8" y="-183"/>
      <point x="-20" y="-130" type="curve"/>
      <point x="-58" y="-133"/>
      <point x="-78" y="-140"/>
      <point x="-78" y="-166" type="curve" smooth="yes"/>
      <point x="-78" y="-209"/>
      <point x="-21" y="-234"/>
    </contour>
  </outline>
</glyph>
<glyph name="uni027B" format="2">
  <advance width="556"/>
  <unicode hex="027B"/>
  <anchor x="279" y="-240" name="bottom"/>
  <anchor x="279" y="536" name="top"/>
  <outline>
    <contour>
      <point x="447" y="-240" type="curve" smooth="yes"/>
      <point x="507" y="-240"/>
      <point x="540" y="-235"/>
      <point x="570" y="-228" type="curve"/>
      <point x="570" y="-186" type="line"/>
      <point x="544" y="-192"/>
      <point x="520" y="-196"/>
      <point x="490" y="-196" type="curve" smooth="yes"/>
      <point x="440" y="-196"/>
      <point x="411" y="-171"/>
      <point x="411" y="-82" type="curve" smooth="yes"/>
      <point x="411" y="426" type="line" smooth="yes"/>
      <point x="411" y="491"/>
      <point x="424" y="498"/>
      <point x="470" y="498" type="curve" smooth="yes"/>
      <point x="513" y="498" type="line"/>
      <point x="513" y="536" type="line"/>
      <point x="185" y="536" type="line"/>
      <point x="185" y="498" type="line"/>
      <point x="243" y="498" type="line" smooth="yes"/>
      <point x="293" y="498"/>
      <point x="304" y="492"/>
      <point x="304" y="428" type="curve" smooth="yes"/>
      <point x="304" y="248" type="line" smooth="yes"/>
      <point x="304" y="136"/>
      <point x="245" y="56"/>
      <point x="172" y="56" type="curve" smooth="yes"/>
      <point x="128" y="56"/>
      <point x="102" y="68"/>
      <point x="102" y="138" type="curve"/>
      <point x="51" y="138"/>
      <point x="17" y="118"/>
      <point x="17" y="77" type="curve" smooth="yes"/>
      <point x="17" y="28"/>
      <point x="60" y="-10"/>
      <point x="131" y="-10" type="curve" smooth="yes"/>
      <point x="219" y="-10"/>
      <point x="276" y="37"/>
      <point x="309" y="110" type="curve"/>
      <point x="310" y="110" type="line"/>
      <point x="305" y="71"/>
      <point x="304" y="51"/>
      <point x="304" y="11" type="curve" smooth="yes"/>
      <point x="304" y="-90" type="line" smooth="yes"/>
      <point x="304" y="-195"/>
      <point x="342" y="-240"/>
    </contour>
  </outline>
</glyph>
<glyph name="rlongleg" format="2">
  <advance width="556"/>
  <unicode hex="027C"/>
  <anchor x="279" y="-231" name="bottom"/>
  <anchor x="279" y="536" name="top"/>
  <outline>
    <contour>
      <point x="42" y="-231" type="line"/>
      <point x="370" y="-231" type="line"/>
      <point x="370" y="-193" type="line"/>
      <point x="317" y="-193" type="line" smooth="yes"/>
      <point x="267" y="-193"/>
      <point x="250" y="-188"/>
      <point x="250" y="-118" type="curve" smooth="yes"/>
      <point x="250" y="288" type="line" smooth="yes"/>
      <point x="250" y="400"/>
      <point x="310" y="480"/>
      <point x="383" y="480" type="curve" smooth="yes"/>
      <point x="427" y="480"/>
      <point x="456" y="468"/>
      <point x="456" y="398" type="curve"/>
      <point x="505" y="398"/>
      <point x="538" y="418"/>
      <point x="538" y="459" type="curve" smooth="yes"/>
      <point x="538" y="508"/>
      <point x="495" y="546"/>
      <point x="424" y="546" type="curve" smooth="yes"/>
      <point x="336" y="546"/>
      <point x="283" y="500"/>
      <point x="250" y="427" type="curve"/>
      <point x="246" y="427" type="line"/>
      <point x="235" y="536" type="line"/>
      <point x="42" y="536" type="line"/>
      <point x="42" y="498" type="line"/>
      <point x="70" y="498" type="line" smooth="yes"/>
      <point x="133" y="498"/>
      <point x="144" y="491"/>
      <point x="144" y="427" type="curve" smooth="yes"/>
      <point x="144" y="-116" type="line" smooth="yes"/>
      <point x="144" y="-187"/>
      <point x="125" y="-193"/>
      <point x="75" y="-193" type="curve" smooth="yes"/>
      <point x="42" y="-193" type="line"/>
    </contour>
  </outline>
</glyph>
<glyph name="uni0283" format="2">
  <advance width="497"/>
  <unicode hex="0283"/>
  <anchor x="249" y="-236" name="bottom"/>
  <anchor x="249" y="765" name="top"/>
  <outline>
    <contour>
      <point x="103" y="-236" type="curve" smooth="yes"/>
      <point x="225" y="-236"/>
      <point x="305" y="-202"/>
      <point x="305" y="-52" type="curve" smooth="yes"/>
      <point x="305" y="571" type="line" smooth="yes"/>
      <point x="305" y="657"/>
      <point x="315" y="716"/>
      <point x="391" y="716" type="curve" smooth="yes"/>
      <point x="443" y="716"/>
      <point x="467" y="689"/>
      <point x="467" y="603" type="curve"/>
      <point x="519" y="603"/>
      <point x="550" y="625"/>
      <point x="550" y="661" type="curve" smooth="yes"/>
      <point x="550" y="706"/>
      <point x="519" y="765"/>
      <point x="398" y="765" type="curve" smooth="yes"/>
      <point x="280" y="765"/>
      <point x="198" y="730"/>
      <point x="198" y="574" type="curve" smooth="yes"/>
      <point x="198" y="-51" type="line" smooth="yes"/>
      <point x="198" y="-133"/>
      <point x="185" y="-186"/>
      <point x="109" y="-186" type="curve" smooth="yes"/>
      <point x="59" y="-186"/>
      <point x="34" y="-158"/>
      <point x="34" y="-76" type="curve"/>
      <point x="-19" y="-76"/>
      <point x="-49" y="-98"/>
      <point x="-49" y="-133" type="curve" smooth="yes"/>
      <point x="-49" y="-178"/>
      <point x="-17" y="-236"/>
    </contour>
  </outline>
</glyph>
<glyph name="caron" format="2">
  <advance width="422"/>
  <unicode hex="02C7"/>
  <outline>
    <contour>
      <point x="164" y="606" type="curve"/>
      <point x="258" y="606" type="line"/>
      <point x="277" y="651"/>
      <point x="344" y="715"/>
      <point x="382" y="753" type="curve"/>
      <point x="382" y="766" type="line"/>
      <point x="335" y="766" type="line"/>
      <point x="287" y="723"/>
      <point x="247" y="683"/>
      <point x="211" y="645" type="curve"/>
      <point x="175" y="683"/>
      <point x="135" y="723"/>
      <point x="87" y="766" type="curve"/>
      <point x="40" y="766" type="line"/>
      <point x="40" y="753" type="line"/>
      <point x="78" y="715"/>
      <point x="144" y="651"/>
    </contour>
  </outline>
</glyph>
<glyph name="ring" format="2">
  <advance width="404"/>
  <unicode hex="02DA"/>
  <outline>
    <contour>
      <point x="202" y="596" type="curve" smooth="yes"/>
      <point x="283" y="596"/>
      <point x="347" y="634"/>
      <point x="347" y="705" type="curve" smooth="yes"/>
      <point x="347" y="776"/>
      <point x="283" y="814"/>
      <point x="202" y="814" type="curve" smooth="yes"/>
      <point x="121" y="814"/>
      <point x="56" y="776"/>
      <point x="56" y="705" type="curve" smooth="yes"/>
      <point x="56" y="634"/>
      <point x="121" y="596"/>
    </contour>
    <contour>
      <point x="201" y="631" type="curve" smooth="yes"/>
      <point x="142" y="631"/>
      <point x="98" y="659"/>
      <point x="98" y="705" type="curve" smooth="yes"/>
      <point x="98" y="750"/>
      <point x="142" y="778"/>
      <point x="201" y="778" type="curve" smooth="yes"/>
      <point x="262" y="778"/>
      <point x="306" y="750"/>
      <point x="306" y="705" type="curve" smooth="yes"/>
      <point x="306" y="659"/>
      <point x="262" y="631"/>
    </contour>
  </outline>
</glyph>
<glyph name="uni02F2" format="2">
  <advance width="338"/>
  <unicode hex="02F2"/>
  <outline>
    <contour>
      <point x="40" y="-228" type="line"/>
      <point x="52" y="-228" type="line"/>
      <point x="131" y="-193"/>
      <point x="215" y="-152"/>
      <point x="298" y="-124" type="curve"/>
      <point x="298" y="-99" type="line"/>
      <point x="216" y="-71"/>
      <point x="126" y="-29"/>
      <point x="52" y="6" type="curve"/>
      <point x="40" y="6" type="line"/>
      <point x="40" y="-22" type="line"/>
      <point x="80" y="-41"/>
      <point x="193" y="-92"/>
      <point x="239" y="-111" type="curve"/>
      <point x="193" y="-128"/>
      <point x="80" y="-181"/>
      <point x="40" y="-200" type="curve"/>
    </contour>
  </outline>
</glyph>
<glyph name="candraBinducomb" format="2">
  <unicode hex="0310"/>
  <anchor x="0" y="536" name="_top"/>
  <anchor x="0" y="824" name="top"/>
  <outline>
    <contour>
      <point x="-2" y="592" type="curve" smooth="yes"/>
      <point x="111" y="592"/>
      <point x="157" y="668"/>
      <point x="160" y="732" type="curve"/>
      <point x="112" y="732" type="line"/>
      <point x="100" y="667"/>
      <point x="58" y="638"/>
      <point x="-2" y="638" type="curve" smooth="yes"/>
      <point x="-60" y="638"/>
      <point x="-100" y="666"/>
      <point x="-113" y="732" type="curve"/>
      <point x="-160" y="732" type="line"/>
      <point x="-157" y="669"/>
      <point x="-114" y="592"/>
    </contour>
    <contour>
      <point x="-1" y="711" type="curve" smooth="yes"/>
      <point x="31" y="711"/>
      <point x="53" y="727"/>
      <point x="53" y="768" type="curve" smooth="yes"/>
      <point x="53" y="809"/>
      <point x="31" y="824"/>
      <point x="-1" y="824" type="curve" smooth="yes"/>
      <point x="-33" y="824"/>
      <point x="-55" y="809"/>
      <point x="-55" y="768" type="curve" smooth="yes"/>
      <point x="-55" y="727"/>
      <point x="-33" y="711"/>
    </contour>
  </outline>
</glyph>
<glyph name="leftangleabovecomb" format="2">
  <unicode hex="031A"/>
  <anchor x="112" y="605" name="_topright"/>
  <outline>
    <contour>
      <point x="112" y="605" type="line"/>
      <point x="164" y="605" type="line"/>
      <point x="164" y="759" type="line"/>
      <point x="-164" y="759" type="line"/>
      <point x="-164" y="705" type="line"/>
      <point x="112" y="705" type="line"/>
    </contour>
  </outline>
</glyph>
<glyph name="dotbelowcomb" format="2">
  <unicode hex="0323"/>
  <anchor x="-363" y="0" name="_bottom"/>
  <anchor x="-363" y="-169" name="bottom"/>
  <outline>
    <contour>
      <point x="-363" y="-169" type="curve" smooth="yes"/>
      <point x="-328" y="-169"/>
      <point x="-302" y="-151"/>
      <point x="-302" y="-109" type="curve" smooth="yes"/>
      <point x="-302" y="-67"/>
      <point x="-328" y="-50"/>
      <point x="-363" y="-50" type="curve" smooth="yes"/>
      <point x="-397" y="-50"/>
      <point x="-424" y="-67"/>
      <point x="-424" y="-109" type="curve" smooth="yes"/>
      <point x="-424" y="-151"/>
      <point x="-397" y="-169"/>
    </contour>
  </outline>
</glyph>
<glyph name="breveinvertedbelowcomb" format="2">
  <unicode hex="032F"/>
  <anchor x="-1" y="0" name="_bottom"/>
  <anchor x="-1" y="-205" name="bottom"/>
  <outline>
    <contour>
      <point x="-166" y="-205" type="curve"/>
      <point x="-119" y="-205" type="line"/>
      <point x="-107" y="-158"/>
      <point x="-59" y="-133"/>
      <point x="-4" y="-133" type="curve" smooth="yes"/>
      <point x="54" y="-133"/>
      <point x="106" y="-160"/>
      <point x="117" y="-205" type="curve"/>
      <point x="163" y="-205" type="line"/>
      <point x="160" y="-141"/>
      <point x="96" y="-67"/>
      <point x="-4" y="-67" type="curve" smooth="yes"/>
      <point x="-100" y="-67"/>
      <point x="-164" y="-142"/>
    </contour>
  </outline>
</glyph>
<glyph name="nottildeabovecomb" format="2">
  <unicode hex="034A"/>
  <anchor x="0" y="536" name="_top"/>
  <anchor x="0" y="771" name="top"/>
  <outline>
    <contour>
      <point x="-37" y="574" type="line"/>
      <point x="5" y="637" type="line"/>
      <point x="35" y="623"/>
      <point x="66" y="611"/>
      <point x="99" y="611" type="curve" smooth="yes"/>
      <point x="170" y="611"/>
      <point x="206" y="659"/>
      <point x="210" y="725" type="curve"/>
      <point x="174" y="725" type="line"/>
      <point x="169" y="700"/>
      <point x="151" y="674"/>
      <point x="112" y="674" type="curve" smooth="yes"/>
      <point x="88" y="674"/>
      <point x="64" y="685"/>
      <point x="40" y="697" type="curve"/>
      <point x="77" y="750" type="line"/>
      <point x="34" y="771" type="line"/>
      <point x="-2" y="715" type="line"/>
      <point x="-30" y="727"/>
      <point x="-59" y="736"/>
      <point x="-93" y="736" type="curve" smooth="yes"/>
      <point x="-166" y="736"/>
      <point x="-206" y="678"/>
      <point x="-211" y="616" type="curve"/>
      <point x="-174" y="616" type="line"/>
      <point x="-169" y="641"/>
      <point x="-152" y="673"/>
      <point x="-109" y="673" type="curve" smooth="yes"/>
      <point x="-86" y="673"/>
      <point x="-62" y="665"/>
      <point x="-38" y="654" type="curve"/>
      <point x="-77" y="596" type="line"/>
    </contour>
  </outline>
</glyph>
<glyph name="doublemacroncomb" format="2">
  <unicode hex="035E"/>
  <anchor x="1" y="536" name="_top"/>
  <anchor x="1" y="699" name="top"/>
  <outline>
    <contour>
      <point x="-357" y="663" type="line"/>
      <point x="358" y="663" type="line"/>
      <point x="358" y="699" type="line"/>
      <point x="-357" y="699" type="line"/>
    </contour>
  </outline>
</glyph>
<glyph name="archaicsampi" format="2">
  <advance width="647"/>
  <unicode hex="0373"/>
  <anchor x="324" y="-240" name="bottom"/>
  <anchor x="324" y="536" name="top"/>
  <outline>
    <contour>
      <point x="290" y="-240" type="curve"/>
      <point x="401" y="-240" type="line"/>
      <point x="393" y="-228"/>
      <point x="377" y="-144"/>
      <point x="376" y="-40" type="curve" smooth="yes"/>
      <point x="376" y="486" type="line"/>
      <point x="519" y="486" type="line" smooth="yes"/>
      <point x="550" y="486"/>
      <point x="565" y="462"/>
      <point x="566" y="445" type="curve" smooth="yes"/>
      <point x="569" y="391" type="line"/>
      <point x="617" y="391" type="line"/>
      <point x="617" y="536" type="line"/>
      <point x="174" y="536" type="line" smooth="yes"/>
      <point x="53" y="536"/>
      <point x="17" y="485"/>
      <point x="17" y="411" type="curve" smooth="yes"/>
      <point x="17" y="394" type="line"/>
      <point x="69" y="394" type="line"/>
      <point x="69" y="449"/>
      <point x="82" y="486"/>
      <point x="188" y="486" type="curve" smooth="yes"/>
      <point x="270" y="486" type="line"/>
      <point x="270" y="-22" type="line" smooth="yes"/>
      <point x="271" y="-142"/>
      <point x="281" y="-203"/>
    </contour>
  </outline>
</glyph>
<glyph name="Gamma" format="2">
  <advance width="705"/>
  <unicode hex="0393"/>
  <anchor x="353" y="0" name="bottom"/>
  <anchor x="353" y="714" name="top"/>
  <outline>
    <contour>
      <point x="48" y="0" type="line"/>
      <point x="424" y="0" type="line"/>
      <point x="424" y="38" type="line"/>
      <point x="332" y="38" type="line" smooth="yes"/>
      <point x="285" y="38"/>
      <point x="276" y="48"/>
      <point x="276" y="112" type="curve"/>
      <point x="276" y="670" type="line"/>
      <point x="504" y="670" type="line" smooth="yes"/>
      <point x="558" y="670"/>
      <point x="581" y="663"/>
      <point x="590" y="596" type="curve" smooth="yes"/>
      <point x="598" y="520" type="line"/>
      <point x="646" y="520" type="line"/>
      <point x="637" y="714" type="line"/>
      <point x="48" y="714" type="line"/>
      <point x="48" y="676" type="line"/>
      <point x="110" y="676" type="line" smooth="yes"/>
      <point x="153" y="676"/>
      <point x="166" y="666"/>
      <point x="166" y="599" type="curve" smooth="yes"/>
      <point x="166" y="114" type="line" smooth="yes"/>
      <point x="166" y="48"/>
      <point x="155" y="38"/>
      <point x="106" y="38" type="curve" smooth="yes"/>
      <point x="48" y="38" type="line"/>
    </contour>
  </outline>
</glyph>
<glyph name="Xi" format="2">
  <advance width="752"/>
  <unicode hex="039E"/>
  <anchor x="376" y="0" name="bottom"/>
  <anchor x="376" y="714" name="top"/>
  <outline>
    <contour>
      <point x="54" y="0" type="line"/>
      <point x="699" y="0" type="line"/>
      <point x="707" y="198" type="line"/>
      <point x="661" y="198" type="line"/>
      <point x="655" y="138" type="line" smooth="yes"/>
      <point x="652" y="111"/>
      <point x="650" y="77"/>
      <point x="578" y="77" type="curve" smooth="yes"/>
      <point x="162" y="77" type="line" smooth="yes"/>
      <point x="107" y="77"/>
      <point x="99" y="112"/>
      <point x="96" y="137" type="curve" smooth="yes"/>
      <point x="90" y="198" type="line"/>
      <point x="46" y="198" type="line"/>
    </contour>
    <contour>
      <point x="196" y="277" type="line"/>
      <point x="235" y="277" type="line"/>
      <point x="237" y="292" type="line" smooth="yes"/>
      <point x="241" y="316"/>
      <point x="243" y="338"/>
      <point x="262" y="338" type="curve" smooth="yes"/>
      <point x="492" y="338" type="line" smooth="yes"/>
      <point x="508" y="338"/>
      <point x="514" y="316"/>
      <point x="517" y="292" type="curve" smooth="yes"/>
      <point x="520" y="277" type="line"/>
      <point x="559" y="277" type="line"/>
      <point x="559" y="440" type="line"/>
      <point x="520" y="440" type="line"/>
      <point x="517" y="425" type="line" smooth="yes"/>
      <point x="514" y="401"/>
      <point x="508" y="379"/>
      <point x="492" y="379" type="curve" smooth="yes"/>
      <point x="262" y="379" type="line" smooth="yes"/>
      <point x="243" y="379"/>
      <point x="241" y="400"/>
      <point x="237" y="425" type="curve" smooth="yes"/>
      <point x="235" y="440" type="line"/>
      <point x="196" y="440" type="line"/>
    </contour>
    <contour>
      <point x="87" y="513" type="line"/>
      <point x="128" y="513" type="line"/>
      <point x="134" y="566" type="line" smooth="yes"/>
      <point x="139" y="608"/>
      <point x="145" y="639"/>
      <point x="220" y="639" type="curve" smooth="yes"/>
      <point x="526" y="639" type="line" smooth="yes"/>
      <point x="601" y="639"/>
      <point x="610" y="607"/>
      <point x="615" y="566" type="curve" smooth="yes"/>
      <point x="621" y="513" type="line"/>
      <point x="665" y="513" type="line"/>
      <point x="657" y="714" type="line"/>
      <point x="94" y="714" type="line"/>
    </contour>
  </outline>
</glyph>
<glyph name="zeta" format="2">
  <advance width="545"/>
  <unicode hex="03B6"/>
  <anchor x="273" y="-201" name="bottom"/>
  <anchor x="273" y="780" name="top"/>
  <outline>
    <contour>
      <point x="340" y="-201" type="line"/>
      <point x="437" y="-200"/>
      <point x="521" y="-157"/>
      <point x="521" y="-51" type="curve" smooth="yes"/>
      <point x="521" y="37"/>
      <point x="458" y="52"/>
      <point x="330" y="80" type="curve" smooth="yes"/>
      <point x="189" y="110"/>
      <point x="167" y="175"/>
      <point x="167" y="253" type="curve" smooth="yes"/>
      <point x="167" y="378"/>
      <point x="239" y="531"/>
      <point x="367" y="643" type="curve"/>
      <point x="381" y="642"/>
      <point x="409" y="639"/>
      <point x="433" y="639" type="curve" smooth="yes"/>
      <point x="495" y="638"/>
      <point x="525" y="661"/>
      <point x="525" y="697" type="curve" smooth="yes"/>
      <point x="525" y="725"/>
      <point x="499" y="738"/>
      <point x="472" y="738" type="curve" smooth="yes"/>
      <point x="434" y="738"/>
      <point x="385" y="717"/>
      <point x="349" y="697" type="curve"/>
      <point x="268" y="704"/>
      <point x="190" y="732"/>
      <point x="121" y="780" type="curve"/>
      <point x="89" y="743" type="line"/>
      <point x="141" y="709"/>
      <point x="235" y="671"/>
      <point x="315" y="658" type="curve"/>
      <point x="161" y="545"/>
      <point x="61" y="385"/>
      <point x="61" y="214" type="curve" smooth="yes"/>
      <point x="61" y="77"/>
      <point x="136" y="30"/>
      <point x="281" y="5" type="curve" smooth="yes"/>
      <point x="408" y="-17"/>
      <point x="436" y="-34"/>
      <point x="436" y="-76" type="curve" smooth="yes"/>
      <point x="436" y="-137"/>
      <point x="385" y="-157"/>
      <point x="340" y="-165" type="curve"/>
    </contour>
  </outline>
</glyph>
<glyph name="theta" format="2">
  <advance width="693"/>
  <unicode hex="03B8"/>
  <anchor x="347" y="0" name="bottom"/>
  <anchor x="347" y="764" name="top"/>
  <anchor x="673" y="764" name="topright"/>
  <outline>
    <contour>
      <point x="345" y="-10" type="curve" smooth="yes"/>
      <point x="541" y="-10"/>
      <point x="623" y="138"/>
      <point x="623" y="378" type="curve" smooth="yes"/>
      <point x="623" y="618"/>
      <point x="542" y="764"/>
      <point x="346" y="764" type="curve" smooth="yes"/>
      <point x="146" y="764"/>
      <point x="68" y="619"/>
      <point x="68" y="379" type="curve" smooth="yes"/>
      <point x="68" y="139"/>
      <point x="147" y="-10"/>
    </contour>
    <contour>
      <point x="345" y="36" type="curve" smooth="yes"/>
      <point x="219" y="36"/>
      <point x="176" y="160"/>
      <point x="178" y="359" type="curve"/>
      <point x="513" y="359" type="line"/>
      <point x="516" y="159"/>
      <point x="473" y="36"/>
    </contour>
    <contour>
      <point x="178" y="408" type="line"/>
      <point x="178" y="608"/>
      <point x="218" y="717"/>
      <point x="345" y="717" type="curve" smooth="yes"/>
      <point x="475" y="717"/>
      <point x="512" y="608"/>
      <point x="512" y="408" type="curve"/>
    </contour>
  </outline>
</glyph>
<glyph name="iota" format="2">
  <advance width="401"/>
  <unicode hex="03B9"/>
  <anchor x="200" y="0" name="bottom"/>
  <anchor x="200" y="536" name="top"/>
  <outline>
    <contour>
      <point x="272" y="-10" type="curve" smooth="yes"/>
      <point x="318" y="-10"/>
      <point x="364" y="0"/>
      <point x="388" y="11" type="curve"/>
      <point x="388" y="59" type="line"/>
      <point x="365" y="54"/>
      <point x="344" y="50"/>
      <point x="308" y="50" type="curve" smooth="yes"/>
      <point x="245" y="50"/>
      <point x="218" y="79"/>
      <point x="218" y="159" type="curve" smooth="yes"/>
      <point x="218" y="536" type="line"/>
      <point x="112" y="536" type="line"/>
      <point x="112" y="147" type="line" smooth="yes"/>
      <point x="112" y="30"/>
      <point x="159" y="-10"/>
    </contour>
  </outline>
</glyph>
<glyph name="phi" format="2">
  <advance width="845"/>
  <unicode hex="03C6"/>
  <anchor x="423" y="-240" name="bottom"/>
  <anchor x="423" y="552" name="top"/>
  <anchor x="825" y="536" name="topright"/>
  <outline>
    <contour>
      <point x="392" y="-240" type="line"/>
      <point x="440" y="-240" type="line"/>
      <point x="440" y="-10" type="line"/>
      <point x="655" y="-1"/>
      <point x="764" y="107"/>
      <point x="764" y="281" type="curve" smooth="yes"/>
      <point x="764" y="481"/>
      <point x="680" y="546"/>
      <point x="550" y="546" type="curve" smooth="yes"/>
      <point x="446" y="546"/>
      <point x="392" y="509"/>
      <point x="392" y="401" type="curve" smooth="yes"/>
      <point x="392" y="35" type="line"/>
      <point x="265" y="38"/>
      <point x="178" y="99"/>
      <point x="178" y="267" type="curve" smooth="yes"/>
      <point x="178" y="376"/>
      <point x="211" y="461"/>
      <point x="308" y="501" type="curve"/>
      <point x="270" y="544" type="line"/>
      <point x="149" y="511"/>
      <point x="71" y="410"/>
      <point x="71" y="267" type="curve" smooth="yes"/>
      <point x="71" y="90"/>
      <point x="196" y="-2"/>
      <point x="392" y="-10" type="curve"/>
    </contour>
    <contour>
      <point x="440" y="35" type="curve"/>
      <point x="440" y="407" type="line" smooth="yes"/>
      <point x="440" y="464"/>
      <point x="469" y="498"/>
      <point x="526" y="498" type="curve" smooth="yes"/>
      <point x="607" y="498"/>
      <point x="656" y="440"/>
      <point x="656" y="274" type="curve" smooth="yes"/>
      <point x="656" y="133"/>
      <point x="593" y="43"/>
    </contour>
  </outline>
</glyph>
<glyph name="uni03D8" format="2">
  <advance width="887"/>
  <unicode hex="03D8"/>
  <anchor x="444" y="0" name="bottom"/>
  <anchor x="444" y="714" name="top"/>
  <outline>
    <contour>
      <point x="273" y="0" type="line"/>
      <point x="618" y="0" type="line"/>
      <point x="618" y="38" type="line"/>
      <point x="536" y="38" type="line" smooth="yes"/>
      <point x="503" y="38"/>
      <point x="499" y="52"/>
      <point x="499" y="113" type="curve" smooth="yes"/>
      <point x="499" y="169" type="line"/>
      <point x="714" y="185"/>
      <point x="818" y="305"/>
      <point x="818" y="445" type="curve" smooth="yes"/>
      <point x="818" y="607"/>
      <point x="706" y="725"/>
      <point x="447" y="725" type="curve" smooth="yes"/>
      <point x="203" y="725"/>
      <point x="68" y="604"/>
      <point x="68" y="446" type="curve" smooth="yes"/>
      <point x="68" y="302"/>
      <point x="181" y="185"/>
      <point x="388" y="169" type="curve"/>
      <point x="388" y="113" type="line" smooth="yes"/>
      <point x="388" y="52"/>
      <point x="384" y="38"/>
      <point x="351" y="38" type="curve" smooth="yes"/>
      <point x="273" y="38" type="line"/>
    </contour>
    <contour>
      <point x="445" y="212" type="curve" smooth="yes"/>
      <point x="283" y="212"/>
      <point x="182" y="307"/>
      <point x="182" y="447" type="curve" smooth="yes"/>
      <point x="182" y="588"/>
      <point x="279" y="679"/>
      <point x="448" y="679" type="curve" smooth="yes"/>
      <point x="629" y="679"/>
      <point x="704" y="587"/>
      <point x="704" y="446" type="curve" smooth="yes"/>
      <point x="704" y="307"/>
      <point x="626" y="212"/>
    </contour>
  </outline>
</glyph>
<glyph name="uni03DC" format="2">
  <advance width="705"/>
  <unicode hex="03DC"/>
  <anchor x="353" y="0" name="bottom"/>
  <anchor x="353" y="714" name="top"/>
  <outline>
    <contour>
      <point x="48" y="0" type="line"/>
      <point x="424" y="0" type="line"/>
      <point x="424" y="38" type="line"/>
      <point x="335" y="38" type="line" smooth="yes"/>
      <point x="284" y="38"/>
      <point x="275" y="53"/>
      <point x="275" y="109" type="curve" smooth="yes"/>
      <point x="275" y="336" type="line"/>
      <point x="457" y="336" type="line" smooth="yes"/>
      <point x="504" y="336"/>
      <point x="513" y="331"/>
      <point x="522" y="239" type="curve"/>
      <point x="570" y="239" type="line"/>
      <point x="566" y="379" type="line"/>
      <point x="275" y="379" type="line"/>
      <point x="275" y="670" type="line"/>
      <point x="535" y="670" type="line" smooth="yes"/>
      <point x="582" y="670"/>
      <point x="594" y="652"/>
      <point x="600" y="584" type="curve" smooth="yes"/>
      <point x="602" y="538" type="line"/>
      <point x="653" y="538" type="line"/>
      <point x="648" y="714" type="line"/>
      <point x="48" y="714" type="line"/>
      <point x="48" y="676" type="line"/>
      <point x="110" y="676" type="line" smooth="yes"/>
      <point x="156" y="676"/>
      <point x="166" y="663"/>
      <point x="166" y="603" type="curve" smooth="yes"/>
      <point x="166" y="109" type="line" smooth="yes"/>
      <point x="166" y="51"/>
      <point x="156" y="38"/>
      <point x="107" y="38" type="curve" smooth="yes"/>
      <point x="48" y="38" type="line"/>
    </contour>
  </outline>
</glyph>
<glyph name="uni03E0" format="2">
  <advance width="694"/>
  <unicode hex="03E0"/>
  <anchor x="347" y="0" name="bottom"/>
  <anchor x="347" y="714" name="top"/>
  <outline>
    <contour>
      <point x="252" y="-10" type="line"/>
      <point x="469" y="2"/>
      <point x="626" y="124"/>
      <point x="626" y="359" type="curve" smooth="yes"/>
      <point x="626" y="632"/>
      <point x="486" y="724"/>
      <point x="300" y="724" type="curve" smooth="yes"/>
      <point x="100" y="724"/>
      <point x="42" y="648"/>
      <point x="42" y="607" type="curve" smooth="yes"/>
      <point x="42" y="569"/>
      <point x="65" y="556"/>
      <point x="119" y="556" type="curve"/>
      <point x="119" y="637"/>
      <point x="181" y="680"/>
      <point x="277" y="680" type="curve" smooth="yes"/>
      <point x="359" y="680"/>
      <point x="418" y="646"/>
      <point x="455" y="587" type="curve"/>
      <point x="148" y="466" type="line"/>
      <point x="169" y="422" type="line"/>
      <point x="472" y="543" type="line"/>
      <point x="488" y="514"/>
      <point x="501" y="485"/>
      <point x="508" y="449" type="curve"/>
      <point x="215" y="330" type="line"/>
      <point x="236" y="287" type="line"/>
      <point x="511" y="399" type="line"/>
      <point x="518" y="370"/>
      <point x="521" y="341"/>
      <point x="521" y="308" type="curve" smooth="yes"/>
      <point x="521" y="85"/>
      <point x="367" y="56"/>
      <point x="252" y="45" type="curve"/>
    </contour>
  </outline>
</glyph>
<glyph name="uni03FB" format="2">
  <advance width="898"/>
  <unicode hex="03FB"/>
  <anchor x="450" y="-240" name="bottom"/>
  <anchor x="450" y="536" name="top"/>
  <outline>
    <contour>
      <point x="190" y="-240" type="curve" smooth="yes"/>
      <point x="234" y="-240"/>
      <point x="255" y="-224"/>
      <point x="257" y="-184" type="curve"/>
      <point x="202" y="-185"/>
      <point x="175" y="-170"/>
      <point x="175" y="-140" type="curve" smooth="yes"/>
      <point x="175" y="446" type="line"/>
      <point x="177" y="446" type="line"/>
      <point x="393" y="181" type="line"/>
      <point x="431" y="181" type="line"/>
      <point x="641" y="447" type="line"/>
      <point x="645" y="447" type="line"/>
      <point x="645" y="119" type="line" smooth="yes"/>
      <point x="645" y="43"/>
      <point x="672" y="-10"/>
      <point x="766" y="-10" type="curve" smooth="yes"/>
      <point x="810" y="-10"/>
      <point x="830" y="-5"/>
      <point x="864" y="2" type="curve"/>
      <point x="864" y="42" type="line"/>
      <point x="843" y="36"/>
      <point x="827" y="34"/>
      <point x="804" y="34" type="curve" smooth="yes"/>
      <point x="749" y="34"/>
      <point x="745" y="62"/>
      <point x="745" y="116" type="curve" smooth="yes"/>
      <point x="745" y="434" type="line" smooth="yes"/>
      <point x="745" y="487"/>
      <point x="751" y="498"/>
      <point x="800" y="498" type="curve" smooth="yes"/>
      <point x="844" y="498" type="line"/>
      <point x="844" y="536" type="line"/>
      <point x="647" y="536" type="line"/>
      <point x="443" y="277" type="line"/>
      <point x="241" y="536" type="line"/>
      <point x="11" y="536" type="line"/>
      <point x="11" y="498" type="line"/>
      <point x="76" y="498" type="line" smooth="yes"/>
      <point x="116" y="498"/>
      <point x="125" y="490"/>
      <point x="125" y="433" type="curve" smooth="yes"/>
      <point x="125" y="-11" type="line" smooth="yes"/>
      <point x="125" y="-32"/>
      <point x="120" y="-117"/>
      <point x="120" y="-175" type="curve" smooth="yes"/>
      <point x="120" y="-205"/>
      <point x="142" y="-240"/>
    </contour>
  </outline>
</glyph>
<glyph name="afii10018" format="2">
  <advance width="713"/>
  <unicode hex="0411"/>
  <anchor x="356" y="0" name="bottom"/>
  <anchor x="356" y="714" name="top"/>
  <outline>
    <contour>
      <point x="48" y="0" type="line"/>
      <point x="360" y="0" type="line" smooth="yes"/>
      <point x="569" y="0"/>
      <point x="682" y="63"/>
      <point x="682" y="200" type="curve" smooth="yes"/>
      <point x="682" y="334"/>
      <point x="595" y="397"/>
      <point x="407" y="397" type="curve" smooth="yes"/>
      <point x="275" y="397" type="line"/>
      <point x="275" y="670" type="line"/>
      <point x="489" y="670" type="line" smooth="yes"/>
      <point x="552" y="670"/>
      <point x="564" y="647"/>
      <point x="568" y="588" type="curve" smooth="yes"/>
      <point x="573" y="532" type="line"/>
      <point x="622" y="532" type="line"/>
      <point x="616" y="715" type="line"/>
      <point x="48" y="714" type="line"/>
      <point x="48" y="676" type="line"/>
      <point x="110" y="676" type="line" smooth="yes"/>
      <point x="155" y="676"/>
      <point x="166" y="664"/>
      <point x="166" y="599" type="curve" smooth="yes"/>
      <point x="166" y="117" type="line" smooth="yes"/>
      <point x="166" y="55"/>
      <point x="156" y="38"/>
      <point x="109" y="38" type="curve" smooth="yes"/>
      <point x="48" y="38" type="line"/>
    </contour>
    <contour>
      <point x="274" y="44" type="line"/>
      <point x="274" y="353" type="line"/>
      <point x="373" y="353" type="line" smooth="yes"/>
      <point x="500" y="353"/>
      <point x="566" y="316"/>
      <point x="566" y="200" type="curve" smooth="yes"/>
      <point x="566" y="89"/>
      <point x="496" y="44"/>
      <point x="357" y="44" type="curve" smooth="yes"/>
    </contour>
  </outline>
</glyph>
<glyph name="afii10021" format="2">
  <advance width="830"/>
  <unicode hex="0414"/>
  <anchor x="415" y="0" name="bottom"/>
  <anchor x="415" y="714" name="top"/>
  <outline>
    <contour>
      <point x="19" y="-210" type="line"/>
      <point x="68" y="-210" type="line"/>
      <point x="68" y="-55"/>
      <point x="79" y="0"/>
      <point x="110" y="0" type="curve" smooth="yes"/>
      <point x="705" y="0" type="line" smooth="yes"/>
      <point x="730" y="0"/>
      <point x="741" y="-68"/>
      <point x="741" y="-210" type="curve"/>
      <point x="791" y="-210" type="line"/>
      <point x="791" y="48" type="line"/>
      <point x="760" y="48" type="line" smooth="yes"/>
      <point x="685" y="48"/>
      <point x="660" y="57"/>
      <point x="660" y="117" type="curve" smooth="yes"/>
      <point x="660" y="591" type="line" smooth="yes"/>
      <point x="660" y="666"/>
      <point x="666" y="676"/>
      <point x="733" y="676" type="curve" smooth="yes"/>
      <point x="775" y="676" type="line"/>
      <point x="775" y="714" type="line"/>
      <point x="217" y="714" type="line"/>
      <point x="217" y="676" type="line"/>
      <point x="261" y="676" type="line" smooth="yes"/>
      <point x="317" y="676"/>
      <point x="324" y="662"/>
      <point x="324" y="613" type="curve" smooth="yes"/>
      <point x="324" y="486"/>
      <point x="174" y="138"/>
      <point x="92" y="44" type="curve"/>
      <point x="19" y="44" type="line"/>
    </contour>
    <contour>
      <point x="157" y="44" type="line"/>
      <point x="243" y="184"/>
      <point x="377" y="450"/>
      <point x="383" y="670" type="curve"/>
      <point x="550" y="670" type="line"/>
      <point x="550" y="44" type="line"/>
    </contour>
  </outline>
</glyph>
<glyph name="afii10040" format="2">
  <advance width="918"/>
  <unicode hex="0426"/>
  <anchor x="459" y="0" name="bottom"/>
  <anchor x="459" y="714" name="top"/>
  <outline>
    <contour>
      <point x="825" y="-210" type="curve"/>
      <point x="874" y="-210" type="line"/>
      <point x="874" y="51" type="line"/>
      <point x="790" y="51" type="line" smooth="yes"/>
      <point x="759" y="51"/>
      <point x="748" y="59"/>
      <point x="748" y="120" type="curve" smooth="yes"/>
      <point x="748" y="598" type="line" smooth="yes"/>
      <point x="748" y="665"/>
      <point x="758" y="676"/>
      <point x="810" y="676" type="curve" smooth="yes"/>
      <point x="863" y="676" type="line"/>
      <point x="863" y="714" type="line"/>
      <point x="535" y="714" type="line"/>
      <point x="535" y="676" type="line"/>
      <point x="581" y="676" type="line" smooth="yes"/>
      <point x="627" y="676"/>
      <point x="639" y="664"/>
      <point x="639" y="596" type="curve" smooth="yes"/>
      <point x="639" y="44" type="line"/>
      <point x="275" y="44" type="line"/>
      <point x="275" y="596" type="line" smooth="yes"/>
      <point x="275" y="664"/>
      <point x="284" y="676"/>
      <point x="335" y="676" type="curve" smooth="yes"/>
      <point x="377" y="676" type="line"/>
      <point x="377" y="714" type="line"/>
      <point x="49" y="714" type="line"/>
      <point x="49" y="676" type="line"/>
      <point x="111" y="676" type="line" smooth="yes"/>
      <point x="154" y="676"/>
      <point x="166" y="664"/>
      <point x="166" y="596" type="curve" smooth="yes"/>
      <point x="166" y="114" type="line" smooth="yes"/>
      <point x="166" y="49"/>
      <point x="154" y="38"/>
      <point x="111" y="38" type="curve" smooth="yes"/>
      <point x="49" y="38" type="line"/>
      <point x="49" y="0" type="line"/>
      <point x="799" y="0" type="line" smooth="yes"/>
      <point x="812" y="0"/>
      <point x="825" y="-68"/>
    </contour>
  </outline>
</glyph>
<glyph name="afii10046" format="2">
  <advance width="723"/>
  <unicode hex="042C"/>
  <anchor x="362" y="0" name="bottom"/>
  <anchor x="362" y="714" name="top"/>
  <outline>
    <contour>
      <point x="48" y="0" type="line"/>
      <point x="360" y="0" type="line" smooth="yes"/>
      <point x="568" y="0"/>
      <point x="681" y="62"/>
      <point x="681" y="199" type="curve" smooth="yes"/>
      <point x="681" y="334"/>
      <point x="595" y="397"/>
      <point x="406" y="397" type="curve" smooth="yes"/>
      <point x="275" y="397" type="line"/>
      <point x="275" y="601" type="line" smooth="yes"/>
      <point x="275" y="661"/>
      <point x="283" y="676"/>
      <point x="333" y="676" type="curve" smooth="yes"/>
      <point x="387" y="676" type="line"/>
      <point x="387" y="714" type="line"/>
      <point x="48" y="714" type="line"/>
      <point x="48" y="676" type="line"/>
      <point x="115" y="676" type="line" smooth="yes"/>
      <point x="153" y="676"/>
      <point x="166" y="664"/>
      <point x="166" y="599" type="curve" smooth="yes"/>
      <point x="166" y="117" type="line" smooth="yes"/>
      <point x="166" y="55"/>
      <point x="157" y="38"/>
      <point x="106" y="38" type="curve" smooth="yes"/>
      <point x="48" y="38" type="line"/>
    </contour>
    <contour>
      <point x="275" y="44" type="line"/>
      <point x="275" y="353" type="line"/>
      <point x="372" y="353" type="line" smooth="yes"/>
      <point x="500" y="353"/>
      <point x="566" y="316"/>
      <point x="566" y="199" type="curve" smooth="yes"/>
      <point x="566" y="88"/>
      <point x="495" y="44"/>
      <point x="356" y="44" type="curve" smooth="yes"/>
    </contour>
  </outline>
</glyph>
<glyph name="afii10047" format="2">
  <advance width="780"/>
  <unicode hex="042D"/>
  <anchor x="391" y="0" name="bottom"/>
  <anchor x="391" y="714" name="top"/>
  <outline>
    <contour>
      <point x="322" y="-10" type="curve" smooth="yes"/>
      <point x="555" y="-10"/>
      <point x="711" y="100"/>
      <point x="711" y="371" type="curve" smooth="yes"/>
      <point x="711" y="563"/>
      <point x="620" y="725"/>
      <point x="354" y="725" type="curve" smooth="yes"/>
      <point x="182" y="725"/>
      <point x="78" y="657"/>
      <point x="78" y="578" type="curve" smooth="yes"/>
      <point x="78" y="536"/>
      <point x="118" y="518"/>
      <point x="165" y="518" type="curve"/>
      <point x="165" y="605"/>
      <point x="224" y="680"/>
      <point x="362" y="680" type="curve" smooth="yes"/>
      <point x="513" y="680"/>
      <point x="588" y="591"/>
      <point x="596" y="385" type="curve"/>
      <point x="244" y="385" type="line"/>
      <point x="244" y="341" type="line"/>
      <point x="596" y="341" type="line"/>
      <point x="596" y="113"/>
      <point x="481" y="36"/>
      <point x="325" y="36" type="curve" smooth="yes"/>
      <point x="180" y="36"/>
      <point x="122" y="118"/>
      <point x="128" y="237" type="curve"/>
      <point x="84" y="235"/>
      <point x="56" y="208"/>
      <point x="56" y="163" type="curve" smooth="yes"/>
      <point x="56" y="96"/>
      <point x="99" y="-10"/>
    </contour>
  </outline>
</glyph>
<glyph name="afii10072" format="2">
  <advance width="1027"/>
  <unicode hex="0436"/>
  <anchor x="514" y="0" name="bottom"/>
  <anchor x="514" y="536" name="top"/>
  <outline>
    <contour>
      <point x="6" y="0" type="line"/>
      <point x="44" y="0" type="line" smooth="yes"/>
      <point x="149" y="0"/>
      <point x="200" y="33"/>
      <point x="222" y="69" type="curve" smooth="yes"/>
      <point x="287" y="193" type="line" smooth="yes"/>
      <point x="318" y="250"/>
      <point x="354" y="253"/>
      <point x="462" y="253" type="curve"/>
      <point x="462" y="106" type="line" smooth="yes"/>
      <point x="462" y="47"/>
      <point x="456" y="38"/>
      <point x="426" y="38" type="curve" smooth="yes"/>
      <point x="382" y="38" type="line"/>
      <point x="382" y="0" type="line"/>
      <point x="644" y="0" type="line"/>
      <point x="644" y="38" type="line"/>
      <point x="606" y="38" type="line" smooth="yes"/>
      <point x="569" y="38"/>
      <point x="563" y="47"/>
      <point x="563" y="106" type="curve" smooth="yes"/>
      <point x="563" y="253" type="line"/>
      <point x="671" y="253"/>
      <point x="708" y="250"/>
      <point x="739" y="193" type="curve" smooth="yes"/>
      <point x="804" y="69" type="line" smooth="yes"/>
      <point x="826" y="33"/>
      <point x="877" y="0"/>
      <point x="982" y="0" type="curve" smooth="yes"/>
      <point x="1020" y="0" type="line"/>
      <point x="1020" y="44" type="line"/>
      <point x="1001" y="44" type="line" smooth="yes"/>
      <point x="958" y="44"/>
      <point x="937" y="42"/>
      <point x="897" y="106" type="curve" smooth="yes"/>
      <point x="838" y="209" type="line" smooth="yes"/>
      <point x="804" y="266"/>
      <point x="768" y="281"/>
      <point x="694" y="287" type="curve"/>
      <point x="728" y="303"/>
      <point x="755" y="341"/>
      <point x="791" y="390" type="curve" smooth="yes"/>
      <point x="829" y="442"/>
      <point x="858" y="482"/>
      <point x="902" y="482" type="curve" smooth="yes"/>
      <point x="944" y="482"/>
      <point x="962" y="465"/>
      <point x="963" y="415" type="curve"/>
      <point x="996" y="419"/>
      <point x="1008" y="445"/>
      <point x="1008" y="470" type="curve" smooth="yes"/>
      <point x="1008" y="510"/>
      <point x="968" y="542"/>
      <point x="916" y="542" type="curve" smooth="yes"/>
      <point x="829" y="542"/>
      <point x="810" y="512"/>
      <point x="757" y="429" type="curve" smooth="yes"/>
      <point x="722" y="378"/>
      <point x="693" y="341"/>
      <point x="676" y="325" type="curve" smooth="yes"/>
      <point x="652" y="299"/>
      <point x="629" y="294"/>
      <point x="563" y="294" type="curve"/>
      <point x="563" y="427" type="line" smooth="yes"/>
      <point x="563" y="489"/>
      <point x="570" y="498"/>
      <point x="608" y="498" type="curve" smooth="yes"/>
      <point x="644" y="498" type="line"/>
      <point x="644" y="536" type="line"/>
      <point x="382" y="536" type="line"/>
      <point x="382" y="498" type="line"/>
      <point x="425" y="498" type="line" smooth="yes"/>
      <point x="456" y="498"/>
      <point x="462" y="489"/>
      <point x="462" y="428" type="curve" smooth="yes"/>
      <point x="462" y="294" type="line"/>
      <point x="396" y="294"/>
      <point x="375" y="299"/>
      <point x="350" y="325" type="curve" smooth="yes"/>
      <point x="333" y="341"/>
      <point x="304" y="378"/>
      <point x="269" y="429" type="curve" smooth="yes"/>
      <point x="216" y="512"/>
      <point x="197" y="542"/>
      <point x="110" y="542" type="curve" smooth="yes"/>
      <point x="58" y="542"/>
      <point x="17" y="510"/>
      <point x="17" y="470" type="curve" smooth="yes"/>
      <point x="17" y="439"/>
      <point x="33" y="417"/>
      <point x="63" y="415" type="curve"/>
      <point x="64" y="466"/>
      <point x="83" y="482"/>
      <point x="125" y="482" type="curve" smooth="yes"/>
      <point x="168" y="482"/>
      <point x="197" y="442"/>
      <point x="235" y="390" type="curve" smooth="yes"/>
      <point x="271" y="341"/>
      <point x="297" y="303"/>
      <point x="332" y="287" type="curve"/>
      <point x="258" y="281"/>
      <point x="221" y="266"/>
      <point x="188" y="209" type="curve" smooth="yes"/>
      <point x="129" y="106" type="line" smooth="yes"/>
      <point x="91" y="41"/>
      <point x="67" y="44"/>
      <point x="25" y="44" type="curve" smooth="yes"/>
      <point x="6" y="44" type="line"/>
    </contour>
  </outline>
</glyph>
<glyph name="afii10081" format="2">
  <advance width="822"/>
  <unicode hex="043F"/>
  <anchor x="411" y="0" name="bottom"/>
  <anchor x="411" y="536" name="top"/>
  <outline>
    <contour>
      <point x="31" y="0" type="line"/>
      <point x="351" y="0" type="line"/>
      <point x="351" y="38" type="line"/>
      <point x="322" y="38" type="line" smooth="yes"/>
      <point x="261" y="38"/>
      <point x="251" y="46"/>
      <point x="251" y="107" type="curve" smooth="yes"/>
      <point x="251" y="487" type="line"/>
      <point x="569" y="487" type="line"/>
      <point x="569" y="107" type="line" smooth="yes"/>
      <point x="569" y="45"/>
      <point x="559" y="38"/>
      <point x="495" y="38" type="curve" smooth="yes"/>
      <point x="469" y="38" type="line"/>
      <point x="469" y="0" type="line"/>
      <point x="790" y="0" type="line"/>
      <point x="790" y="38" type="line"/>
      <point x="750" y="38" type="line" smooth="yes"/>
      <point x="690" y="38"/>
      <point x="676" y="47"/>
      <point x="676" y="107" type="curve" smooth="yes"/>
      <point x="676" y="428" type="line" smooth="yes"/>
      <point x="676" y="487"/>
      <point x="687" y="497"/>
      <point x="755" y="497" type="curve" smooth="yes"/>
      <point x="790" y="497" type="line"/>
      <point x="790" y="536" type="line"/>
      <point x="31" y="536" type="line"/>
      <point x="31" y="498" type="line"/>
      <point x="69" y="498" type="line" smooth="yes"/>
      <point x="131" y="498"/>
      <point x="144" y="489"/>
      <point x="144" y="430" type="curve" smooth="yes"/>
      <point x="144" y="107" type="line" smooth="yes"/>
      <point x="144" y="46"/>
      <point x="132" y="38"/>
      <point x="67" y="38" type="curve" smooth="yes"/>
      <point x="31" y="38" type="line"/>
    </contour>
  </outline>
</glyph>
<glyph name="afii10089" format="2">
  <advance width="759"/>
  <unicode hex="0447"/>
  <anchor x="380" y="0" name="bottom"/>
  <anchor x="380" y="536" name="top"/>
  <outline>
    <contour>
      <point x="383" y="0" type="line"/>
      <point x="726" y="0" type="line"/>
      <point x="726" y="38" type="line"/>
      <point x="694" y="38" type="line" smooth="yes"/>
      <point x="622" y="38"/>
      <point x="612" y="47"/>
      <point x="612" y="108" type="curve" smooth="yes"/>
      <point x="612" y="426" type="line" smooth="yes"/>
      <point x="612" y="486"/>
      <point x="623" y="498"/>
      <point x="685" y="498" type="curve" smooth="yes"/>
      <point x="725" y="498" type="line"/>
      <point x="725" y="536" type="line"/>
      <point x="408" y="536" type="line"/>
      <point x="408" y="498" type="line"/>
      <point x="435" y="498" type="line" smooth="yes"/>
      <point x="499" y="498"/>
      <point x="505" y="490"/>
      <point x="505" y="430" type="curve" smooth="yes"/>
      <point x="505" y="271" type="line"/>
      <point x="443" y="253"/>
      <point x="403" y="239"/>
      <point x="346" y="239" type="curve" smooth="yes"/>
      <point x="271" y="239"/>
      <point x="230" y="262"/>
      <point x="230" y="323" type="curve" smooth="yes"/>
      <point x="230" y="430" type="line" smooth="yes"/>
      <point x="230" y="489"/>
      <point x="240" y="498"/>
      <point x="291" y="498" type="curve" smooth="yes"/>
      <point x="325" y="498" type="line"/>
      <point x="325" y="536" type="line"/>
      <point x="9" y="536" type="line"/>
      <point x="9" y="498" type="line"/>
      <point x="52" y="498" type="line" smooth="yes"/>
      <point x="114" y="498"/>
      <point x="123" y="483"/>
      <point x="123" y="427" type="curve" smooth="yes"/>
      <point x="123" y="312" type="line" smooth="yes"/>
      <point x="123" y="229"/>
      <point x="188" y="185"/>
      <point x="298" y="185" type="curve" smooth="yes"/>
      <point x="382" y="185"/>
      <point x="451" y="207"/>
      <point x="505" y="229" type="curve"/>
      <point x="505" y="108" type="line" smooth="yes"/>
      <point x="505" y="43"/>
      <point x="489" y="38"/>
      <point x="424" y="38" type="curve" smooth="yes"/>
      <point x="383" y="38" type="line"/>
    </contour>
  </outline>
</glyph>
<glyph name="afii10106" format="2">
  <advance width="985"/>
  <unicode hex="0459"/>
  <anchor x="493" y="0" name="bottom"/>
  <anchor x="493" y="536" name="top"/>
  <outline>
    <contour>
      <point x="91" y="-7" type="curve" smooth="yes"/>
      <point x="176" y="-7"/>
      <point x="219" y="35"/>
      <point x="261" y="144" type="curve" smooth="yes"/>
      <point x="298" y="238"/>
      <point x="320" y="359"/>
      <point x="336" y="493" type="curve"/>
      <point x="481" y="493" type="line"/>
      <point x="481" y="106" type="line" smooth="yes"/>
      <point x="481" y="45"/>
      <point x="462" y="38"/>
      <point x="407" y="38" type="curve" smooth="yes"/>
      <point x="373" y="38" type="line"/>
      <point x="373" y="0" type="line"/>
      <point x="712" y="0" type="line" smooth="yes"/>
      <point x="875" y="0"/>
      <point x="948" y="71"/>
      <point x="948" y="160" type="curve" smooth="yes"/>
      <point x="948" y="274"/>
      <point x="845" y="294"/>
      <point x="717" y="296" type="curve" smooth="yes"/>
      <point x="588" y="296" type="line"/>
      <point x="588" y="426" type="line" smooth="yes"/>
      <point x="588" y="480"/>
      <point x="601" y="494"/>
      <point x="664" y="494" type="curve" smooth="yes"/>
      <point x="700" y="494" type="line"/>
      <point x="700" y="536" type="line"/>
      <point x="161" y="536" type="line"/>
      <point x="161" y="498" type="line"/>
      <point x="201" y="498" type="line" smooth="yes"/>
      <point x="265" y="498"/>
      <point x="276" y="488"/>
      <point x="276" y="457" type="curve" smooth="yes"/>
      <point x="276" y="357"/>
      <point x="252" y="272"/>
      <point x="235" y="218" type="curve" smooth="yes"/>
      <point x="201" y="120"/>
      <point x="172" y="50"/>
      <point x="102" y="50" type="curve" smooth="yes"/>
      <point x="56" y="50"/>
      <point x="40" y="96"/>
      <point x="40" y="128" type="curve"/>
      <point x="26" y="128"/>
      <point x="-1" y="114"/>
      <point x="-1" y="75" type="curve" smooth="yes"/>
      <point x="-1" y="36"/>
      <point x="27" y="-7"/>
    </contour>
    <contour>
      <point x="588" y="44" type="line"/>
      <point x="588" y="252" type="line"/>
      <point x="677" y="252" type="line" smooth="yes"/>
      <point x="790" y="252"/>
      <point x="838" y="225"/>
      <point x="838" y="160" type="curve" smooth="yes"/>
      <point x="838" y="81"/>
      <point x="794" y="44"/>
      <point x="655" y="44" type="curve" smooth="yes"/>
    </contour>
  </outline>
</glyph>
<glyph name="afii10193" format="2">
  <advance width="848"/>
  <unicode hex="045F"/>
  <anchor x="424" y="-210" name="bottom"/>
  <anchor x="424" y="536" name="top"/>
  <outline>
    <contour>
      <point x="400" y="-210" type="curve"/>
      <point x="449" y="-210" type="line"/>
      <point x="449" y="-30"/>
      <point x="464" y="0"/>
      <point x="493" y="0" type="curve" smooth="yes"/>
      <point x="818" y="0" type="line"/>
      <point x="818" y="39" type="line"/>
      <point x="804" y="39" type="line" smooth="yes"/>
      <point x="728" y="39"/>
      <point x="704" y="47"/>
      <point x="704" y="109" type="curve" smooth="yes"/>
      <point x="704" y="429" type="line" smooth="yes"/>
      <point x="704" y="490"/>
      <point x="718" y="498"/>
      <point x="777" y="498" type="curve" smooth="yes"/>
      <point x="818" y="498" type="line"/>
      <point x="818" y="536" type="line"/>
      <point x="498" y="536" type="line"/>
      <point x="498" y="498" type="line"/>
      <point x="526" y="498" type="line" smooth="yes"/>
      <point x="587" y="498"/>
      <point x="597" y="490"/>
      <point x="597" y="429" type="curve" smooth="yes"/>
      <point x="597" y="49" type="line"/>
      <point x="252" y="49" type="line"/>
      <point x="252" y="429" type="line" smooth="yes"/>
      <point x="252" y="489"/>
      <point x="264" y="498"/>
      <point x="316" y="498" type="curve" smooth="yes"/>
      <point x="353" y="498" type="line"/>
      <point x="353" y="536" type="line"/>
      <point x="31" y="536" type="line"/>
      <point x="31" y="498" type="line"/>
      <point x="68" y="498" type="line" smooth="yes"/>
      <point x="132" y="498"/>
      <point x="145" y="487"/>
      <point x="145" y="429" type="curve" smooth="yes"/>
      <point x="145" y="107" type="line" smooth="yes"/>
      <point x="145" y="46"/>
      <point x="131" y="38"/>
      <point x="67" y="38" type="curve" smooth="yes"/>
      <point x="31" y="38" type="line"/>
      <point x="31" y="0" type="line"/>
      <point x="347" y="0" type="line" smooth="yes"/>
      <point x="385" y="0"/>
      <point x="400" y="-30"/>
    </contour>
  </outline>
</glyph>
<glyph name="uni0460" format="2">
  <advance width="1118"/>
  <unicode hex="0460"/>
  <anchor x="559" y="0" name="bottom"/>
  <anchor x="559" y="714" name="top"/>
  <outline>
    <contour>
      <point x="355" y="0" type="curve"/>
      <point x="417" y="0" type="line"/>
      <point x="629" y="360" type="line"/>
      <point x="660" y="265"/>
      <point x="724" y="106"/>
      <point x="750" y="0" type="curve"/>
      <point x="799" y="0" type="line"/>
      <point x="951" y="238"/>
      <point x="1056" y="394"/>
      <point x="1056" y="573" type="curve" smooth="yes"/>
      <point x="1056" y="665"/>
      <point x="1027" y="727"/>
      <point x="949" y="727" type="curve" smooth="yes"/>
      <point x="895" y="727"/>
      <point x="876" y="698"/>
      <point x="876" y="669" type="curve"/>
      <point x="949" y="665"/>
      <point x="987" y="621"/>
      <point x="987" y="550" type="curve" smooth="yes"/>
      <point x="987" y="395"/>
      <point x="877" y="227"/>
      <point x="817" y="138" type="curve"/>
      <point x="758" y="343"/>
      <point x="668" y="586"/>
      <point x="607" y="714" type="curve"/>
      <point x="484" y="714" type="line"/>
      <point x="530" y="626"/>
      <point x="569" y="530"/>
      <point x="602" y="427" type="curve"/>
      <point x="428" y="133" type="line"/>
      <point x="270" y="631"/>
      <point x="229" y="726"/>
      <point x="122" y="726" type="curve" smooth="yes"/>
      <point x="56" y="726"/>
      <point x="27" y="701"/>
      <point x="-13" y="671" type="curve"/>
      <point x="13" y="637" type="line"/>
      <point x="25" y="649"/>
      <point x="43" y="662"/>
      <point x="76" y="662" type="curve" smooth="yes"/>
      <point x="127" y="662"/>
      <point x="185" y="545"/>
    </contour>
  </outline>
</glyph>
<glyph name="uni046B" format="2">
  <advance width="872"/>
  <unicode hex="046B"/>
  <anchor x="436" y="0" name="bottom"/>
  <anchor x="436" y="536" name="top"/>
  <outline>
    <contour>
      <point x="12" y="-1" type="line"/>
      <point x="49" y="-1" type="line" smooth="yes"/>
      <point x="120" y="-1"/>
      <point x="161" y="24"/>
      <point x="209" y="112" type="curve" smooth="yes"/>
      <point x="253" y="189" type="line" smooth="yes"/>
      <point x="291" y="261"/>
      <point x="311" y="273"/>
      <point x="381" y="273" type="curve"/>
      <point x="381" y="104" type="line" smooth="yes"/>
      <point x="381" y="46"/>
      <point x="377" y="39"/>
      <point x="347" y="38" type="curve" smooth="yes"/>
      <point x="302" y="38" type="line"/>
      <point x="302" y="-1" type="line"/>
      <point x="567" y="-1" type="line"/>
      <point x="567" y="38" type="line"/>
      <point x="518" y="38" type="line" smooth="yes"/>
      <point x="494" y="38"/>
      <point x="487" y="47"/>
      <point x="487" y="106" type="curve" smooth="yes"/>
      <point x="487" y="273" type="line"/>
      <point x="559" y="273"/>
      <point x="581" y="260"/>
      <point x="617" y="192" type="curve" smooth="yes"/>
      <point x="661" y="111" type="line" smooth="yes"/>
      <point x="709" y="24"/>
      <point x="750" y="-1"/>
      <point x="824" y="-1" type="curve" smooth="yes"/>
      <point x="860" y="-1" type="line"/>
      <point x="860" y="44" type="line"/>
      <point x="846" y="44" type="line" smooth="yes"/>
      <point x="820" y="44"/>
      <point x="805" y="41"/>
      <point x="765" y="116" type="curve" smooth="yes"/>
      <point x="713" y="205" type="line" smooth="yes"/>
      <point x="673" y="281"/>
      <point x="615" y="309"/>
      <point x="530" y="310" type="curve"/>
      <point x="736" y="502" type="line"/>
      <point x="736" y="536" type="line"/>
      <point x="144" y="536" type="line"/>
      <point x="144" y="500" type="line"/>
      <point x="353" y="310" type="line"/>
      <point x="257" y="311"/>
      <point x="197" y="283"/>
      <point x="156" y="202" type="curve" smooth="yes"/>
      <point x="107" y="116" type="line" smooth="yes"/>
      <point x="68" y="45"/>
      <point x="52" y="44"/>
      <point x="26" y="44" type="curve" smooth="yes"/>
      <point x="12" y="44" type="line"/>
    </contour>
    <contour>
      <point x="460" y="312" type="line"/>
      <point x="270" y="496" type="line"/>
      <point x="657" y="496" type="line"/>
      <point x="464" y="312" type="line"/>
    </contour>
  </outline>
</glyph>
<glyph name="dasiapneumatacomb.cy" format="2">
  <unicode hex="0485"/>
  <anchor x="0" y="536" name="_top"/>
  <anchor x="0" y="807" name="top"/>
  <outline>
    <contour>
      <point x="72" y="601" type="curve"/>
      <point x="72" y="635" type="line"/>
      <point x="20" y="639"/>
      <point x="-10" y="665"/>
      <point x="-10" y="690" type="curve" smooth="yes"/>
      <point x="-10" y="712"/>
      <point x="56" y="704"/>
      <point x="56" y="757" type="curve" smooth="yes"/>
      <point x="56" y="789"/>
      <point x="32" y="807"/>
      <point x="-2" y="807" type="curve" smooth="yes"/>
      <point x="-46" y="807"/>
      <point x="-71" y="773"/>
      <point x="-71" y="727" type="curve" smooth="yes"/>
      <point x="-71" y="658"/>
      <point x="-38" y="620"/>
    </contour>
  </outline>
</glyph>
<glyph name="uni0497" format="2">
  <advance width="1100"/>
  <unicode hex="0497"/>
  <anchor x="550" y="0" name="bottom"/>
  <anchor x="550" y="536" name="top"/>
  <outline>
    <contour>
      <point x="1035" y="-205" type="line"/>
      <point x="1076" y="-205" type="line"/>
      <point x="1076" y="44" type="line"/>
      <point x="1003" y="44" type="line" smooth="yes"/>
      <point x="962" y="44"/>
      <point x="938" y="23"/>
      <point x="894" y="104" type="curve" smooth="yes"/>
      <point x="834" y="207" type="line" smooth="yes"/>
      <point x="798" y="263"/>
      <point x="762" y="282"/>
      <point x="704" y="289" type="curve"/>
      <point x="738" y="307"/>
      <point x="759" y="339"/>
      <point x="796" y="394" type="curve" smooth="yes"/>
      <point x="839" y="457"/>
      <point x="870" y="504"/>
      <point x="910" y="504" type="curve" smooth="yes"/>
      <point x="951" y="504"/>
      <point x="967" y="486"/>
      <point x="969" y="434" type="curve"/>
      <point x="1002" y="438"/>
      <point x="1014" y="457"/>
      <point x="1014" y="479" type="curve" smooth="yes"/>
      <point x="1014" y="509"/>
      <point x="983" y="542"/>
      <point x="923" y="542" type="curve" smooth="yes"/>
      <point x="842" y="542"/>
      <point x="821" y="512"/>
      <point x="768" y="429" type="curve" smooth="yes"/>
      <point x="733" y="378"/>
      <point x="704" y="341"/>
      <point x="687" y="325" type="curve" smooth="yes"/>
      <point x="663" y="299"/>
      <point x="641" y="294"/>
      <point x="567" y="294" type="curve"/>
      <point x="567" y="427" type="line" smooth="yes"/>
      <point x="567" y="494"/>
      <point x="593" y="498"/>
      <point x="621" y="498" type="curve" smooth="yes"/>
      <point x="653" y="498" type="line"/>
      <point x="653" y="536" type="line"/>
      <point x="375" y="536" type="line"/>
      <point x="375" y="498" type="line"/>
      <point x="416" y="498" type="line" smooth="yes"/>
      <point x="440" y="498"/>
      <point x="466" y="494"/>
      <point x="466" y="431" type="curve" smooth="yes"/>
      <point x="466" y="294" type="line"/>
      <point x="394" y="294"/>
      <point x="371" y="299"/>
      <point x="348" y="325" type="curve" smooth="yes"/>
      <point x="331" y="341"/>
      <point x="301" y="378"/>
      <point x="267" y="429" type="curve" smooth="yes"/>
      <point x="212" y="512"/>
      <point x="193" y="542"/>
      <point x="111" y="542" type="curve" smooth="yes"/>
      <point x="52" y="542"/>
      <point x="20" y="509"/>
      <point x="20" y="479" type="curve" smooth="yes"/>
      <point x="20" y="457"/>
      <point x="33" y="436"/>
      <point x="64" y="434" type="curve"/>
      <point x="67" y="484"/>
      <point x="83" y="504"/>
      <point x="125" y="504" type="curve" smooth="yes"/>
      <point x="164" y="504"/>
      <point x="194" y="457"/>
      <point x="237" y="394" type="curve" smooth="yes"/>
      <point x="275" y="339"/>
      <point x="295" y="308"/>
      <point x="330" y="289" type="curve"/>
      <point x="273" y="282"/>
      <point x="234" y="264"/>
      <point x="201" y="207" type="curve" smooth="yes"/>
      <point x="140" y="104" type="line" smooth="yes"/>
      <point x="103" y="40"/>
      <point x="75" y="44"/>
      <point x="21" y="44" type="curve" smooth="yes"/>
      <point x="11" y="44" type="line"/>
      <point x="11" y="0" type="line"/>
      <point x="37" y="0" type="line" smooth="yes"/>
      <point x="142" y="0"/>
      <point x="203" y="33"/>
      <point x="229" y="67" type="curve" smooth="yes"/>
      <point x="299" y="191" type="line" smooth="yes"/>
      <point x="332" y="248"/>
      <point x="358" y="253"/>
      <point x="466" y="253" type="curve"/>
      <point x="466" y="103" type="line" smooth="yes"/>
      <point x="466" y="44"/>
      <point x="454" y="38"/>
      <point x="417" y="38" type="curve" smooth="yes"/>
      <point x="375" y="38" type="line"/>
      <point x="375" y="0" type="line"/>
      <point x="653" y="0" type="line"/>
      <point x="653" y="38" type="line"/>
      <point x="619" y="38" type="line" smooth="yes"/>
      <point x="582" y="38"/>
      <point x="567" y="47"/>
      <point x="567" y="106" type="curve" smooth="yes"/>
      <point x="567" y="253" type="line"/>
      <point x="675" y="253"/>
      <point x="702" y="248"/>
      <point x="735" y="191" type="curve" smooth="yes"/>
      <point x="805" y="67" type="line" smooth="yes"/>
      <point x="824" y="43"/>
      <point x="863" y="0"/>
      <point x="954" y="2" type="curve" smooth="yes"/>
      <point x="1013" y="4"/>
      <point x="1018" y="1"/>
      <point x="1021" y="-2" type="curve" smooth="yes"/>
    </contour>
  </outline>
</glyph>
<glyph name="uni04A4" format="2">
  <advance width="1050"/>
  <unicode hex="04A4"/>
  <anchor x="525" y="0" name="bottom"/>
  <anchor x="525" y="714" name="top"/>
  <outline>
    <contour>
      <point x="47" y="0" type="line"/>
      <point x="382" y="0" type="line"/>
      <point x="382" y="38" type="line"/>
      <point x="327" y="38" type="line" smooth="yes"/>
      <point x="283" y="38"/>
      <point x="275" y="55"/>
      <point x="275" y="109" type="curve" smooth="yes"/>
      <point x="275" y="351" type="line"/>
      <point x="680" y="351" type="line"/>
      <point x="680" y="112" type="line" smooth="yes"/>
      <point x="680" y="55"/>
      <point x="671" y="38"/>
      <point x="625" y="38" type="curve" smooth="yes"/>
      <point x="573" y="38" type="line"/>
      <point x="573" y="0" type="line"/>
      <point x="906" y="0" type="line"/>
      <point x="906" y="38" type="line"/>
      <point x="841" y="38" type="line" smooth="yes"/>
      <point x="801" y="38"/>
      <point x="789" y="55"/>
      <point x="789" y="110" type="curve" smooth="yes"/>
      <point x="789" y="670" type="line"/>
      <point x="914" y="670" type="line" smooth="yes"/>
      <point x="947" y="670"/>
      <point x="961" y="658"/>
      <point x="963" y="647" type="curve" smooth="yes"/>
      <point x="972" y="537" type="line"/>
      <point x="1022" y="537" type="line"/>
      <point x="1016" y="714" type="line"/>
      <point x="573" y="714" type="line"/>
      <point x="573" y="676" type="line"/>
      <point x="623" y="676" type="line" smooth="yes"/>
      <point x="672" y="676"/>
      <point x="680" y="662"/>
      <point x="680" y="603" type="curve" smooth="yes"/>
      <point x="680" y="395" type="line"/>
      <point x="275" y="395" type="line"/>
      <point x="275" y="604" type="line" smooth="yes"/>
      <point x="275" y="662"/>
      <point x="283" y="676"/>
      <point x="327" y="676" type="curve" smooth="yes"/>
      <point x="382" y="676" type="line"/>
      <point x="382" y="714" type="line"/>
      <point x="47" y="714" type="line"/>
      <point x="47" y="676" type="line"/>
      <point x="109" y="676" type="line" smooth="yes"/>
      <point x="154" y="676"/>
      <point x="166" y="662"/>
      <point x="166" y="602" type="curve" smooth="yes"/>
      <point x="166" y="109" type="line" smooth="yes"/>
      <point x="166" y="55"/>
      <point x="156" y="38"/>
      <point x="111" y="38" type="curve" smooth="yes"/>
      <point x="47" y="38" type="line"/>
    </contour>
  </outline>
</glyph>
<glyph name="uni04B1" format="2">
  <advance width="695"/>
  <unicode hex="04B1"/>
  <anchor x="348" y="-240" name="bottom"/>
  <anchor x="348" y="536" name="top"/>
  <outline>
    <contour>
      <point x="155" y="-33" type="line"/>
      <point x="564" y="-33" type="line"/>
      <point x="564" y="6" type="line"/>
      <point x="155" y="6" type="line"/>
    </contour>
    <component base="uni04AF"/>
  </outline>
</glyph>
<glyph name="uni04B6" format="2">
  <advance width="912"/>
  <unicode hex="04B6"/>
  <anchor x="456" y="0" name="bottom"/>
  <anchor x="456" y="714" name="top"/>
  <outline>
    <contour>
      <point x="831" y="-210" type="curve"/>
      <point x="873" y="-210" type="line"/>
      <point x="873" y="44" type="line"/>
      <point x="813" y="44" type="line" smooth="yes"/>
      <point x="761" y="44"/>
      <point x="747" y="47"/>
      <point x="747" y="114" type="curve" smooth="yes"/>
      <point x="747" y="597" type="line" smooth="yes"/>
      <point x="747" y="665"/>
      <point x="757" y="676"/>
      <point x="807" y="676" type="curve" smooth="yes"/>
      <point x="862" y="676" type="line"/>
      <point x="862" y="714" type="line"/>
      <point x="530" y="714" type="line"/>
      <point x="530" y="676" type="line"/>
      <point x="577" y="676" type="line" smooth="yes"/>
      <point x="626" y="676"/>
      <point x="637" y="665"/>
      <point x="637" y="597" type="curve" smooth="yes"/>
      <point x="637" y="352" type="line"/>
      <point x="558" y="311"/>
      <point x="486" y="301"/>
      <point x="386" y="301" type="curve" smooth="yes"/>
      <point x="303" y="301"/>
      <point x="256" y="330"/>
      <point x="256" y="440" type="curve" smooth="yes"/>
      <point x="256" y="597" type="line" smooth="yes"/>
      <point x="256" y="665"/>
      <point x="265" y="676"/>
      <point x="317" y="676" type="curve" smooth="yes"/>
      <point x="356" y="676" type="line"/>
      <point x="356" y="714" type="line"/>
      <point x="38" y="714" type="line"/>
      <point x="38" y="676" type="line"/>
      <point x="88" y="676" type="line" smooth="yes"/>
      <point x="135" y="676"/>
      <point x="147" y="665"/>
      <point x="147" y="595" type="curve" smooth="yes"/>
      <point x="147" y="428" type="line" smooth="yes"/>
      <point x="147" y="290"/>
      <point x="226" y="245"/>
      <point x="350" y="245" type="curve" smooth="yes"/>
      <point x="476" y="245"/>
      <point x="559" y="257"/>
      <point x="637" y="296" type="curve"/>
      <point x="637" y="116" type="line" smooth="yes"/>
      <point x="637" y="49"/>
      <point x="626" y="38"/>
      <point x="580" y="38" type="curve" smooth="yes"/>
      <point x="510" y="38" type="line"/>
      <point x="510" y="0" type="line"/>
      <point x="788" y="0" type="line" smooth="yes"/>
      <point x="823" y="0"/>
      <point x="825" y="-29"/>
    </contour>
  </outline>
</glyph>
<glyph name="uni04CB" format="2">
  <advance width="913"/>
  <unicode hex="04CB"/>
  <anchor x="456" y="-210" name="bottom"/>
  <anchor x="456" y="714" name="top"/>
  <outline>
    <contour>
      <point x="513" y="-210" type="line"/>
      <point x="562" y="-210" type="line"/>
      <point x="562" y="-44"/>
      <point x="575" y="0"/>
      <point x="587" y="0" type="curve" smooth="yes"/>
      <point x="862" y="0" type="line"/>
      <point x="862" y="38" type="line"/>
      <point x="811" y="38" type="line" smooth="yes"/>
      <point x="753" y="38"/>
      <point x="747" y="50"/>
      <point x="747" y="118" type="curve" smooth="yes"/>
      <point x="747" y="597" type="line" smooth="yes"/>
      <point x="747" y="665"/>
      <point x="755" y="676"/>
      <point x="808" y="676" type="curve" smooth="yes"/>
      <point x="862" y="676" type="line"/>
      <point x="862" y="714" type="line"/>
      <point x="530" y="714" type="line"/>
      <point x="530" y="676" type="line"/>
      <point x="580" y="676" type="line" smooth="yes"/>
      <point x="625" y="676"/>
      <point x="637" y="665"/>
      <point x="637" y="597" type="curve" smooth="yes"/>
      <point x="637" y="352" type="line"/>
      <point x="558" y="311"/>
      <point x="486" y="301"/>
      <point x="386" y="301" type="curve" smooth="yes"/>
      <point x="303" y="301"/>
      <point x="256" y="330"/>
      <point x="256" y="440" type="curve" smooth="yes"/>
      <point x="256" y="597" type="line" smooth="yes"/>
      <point x="256" y="665"/>
      <point x="265" y="676"/>
      <point x="316" y="676" type="curve" smooth="yes"/>
      <point x="356" y="676" type="line"/>
      <point x="356" y="714" type="line"/>
      <point x="38" y="714" type="line"/>
      <point x="38" y="676" type="line"/>
      <point x="88" y="676" type="line" smooth="yes"/>
      <point x="135" y="676"/>
      <point x="147" y="665"/>
      <point x="147" y="595" type="curve" smooth="yes"/>
      <point x="147" y="428" type="line" smooth="yes"/>
      <point x="147" y="290"/>
      <point x="226" y="245"/>
      <point x="345" y="245" type="curve" smooth="yes"/>
      <point x="474" y="245"/>
      <point x="558" y="259"/>
      <point x="637" y="299" type="curve"/>
      <point x="637" y="114" type="line" smooth="yes"/>
      <point x="637" y="54"/>
      <point x="631" y="45"/>
      <point x="579" y="45" type="curve" smooth="yes"/>
      <point x="513" y="45" type="line"/>
    </contour>
  </outline>
</glyph>
<glyph name="uni0507" format="2">
  <advance width="597"/>
  <unicode hex="0507"/>
  <anchor x="299" y="0" name="bottom"/>
  <anchor x="299" y="536" name="top"/>
  <outline>
    <contour>
      <point x="530" y="-205" type="line"/>
      <point x="570" y="-205" type="line"/>
      <point x="570" y="44" type="line"/>
      <point x="504" y="44" type="line" smooth="yes"/>
      <point x="487" y="44"/>
      <point x="477" y="52"/>
      <point x="477" y="108" type="curve" smooth="yes"/>
      <point x="477" y="146" type="line" smooth="yes"/>
      <point x="477" y="229"/>
      <point x="437" y="274"/>
      <point x="342" y="286" type="curve"/>
      <point x="342" y="291" type="line"/>
      <point x="412" y="306"/>
      <point x="465" y="342"/>
      <point x="465" y="417" type="curve" smooth="yes"/>
      <point x="465" y="497"/>
      <point x="391" y="547"/>
      <point x="247" y="547" type="curve" smooth="yes"/>
      <point x="113" y="547"/>
      <point x="28" y="503"/>
      <point x="28" y="440" type="curve" smooth="yes"/>
      <point x="28" y="413"/>
      <point x="41" y="392"/>
      <point x="95" y="392" type="curve"/>
      <point x="95" y="453"/>
      <point x="156" y="504"/>
      <point x="239" y="504" type="curve" smooth="yes"/>
      <point x="324" y="504"/>
      <point x="357" y="455"/>
      <point x="357" y="417" type="curve" smooth="yes"/>
      <point x="357" y="342"/>
      <point x="310" y="310"/>
      <point x="226" y="310" type="curve" smooth="yes"/>
      <point x="178" y="310" type="line"/>
      <point x="178" y="265" type="line"/>
      <point x="224" y="265" type="line" smooth="yes"/>
      <point x="333" y="265"/>
      <point x="369" y="218"/>
      <point x="369" y="143" type="curve" smooth="yes"/>
      <point x="369" y="0" type="line"/>
      <point x="494" y="0" type="line" smooth="yes"/>
      <point x="509" y="0"/>
      <point x="510" y="0"/>
      <point x="515" y="16" type="curve" smooth="yes"/>
    </contour>
  </outline>
</glyph>
<glyph name="uni0510" format="2">
  <advance width="674"/>
  <unicode hex="0510"/>
  <anchor x="337" y="0" name="bottom"/>
  <anchor x="337" y="714" name="top"/>
  <outline>
    <contour>
      <point x="358" y="-9" type="curve" smooth="yes"/>
      <point x="525" y="-9"/>
      <point x="629" y="51"/>
      <point x="629" y="112" type="curve" smooth="yes"/>
      <point x="629" y="139"/>
      <point x="615" y="153"/>
      <point x="592" y="156" type="curve"/>
      <point x="585" y="110"/>
      <point x="502" y="45"/>
      <point x="370" y="45" type="curve" smooth="yes"/>
      <point x="244" y="45"/>
      <point x="172" y="105"/>
      <point x="172" y="210" type="curve" smooth="yes"/>
      <point x="172" y="301"/>
      <point x="239" y="348"/>
      <point x="378" y="348" type="curve" smooth="yes"/>
      <point x="480" y="348" type="line"/>
      <point x="480" y="393" type="line"/>
      <point x="381" y="393" type="line" smooth="yes"/>
      <point x="246" y="393"/>
      <point x="192" y="431"/>
      <point x="192" y="545" type="curve" smooth="yes"/>
      <point x="192" y="625"/>
      <point x="255" y="681"/>
      <point x="368" y="681" type="curve" smooth="yes"/>
      <point x="482" y="681"/>
      <point x="520" y="623"/>
      <point x="522" y="534" type="curve"/>
      <point x="579" y="534"/>
      <point x="615" y="549"/>
      <point x="615" y="592" type="curve" smooth="yes"/>
      <point x="615" y="682"/>
      <point x="510" y="725"/>
      <point x="370" y="725" type="curve" smooth="yes"/>
      <point x="183" y="725"/>
      <point x="88" y="652"/>
      <point x="88" y="552" type="curve" smooth="yes"/>
      <point x="88" y="442"/>
      <point x="146" y="388"/>
      <point x="246" y="372" type="curve"/>
      <point x="148" y="360"/>
      <point x="70" y="304"/>
      <point x="70" y="208" type="curve" smooth="yes"/>
      <point x="70" y="65"/>
      <point x="185" y="-9"/>
    </contour>
  </outline>
</glyph>
<glyph name="uni0514" format="2">
  <advance width="1202"/>
  <unicode hex="0514"/>
  <anchor x="601" y="0" name="bottom"/>
  <anchor x="601" y="714" name="top"/>
  <outline>
    <contour>
      <point x="104" y="-7" type="curve" smooth="yes"/>
      <point x="196" y="-7"/>
      <point x="242" y="43"/>
      <point x="278" y="154" type="curve" smooth="yes"/>
      <point x="328" y="311"/>
      <point x="358" y="546"/>
      <point x="370" y="673" type="curve"/>
      <point x="446" y="673" type="line" smooth="yes"/>
      <point x="478" y="673"/>
      <point x="512" y="670"/>
      <point x="535" y="636" type="curve" smooth="yes"/>
      <point x="731" y="363" type="line"/>
      <point x="550" y="120" type="line" smooth="yes"/>
      <point x="509" y="56"/>
      <point x="485" y="38"/>
      <point x="431" y="38" type="curve" smooth="yes"/>
      <point x="404" y="38" type="line"/>
      <point x="404" y="0" type="line"/>
      <point x="688" y="0" type="line"/>
      <point x="688" y="38" type="line"/>
      <point x="658" y="38" type="line" smooth="yes"/>
      <point x="626" y="38"/>
      <point x="597" y="41"/>
      <point x="597" y="69" type="curve" smooth="yes"/>
      <point x="597" y="92"/>
      <point x="620" y="119"/>
      <point x="639" y="149" type="curve" smooth="yes"/>
      <point x="759" y="322" type="line"/>
      <point x="892" y="138" type="line" smooth="yes"/>
      <point x="923" y="100"/>
      <point x="931" y="86"/>
      <point x="931" y="67" type="curve" smooth="yes"/>
      <point x="931" y="46"/>
      <point x="905" y="38"/>
      <point x="863" y="38" type="curve" smooth="yes"/>
      <point x="855" y="38" type="line"/>
      <point x="855" y="0" type="line"/>
      <point x="1167" y="0" type="line"/>
      <point x="1167" y="38" type="line"/>
      <point x="1130" y="38" type="line" smooth="yes"/>
      <point x="1107" y="38"/>
      <point x="1075" y="56"/>
      <point x="1048" y="92" type="curve" smooth="yes"/>
      <point x="841" y="377" type="line"/>
      <point x="994" y="590" type="line" smooth="yes"/>
      <point x="1038" y="656"/>
      <point x="1066" y="676"/>
      <point x="1120" y="676" type="curve" smooth="yes"/>
      <point x="1137" y="676" type="line"/>
      <point x="1137" y="714" type="line"/>
      <point x="876" y="714" type="line"/>
      <point x="876" y="676" type="line"/>
      <point x="878" y="676" type="line" smooth="yes"/>
      <point x="909" y="676"/>
      <point x="955" y="679"/>
      <point x="955" y="647" type="curve" smooth="yes"/>
      <point x="955" y="628"/>
      <point x="942" y="608"/>
      <point x="927" y="586" type="curve" smooth="yes"/>
      <point x="811" y="422" type="line"/>
      <point x="688" y="589" type="line" smooth="yes"/>
      <point x="677" y="599"/>
      <point x="660" y="628"/>
      <point x="660" y="645" type="curve" smooth="yes"/>
      <point x="660" y="663"/>
      <point x="667" y="676"/>
      <point x="727" y="676" type="curve" smooth="yes"/>
      <point x="730" y="676" type="line"/>
      <point x="730" y="714" type="line"/>
      <point x="198" y="714" type="line"/>
      <point x="198" y="676" type="line"/>
      <point x="245" y="676" type="line" smooth="yes"/>
      <point x="294" y="676"/>
      <point x="309" y="672"/>
      <point x="309" y="608" type="curve" smooth="yes"/>
      <point x="309" y="554"/>
      <point x="270" y="307"/>
      <point x="231" y="181" type="curve" smooth="yes"/>
      <point x="205" y="109"/>
      <point x="179" y="49"/>
      <point x="109" y="49" type="curve" smooth="yes"/>
      <point x="73" y="49"/>
      <point x="50" y="64"/>
      <point x="40" y="112" type="curve"/>
      <point x="23" y="112"/>
      <point x="0" y="102"/>
      <point x="0" y="70" type="curve" smooth="yes"/>
      <point x="0" y="22"/>
      <point x="44" y="-7"/>
    </contour>
  </outline>
</glyph>
<glyph name="uni051E" format="2">
  <advance width="853"/>
  <unicode hex="051E"/>
  <anchor x="426" y="0" name="bottom"/>
  <anchor x="426" y="714" name="top"/>
  <outline>
    <contour>
      <point x="616" y="396" type="line"/>
      <point x="638" y="429" type="line"/>
      <point x="382" y="608" type="line"/>
      <point x="359" y="573" type="line"/>
    </contour>
    <component base="afii10028"/>
  </outline>
</glyph>
<glyph name="uni0521" format="2">
  <advance width="1000"/>
  <unicode hex="0521"/>
  <anchor x="501" y="-240" name="bottom"/>
  <anchor x="501" y="536" name="top"/>
  <outline>
    <contour>
      <point x="664" y="-240" type="curve" smooth="yes"/>
      <point x="833" y="-240"/>
      <point x="944" y="-152"/>
      <point x="944" y="42" type="curve" smooth="yes"/>
      <point x="944" y="204"/>
      <point x="885" y="301"/>
      <point x="684" y="301" type="curve" smooth="yes"/>
      <point x="638" y="301"/>
      <point x="604" y="292"/>
      <point x="581" y="288" type="curve"/>
      <point x="581" y="425" type="line" smooth="yes"/>
      <point x="581" y="492"/>
      <point x="602" y="498"/>
      <point x="661" y="498" type="curve" smooth="yes"/>
      <point x="684" y="498" type="line"/>
      <point x="684" y="536" type="line"/>
      <point x="161" y="536" type="line"/>
      <point x="161" y="498" type="line"/>
      <point x="189" y="498" type="line" smooth="yes"/>
      <point x="266" y="498"/>
      <point x="278" y="489"/>
      <point x="278" y="462" type="curve" smooth="yes"/>
      <point x="278" y="365"/>
      <point x="252" y="272"/>
      <point x="235" y="218" type="curve" smooth="yes"/>
      <point x="201" y="120"/>
      <point x="172" y="50"/>
      <point x="102" y="50" type="curve" smooth="yes"/>
      <point x="56" y="50"/>
      <point x="40" y="96"/>
      <point x="40" y="128" type="curve"/>
      <point x="26" y="128"/>
      <point x="-1" y="114"/>
      <point x="-1" y="75" type="curve" smooth="yes"/>
      <point x="-1" y="36"/>
      <point x="27" y="-7"/>
      <point x="91" y="-7" type="curve" smooth="yes"/>
      <point x="176" y="-7"/>
      <point x="219" y="35"/>
      <point x="261" y="144" type="curve" smooth="yes"/>
      <point x="298" y="238"/>
      <point x="320" y="359"/>
      <point x="336" y="493" type="curve"/>
      <point x="473" y="493" type="line"/>
      <point x="473" y="107" type="line" smooth="yes"/>
      <point x="473" y="43"/>
      <point x="455" y="38"/>
      <point x="395" y="38" type="curve" smooth="yes"/>
      <point x="367" y="38" type="line"/>
      <point x="367" y="0" type="line"/>
      <point x="685" y="0" type="line"/>
      <point x="685" y="38" type="line"/>
      <point x="664" y="38" type="line" smooth="yes"/>
      <point x="601" y="38"/>
      <point x="581" y="43"/>
      <point x="581" y="107" type="curve" smooth="yes"/>
      <point x="581" y="244" type="line"/>
      <point x="602" y="247"/>
      <point x="629" y="255"/>
      <point x="664" y="255" type="curve" smooth="yes"/>
      <point x="813" y="255"/>
      <point x="837" y="166"/>
      <point x="837" y="48" type="curve" smooth="yes"/>
      <point x="837" y="-104"/>
      <point x="783" y="-196"/>
      <point x="670" y="-196" type="curve" smooth="yes"/>
      <point x="609" y="-196"/>
      <point x="565" y="-169"/>
      <point x="565" y="-82" type="curve"/>
      <point x="518" y="-82"/>
      <point x="497" y="-106"/>
      <point x="497" y="-140" type="curve" smooth="yes"/>
      <point x="497" y="-215"/>
      <point x="569" y="-240"/>
    </contour>
  </outline>
</glyph>
<glyph name="uni0524" format="2">
  <advance width="913"/>
  <unicode hex="0524"/>
  <anchor x="457" y="0" name="bottom"/>
  <anchor x="457" y="714" name="top"/>
  <outline>
    <contour>
      <point x="836" y="-210" type="curve"/>
      <point x="872" y="-210" type="line"/>
      <point x="872" y="40" type="line"/>
      <point x="795" y="40" type="line" smooth="yes"/>
      <point x="755" y="40"/>
      <point x="748" y="51"/>
      <point x="748" y="102" type="curve" smooth="yes"/>
      <point x="748" y="599" type="line" smooth="yes"/>
      <point x="748" y="666"/>
      <point x="760" y="676"/>
      <point x="809" y="676" type="curve" smooth="yes"/>
      <point x="862" y="676" type="line"/>
      <point x="862" y="714" type="line"/>
      <point x="47" y="714" type="line"/>
      <point x="47" y="676" type="line"/>
      <point x="105" y="676" type="line" smooth="yes"/>
      <point x="151" y="676"/>
      <point x="166" y="666"/>
      <point x="166" y="600" type="curve" smooth="yes"/>
      <point x="166" y="114" type="line" smooth="yes"/>
      <point x="166" y="48"/>
      <point x="153" y="38"/>
      <point x="102" y="38" type="curve" smooth="yes"/>
      <point x="47" y="38" type="line"/>
      <point x="47" y="0" type="line"/>
      <point x="382" y="0" type="line"/>
      <point x="382" y="38" type="line"/>
      <point x="333" y="38" type="line" smooth="yes"/>
      <point x="287" y="38"/>
      <point x="275" y="48"/>
      <point x="275" y="114" type="curve" smooth="yes"/>
      <point x="275" y="670" type="line"/>
      <point x="638" y="670" type="line"/>
      <point x="638" y="114" type="line" smooth="yes"/>
      <point x="638" y="48"/>
      <point x="624" y="38"/>
      <point x="576" y="38" type="curve" smooth="yes"/>
      <point x="532" y="38" type="line"/>
      <point x="532" y="0" type="line"/>
      <point x="806" y="0" type="line" smooth="yes"/>
      <point x="818" y="0"/>
      <point x="829" y="-18"/>
    </contour>
  </outline>
</glyph>
<glyph name="uni0525" format="2">
  <advance width="822"/>
  <unicode hex="0525"/>
  <anchor x="411" y="0" name="bottom"/>
  <anchor x="411" y="536" name="top"/>
  <outline>
    <contour>
      <point x="751" y="-205" type="line"/>
      <point x="791" y="-205" type="line"/>
      <point x="791" y="44" type="line"/>
      <point x="725" y="44" type="line" smooth="yes"/>
      <point x="688" y="44"/>
      <point x="676" y="53"/>
      <point x="676" y="106" type="curve" smooth="yes"/>
      <point x="676" y="428" type="line" smooth="yes"/>
      <point x="676" y="487"/>
      <point x="690" y="497"/>
      <point x="758" y="497" type="curve" smooth="yes"/>
      <point x="790" y="497" type="line"/>
      <point x="790" y="536" type="line"/>
      <point x="31" y="536" type="line"/>
      <point x="31" y="498" type="line"/>
      <point x="67" y="498" type="line" smooth="yes"/>
      <point x="131" y="498"/>
      <point x="144" y="489"/>
      <point x="144" y="430" type="curve" smooth="yes"/>
      <point x="144" y="107" type="line" smooth="yes"/>
      <point x="144" y="46"/>
      <point x="132" y="38"/>
      <point x="63" y="38" type="curve" smooth="yes"/>
      <point x="31" y="38" type="line"/>
      <point x="31" y="0" type="line"/>
      <point x="351" y="0" type="line"/>
      <point x="351" y="38" type="line"/>
      <point x="323" y="38" type="line" smooth="yes"/>
      <point x="261" y="38"/>
      <point x="251" y="46"/>
      <point x="251" y="107" type="curve" smooth="yes"/>
      <point x="251" y="487" type="line"/>
      <point x="569" y="487" type="line"/>
      <point x="569" y="107" type="line" smooth="yes"/>
      <point x="569" y="45"/>
      <point x="560" y="38"/>
      <point x="494" y="38" type="curve" smooth="yes"/>
      <point x="469" y="38" type="line"/>
      <point x="469" y="0" type="line"/>
      <point x="720" y="0" type="line" smooth="yes"/>
      <point x="727" y="0"/>
      <point x="733" y="4"/>
      <point x="738" y="-6" type="curve" smooth="yes"/>
    </contour>
  </outline>
</glyph>
<glyph name="uni1AB7" format="2">
  <unicode hex="1AB7"/>
  <anchor x="-227" y="0" name="_bottom"/>
  <anchor x="-227" y="-240" name="bottom"/>
  <outline>
    <contour>
      <point x="-215" y="-240" type="curve" smooth="yes"/>
      <point x="-178" y="-240"/>
      <point x="-153" y="-221"/>
      <point x="-153" y="-214" type="curve" smooth="yes"/>
      <point x="-153" y="-212"/>
      <point x="-154" y="-201"/>
      <point x="-157" y="-197" type="curve"/>
      <point x="-167" y="-196"/>
      <point x="-180" y="-196"/>
      <point x="-197" y="-196" type="curve" smooth="yes"/>
      <point x="-228" y="-196"/>
      <point x="-242" y="-184"/>
      <point x="-242" y="-166" type="curve" smooth="yes"/>
      <point x="-242" y="-40" type="line"/>
      <point x="-300" y="-40" type="line"/>
      <point x="-300" y="-167" type="line" smooth="yes"/>
      <point x="-300" y="-220"/>
      <point x="-272" y="-240"/>
    </contour>
  </outline>
</glyph>
<glyph name="uni1C84" format="2">
  <advance width="716"/>
  <unicode hex="1C84"/>
  <anchor x="358" y="0" name="bottom"/>
  <anchor x="358" y="714" name="top"/>
  <outline>
    <contour>
      <point x="187" y="0" type="line"/>
      <point x="506" y="0" type="line"/>
      <point x="506" y="38" type="line"/>
      <point x="453" y="38" type="line" smooth="yes"/>
      <point x="415" y="38"/>
      <point x="400" y="39"/>
      <point x="400" y="58" type="curve" smooth="yes"/>
      <point x="400" y="65"/>
      <point x="405" y="82"/>
      <point x="410" y="90" type="curve" smooth="yes"/>
      <point x="654" y="692" type="line"/>
      <point x="654" y="714" type="line"/>
      <point x="73" y="714" type="line"/>
      <point x="67" y="514" type="line"/>
      <point x="115" y="514" type="line"/>
      <point x="128" y="627" type="line" smooth="yes"/>
      <point x="134" y="655"/>
      <point x="140" y="670"/>
      <point x="185" y="670" type="curve" smooth="yes"/>
      <point x="541" y="670" type="line"/>
      <point x="315" y="127" type="line" smooth="yes"/>
      <point x="284" y="43"/>
      <point x="273" y="38"/>
      <point x="238" y="38" type="curve" smooth="yes"/>
      <point x="187" y="38" type="line"/>
    </contour>
  </outline>
</glyph>
<glyph name="uni1C88" format="2">
  <advance width="693"/>
  <unicode hex="1C88"/>
  <anchor x="346" y="0" name="bottom"/>
  <anchor x="346" y="760" name="top"/>
  <outline>
    <contour>
      <point x="346" y="-10" type="curve" smooth="yes"/>
      <point x="521" y="-10"/>
      <point x="622" y="97"/>
      <point x="622" y="218" type="curve" smooth="yes"/>
      <point x="622" y="338"/>
      <point x="543" y="408"/>
      <point x="416" y="433" type="curve"/>
      <point x="548" y="626" type="line" smooth="yes"/>
      <point x="595" y="699"/>
      <point x="609" y="720"/>
      <point x="656" y="720" type="curve" smooth="yes"/>
      <point x="675" y="720" type="line"/>
      <point x="675" y="760" type="line"/>
      <point x="447" y="760" type="line"/>
      <point x="447" y="720" type="line"/>
      <point x="490" y="720" type="line" smooth="yes"/>
      <point x="509" y="720"/>
      <point x="523" y="718"/>
      <point x="523" y="704" type="curve" smooth="yes"/>
      <point x="523" y="688"/>
      <point x="512" y="666"/>
      <point x="500" y="653" type="curve" smooth="yes"/>
      <point x="374" y="456" type="line"/>
      <point x="243" y="656" type="line" smooth="yes"/>
      <point x="235" y="662"/>
      <point x="217" y="685"/>
      <point x="217" y="704" type="curve" smooth="yes"/>
      <point x="217" y="714"/>
      <point x="226" y="720"/>
      <point x="258" y="720" type="curve" smooth="yes"/>
      <point x="298" y="720" type="line"/>
      <point x="298" y="760" type="line"/>
      <point x="14" y="760" type="line"/>
      <point x="14" y="720" type="line"/>
      <point x="82" y="720"/>
      <point x="82" y="718"/>
      <point x="127" y="645" type="curve" smooth="yes"/>
      <point x="271" y="432" type="line"/>
      <point x="145" y="407"/>
      <point x="71" y="338"/>
      <point x="71" y="218" type="curve" smooth="yes"/>
      <point x="71" y="95"/>
      <point x="174" y="-10"/>
    </contour>
    <contour>
      <point x="346" y="35" type="curve" smooth="yes"/>
      <point x="227" y="35"/>
      <point x="179" y="126"/>
      <point x="179" y="218" type="curve" smooth="yes"/>
      <point x="179" y="309"/>
      <point x="226" y="394"/>
      <point x="346" y="394" type="curve" smooth="yes"/>
      <point x="465" y="394"/>
      <point x="514" y="309"/>
      <point x="514" y="218" type="curve" smooth="yes"/>
      <point x="514" y="125"/>
      <point x="461" y="35"/>
    </contour>
  </outline>
</glyph>
<glyph name="uni1D05" format="2">
  <advance width="737"/>
  <unicode hex="1D05"/>
  <anchor x="369" y="0" name="bottom"/>
  <anchor x="369" y="536" name="top"/>
  <outline>
    <contour>
      <point x="38" y="0" type="line"/>
      <point x="346" y="0" type="line" smooth="yes"/>
      <point x="567" y="0"/>
      <point x="670" y="117"/>
      <point x="670" y="272" type="curve" smooth="yes"/>
      <point x="670" y="433"/>
      <point x="555" y="536"/>
      <point x="342" y="536" type="curve" smooth="yes"/>
      <point x="38" y="536" type="line"/>
      <point x="38" y="496" type="line"/>
      <point x="82" y="496" type="line" smooth="yes"/>
      <point x="125" y="496"/>
      <point x="133" y="489"/>
      <point x="133" y="436" type="curve" smooth="yes"/>
      <point x="133" y="100" type="line" smooth="yes"/>
      <point x="133" y="48"/>
      <point x="129" y="40"/>
      <point x="80" y="40" type="curve"/>
      <point x="38" y="40" type="line"/>
    </contour>
    <contour>
      <point x="236" y="46" type="line"/>
      <point x="236" y="490" type="line"/>
      <point x="326" y="490" type="line" smooth="yes"/>
      <point x="494" y="490"/>
      <point x="562" y="409"/>
      <point x="562" y="272" type="curve" smooth="yes"/>
      <point x="562" y="126"/>
      <point x="496" y="46"/>
      <point x="325" y="46" type="curve" smooth="yes"/>
    </contour>
  </outline>
</glyph>
<glyph name="uni1D6B" format="2">
  <advance width="1090"/>
  <unicode hex="1D6B"/>
  <outline>
    <contour>
      <point x="335" y="-10" type="curve" smooth="yes"/>
      <point x="436" y="-10"/>
      <point x="520" y="21"/>
      <point x="562" y="132" type="curve"/>
      <point x="596" y="43"/>
      <point x="676" y="-10"/>
      <point x="798" y="-10" type="curve" smooth="yes"/>
      <point x="949" y="-10"/>
      <point x="1017" y="56"/>
      <point x="1017" y="104" type="curve" smooth="yes"/>
      <point x="1017" y="118"/>
      <point x="1007" y="129"/>
      <point x="991" y="135" type="curve"/>
      <point x="963" y="79"/>
      <point x="911" y="41"/>
      <point x="823" y="41" type="curve" smooth="yes"/>
      <point x="706" y="41"/>
      <point x="628" y="119"/>
      <point x="629" y="270" type="curve"/>
      <point x="1035" y="270" type="line"/>
      <point x="1035" y="297" type="line" smooth="yes"/>
      <point x="1035" y="459"/>
      <point x="937" y="546"/>
      <point x="787" y="546" type="curve" smooth="yes"/>
      <point x="704" y="546"/>
      <point x="648" y="516"/>
      <point x="614" y="452" type="curve"/>
      <point x="617" y="536" type="line"/>
      <point x="426" y="536" type="line"/>
      <point x="426" y="498" type="line"/>
      <point x="458" y="498" type="line" smooth="yes"/>
      <point x="508" y="498"/>
      <point x="523" y="494"/>
      <point x="523" y="441" type="curve" smooth="yes"/>
      <point x="523" y="217" type="line" smooth="yes"/>
      <point x="523" y="123"/>
      <point x="468" y="49"/>
      <point x="363" y="49" type="curve" smooth="yes"/>
      <point x="255" y="49"/>
      <point x="237" y="125"/>
      <point x="237" y="206" type="curve" smooth="yes"/>
      <point x="237" y="536" type="line"/>
      <point x="24" y="536" type="line"/>
      <point x="24" y="498" type="line"/>
      <point x="64" y="498" type="line" smooth="yes"/>
      <point x="126" y="498"/>
      <point x="130" y="488"/>
      <point x="130" y="423" type="curve" smooth="yes"/>
      <point x="130" y="186" type="line" smooth="yes"/>
      <point x="130" y="59"/>
      <point x="183" y="-10"/>
    </contour>
    <contour>
      <point x="633" y="314" type="line"/>
      <point x="638" y="429"/>
      <point x="680" y="500"/>
      <point x="788" y="500" type="curve" smooth="yes"/>
      <point x="877" y="500"/>
      <point x="930" y="429"/>
      <point x="930" y="314" type="curve"/>
    </contour>
  </outline>
</glyph>
<glyph name="uni1D6E" format="2">
  <advance width="438"/>
  <unicode hex="1D6E"/>
  <anchor x="335" y="770" name="top"/>
  <anchor x="522" y="770" name="topright"/>
  <anchor x="220" y="0" name="bottom"/>
  <outline>
    <contour>
      <point x="-10" y="250" type="curve"/>
      <point x="38" y="250" type="line"/>
      <point x="42" y="277"/>
      <point x="53" y="310"/>
      <point x="100" y="310" type="curve" smooth="yes"/>
      <point x="176" y="310"/>
      <point x="244" y="265"/>
      <point x="324" y="265" type="curve" smooth="yes"/>
      <point x="405" y="265"/>
      <point x="435" y="320"/>
      <point x="438" y="386" type="curve"/>
      <point x="390" y="386" type="line"/>
      <point x="387" y="357"/>
      <point x="373" y="332"/>
      <point x="331" y="332" type="curve" smooth="yes"/>
      <point x="261" y="332"/>
      <point x="199" y="377"/>
      <point x="111" y="377" type="curve" smooth="yes"/>
      <point x="28" y="377"/>
      <point x="-8" y="312"/>
    </contour>
    <component base="f"/>
  </outline>
</glyph>
<glyph name="uni1D8B" format="2">
  <advance width="644"/>
  <unicode hex="1D8B"/>
  <anchor x="249" y="765" name="top"/>
  <anchor x="249" y="-236" name="bottom"/>
  <outline>
    <contour>
      <point x="492" y="-203" type="curve" smooth="yes"/>
      <point x="576" y="-203"/>
      <point x="602" y="-139"/>
      <point x="602" y="-81" type="curve" smooth="yes"/>
      <point x="602" y="129" type="line"/>
      <point x="274" y="129" type="line"/>
      <point x="274" y="84" type="line"/>
      <point x="553" y="84" type="line"/>
      <point x="553" y="-77" type="line" smooth="yes"/>
      <point x="553" y="-129"/>
      <point x="528" y="-148"/>
      <point x="481" y="-148" type="curve" smooth="yes"/>
      <point x="454" y="-148"/>
      <point x="443" y="-135"/>
      <point x="430" y="-133" type="curve"/>
      <point x="417" y="-136"/>
      <point x="412" y="-148"/>
      <point x="412" y="-159" type="curve" smooth="yes"/>
      <point x="412" y="-183"/>
      <point x="446" y="-203"/>
    </contour>
    <component base="uni0283"/>
  </outline>
</glyph>
<glyph name="uni1D8E" format="2">
  <advance width="615"/>
  <unicode hex="1D8E"/>
  <outline>
    <contour>
      <point x="446" y="-203" type="curve" smooth="yes"/>
      <point x="530" y="-203"/>
      <point x="557" y="-139"/>
      <point x="557" y="-81" type="curve" smooth="yes"/>
      <point x="557" y="0" type="line"/>
      <point x="561" y="164" type="line"/>
      <point x="516" y="164" type="line"/>
      <point x="512" y="125" type="line" smooth="yes"/>
      <point x="504" y="56"/>
      <point x="490" y="48"/>
      <point x="430" y="48" type="curve" smooth="yes"/>
      <point x="175" y="48" type="line"/>
      <point x="548" y="505" type="line"/>
      <point x="548" y="536" type="line"/>
      <point x="81" y="536" type="line"/>
      <point x="70" y="392" type="line"/>
      <point x="116" y="392" type="line"/>
      <point x="123" y="433" type="line" smooth="yes"/>
      <point x="131" y="475"/>
      <point x="143" y="488"/>
      <point x="195" y="488" type="curve" smooth="yes"/>
      <point x="424" y="488" type="line"/>
      <point x="53" y="30" type="line"/>
      <point x="53" y="0" type="line"/>
      <point x="508" y="0" type="line"/>
      <point x="508" y="-77" type="line" smooth="yes"/>
      <point x="508" y="-129"/>
      <point x="482" y="-148"/>
      <point x="435" y="-148" type="curve" smooth="yes"/>
      <point x="409" y="-148"/>
      <point x="397" y="-135"/>
      <point x="384" y="-133" type="curve"/>
      <point x="371" y="-136"/>
      <point x="366" y="-148"/>
      <point x="366" y="-159" type="curve" smooth="yes"/>
      <point x="366" y="-183"/>
      <point x="400" y="-203"/>
    </contour>
  </outline>
</glyph>
<glyph name="uni1D92" format="2">
  <advance width="638"/>
  <unicode hex="1D92"/>
  <anchor x="329" y="536" name="top"/>
  <anchor x="618" y="536" name="topright"/>
  <anchor x="329" y="0" name="bottom"/>
  <outline>
    <contour>
      <point x="626" y="-203" type="curve" smooth="yes"/>
      <point x="672" y="-203"/>
      <point x="706" y="-184"/>
      <point x="706" y="-159" type="curve" smooth="yes"/>
      <point x="706" y="-148"/>
      <point x="701" y="-136"/>
      <point x="688" y="-133" type="curve"/>
      <point x="675" y="-135"/>
      <point x="664" y="-148"/>
      <point x="637" y="-148" type="curve" smooth="yes"/>
      <point x="590" y="-148"/>
      <point x="564" y="-128"/>
      <point x="564" y="-77" type="curve" smooth="yes"/>
      <point x="564" y="104" type="line"/>
      <point x="515" y="74" type="line"/>
      <point x="515" y="-81" type="line" smooth="yes"/>
      <point x="515" y="-139"/>
      <point x="542" y="-203"/>
    </contour>
    <component base="e"/>
  </outline>
</glyph>
<glyph name="uni1D94" format="2">
  <advance width="593"/>
  <unicode hex="1D94"/>
  <anchor x="299" y="536" name="top"/>
  <anchor x="295" y="0" name="bottom"/>
  <outline>
    <contour>
      <point x="155" y="-203" type="curve" smooth="yes"/>
      <point x="201" y="-203"/>
      <point x="235" y="-184"/>
      <point x="235" y="-159" type="curve" smooth="yes"/>
      <point x="235" y="-148"/>
      <point x="230" y="-136"/>
      <point x="217" y="-133" type="curve"/>
      <point x="204" y="-135"/>
      <point x="192" y="-148"/>
      <point x="165" y="-148" type="curve" smooth="yes"/>
      <point x="119" y="-148"/>
      <point x="93" y="-128"/>
      <point x="93" y="-77" type="curve" smooth="yes"/>
      <point x="93" y="98" type="line"/>
      <point x="44" y="104" type="line"/>
      <point x="44" y="-81" type="line" smooth="yes"/>
      <point x="44" y="-139"/>
      <point x="71" y="-203"/>
    </contour>
    <component base="afii10073"/>
  </outline>
</glyph>
<glyph name="uni1D99" format="2">
  <advance width="763"/>
  <unicode hex="1D99"/>
  <anchor x="383" y="536" name="top"/>
  <anchor x="679" y="536" name="topright"/>
  <anchor x="383" y="0" name="bottom"/>
  <outline>
    <contour>
      <point x="799" y="-203" type="curve" smooth="yes"/>
      <point x="845" y="-203"/>
      <point x="879" y="-183"/>
      <point x="879" y="-159" type="curve" smooth="yes"/>
      <point x="879" y="-148"/>
      <point x="874" y="-136"/>
      <point x="861" y="-133" type="curve"/>
      <point x="848" y="-135"/>
      <point x="837" y="-148"/>
      <point x="809" y="-148" type="curve" smooth="yes"/>
      <point x="763" y="-148"/>
      <point x="738" y="-128"/>
      <point x="738" y="-77" type="curve" smooth="yes"/>
      <point x="738" y="38" type="line"/>
      <point x="689" y="38" type="line"/>
      <point x="689" y="-81" type="line" smooth="yes"/>
      <point x="689" y="-139"/>
      <point x="715" y="-203"/>
    </contour>
    <component base="u"/>
  </outline>
</glyph>
<glyph name="longshighstroke" format="2">
  <advance width="380"/>
  <unicode hex="1E9D"/>
  <anchor x="190" y="0" name="bottom"/>
  <anchor x="190" y="770" name="top"/>
  <outline>
    <contour>
      <point x="20" y="0" type="line"/>
      <point x="389" y="0" type="line"/>
      <point x="389" y="38" type="line"/>
      <point x="311" y="38" type="line" smooth="yes"/>
      <point x="264" y="38"/>
      <point x="245" y="40"/>
      <point x="245" y="100" type="curve" smooth="yes"/>
      <point x="245" y="557" type="line"/>
      <point x="387" y="557" type="line"/>
      <point x="387" y="609" type="line"/>
      <point x="245" y="609" type="line"/>
      <point x="245" y="612" type="line" smooth="yes"/>
      <point x="245" y="694"/>
      <point x="290" y="727"/>
      <point x="355" y="727" type="curve" smooth="yes"/>
      <point x="419" y="727"/>
      <point x="434" y="673"/>
      <point x="434" y="639" type="curve"/>
      <point x="489" y="639"/>
      <point x="508" y="653"/>
      <point x="508" y="693" type="curve" smooth="yes"/>
      <point x="508" y="718"/>
      <point x="471" y="770"/>
      <point x="351" y="770" type="curve" smooth="yes"/>
      <point x="207" y="770"/>
      <point x="138" y="700"/>
      <point x="138" y="615" type="curve" smooth="yes"/>
      <point x="138" y="609" type="line"/>
      <point x="35" y="609" type="line"/>
      <point x="35" y="557" type="line"/>
      <point x="138" y="557" type="line"/>
      <point x="138" y="100" type="line" smooth="yes"/>
      <point x="138" y="40"/>
      <point x="118" y="38"/>
      <point x="77" y="38" type="curve" smooth="yes"/>
      <point x="20" y="38" type="line"/>
    </contour>
  </outline>
</glyph>
<glyph name="V.middleWelsh" format="2">
  <advance width="726"/>
  <unicode hex="1EFC"/>
  <anchor x="363" y="0" name="bottom"/>
  <anchor x="363" y="714" name="top"/>
  <outline>
    <contour>
      <point x="365" y="-10" type="curve" smooth="yes"/>
      <point x="556" y="-10"/>
      <point x="662" y="94"/>
      <point x="662" y="232" type="curve" smooth="yes"/>
      <point x="662" y="356"/>
      <point x="579" y="441"/>
      <point x="440" y="441" type="curve" smooth="yes"/>
      <point x="374" y="441"/>
      <point x="331" y="426"/>
      <point x="331" y="397" type="curve" smooth="yes"/>
      <point x="331" y="392"/>
      <point x="333" y="386"/>
      <point x="337" y="384" type="curve"/>
      <point x="361" y="392"/>
      <point x="374" y="395"/>
      <point x="408" y="395" type="curve" smooth="yes"/>
      <point x="481" y="395"/>
      <point x="545" y="345"/>
      <point x="545" y="226" type="curve" smooth="yes"/>
      <point x="545" y="100"/>
      <point x="476" y="36"/>
      <point x="366" y="36" type="curve" smooth="yes"/>
      <point x="235" y="36"/>
      <point x="183" y="142"/>
      <point x="183" y="275" type="curve" smooth="yes"/>
      <point x="183" y="518"/>
      <point x="344" y="630"/>
      <point x="531" y="675" type="curve"/>
      <point x="531" y="724" type="line"/>
      <point x="266" y="673"/>
      <point x="68" y="517"/>
      <point x="68" y="286" type="curve" smooth="yes"/>
      <point x="68" y="81"/>
      <point x="192" y="-10"/>
    </contour>
  </outline>
</glyph>
<glyph name="yloop" format="2">
  <advance width="681"/>
  <unicode hex="1EFF"/>
  <anchor x="341" y="-242" name="bottom"/>
  <anchor x="341" y="536" name="top"/>
  <outline>
    <contour>
      <point x="161" y="-242" type="curve" smooth="yes"/>
      <point x="280" y="-242"/>
      <point x="323" y="-159"/>
      <point x="373" y="-43" type="curve" smooth="yes"/>
      <point x="585" y="457" type="line" smooth="yes"/>
      <point x="601" y="493"/>
      <point x="609" y="498"/>
      <point x="683" y="498" type="curve"/>
      <point x="683" y="536" type="line"/>
      <point x="442" y="536" type="line"/>
      <point x="442" y="498" type="line"/>
      <point x="508" y="498"/>
      <point x="529" y="498"/>
      <point x="529" y="472" type="curve" smooth="yes"/>
      <point x="529" y="458"/>
      <point x="520" y="436"/>
      <point x="509" y="409" type="curve" smooth="yes"/>
      <point x="417" y="174" type="line" smooth="yes"/>
      <point x="401" y="138"/>
      <point x="387" y="113"/>
      <point x="376" y="75" type="curve"/>
      <point x="371" y="75" type="line"/>
      <point x="358" y="116"/>
      <point x="332" y="180"/>
      <point x="315" y="213" type="curve" smooth="yes"/>
      <point x="236" y="378" type="line" smooth="yes"/>
      <point x="216" y="423"/>
      <point x="200" y="459"/>
      <point x="200" y="472" type="curve" smooth="yes"/>
      <point x="200" y="496"/>
      <point x="221" y="498"/>
      <point x="280" y="498" type="curve"/>
      <point x="280" y="536" type="line"/>
      <point x="6" y="536" type="line"/>
      <point x="6" y="498" type="line"/>
      <point x="63" y="498"/>
      <point x="72" y="501"/>
      <point x="93" y="462" type="curve" smooth="yes"/>
      <point x="320" y="-15" type="line"/>
      <point x="305" y="-45" type="line"/>
      <point x="275" y="-30"/>
      <point x="234" y="-13"/>
      <point x="171" y="-13" type="curve" smooth="yes"/>
      <point x="80" y="-13"/>
      <point x="19" y="-57"/>
      <point x="19" y="-132" type="curve" smooth="yes"/>
      <point x="19" y="-204"/>
      <point x="83" y="-242"/>
    </contour>
    <contour>
      <point x="161" y="-187" type="curve" smooth="yes"/>
      <point x="119" y="-187"/>
      <point x="78" y="-174"/>
      <point x="78" y="-130" type="curve" smooth="yes"/>
      <point x="78" y="-87"/>
      <point x="108" y="-62"/>
      <point x="171" y="-62" type="curve" smooth="yes"/>
      <point x="225" y="-62"/>
      <point x="262" y="-78"/>
      <point x="287" y="-91" type="curve"/>
      <point x="274" y="-116" type="line" smooth="yes"/>
      <point x="237" y="-188"/>
      <point x="200" y="-187"/>
    </contour>
  </outline>
</glyph>
<glyph name="uni1FC1" format="2">
  <advance width="282"/>
  <unicode hex="1FC1"/>
  <anchor x="141" y="536" name="_top"/>
  <outline>
    <contour>
      <point x="-20" y="730" type="curve"/>
      <point x="22" y="730" type="line"/>
      <point x="24" y="751"/>
      <point x="32" y="777"/>
      <point x="67" y="777" type="curve" smooth="yes"/>
      <point x="113" y="777"/>
      <point x="160" y="742"/>
      <point x="215" y="742" type="curve" smooth="yes"/>
      <point x="269" y="742"/>
      <point x="302" y="776"/>
      <point x="301" y="837" type="curve"/>
      <point x="259" y="837" type="line"/>
      <point x="256" y="813"/>
      <point x="247" y="788"/>
      <point x="217" y="788" type="curve" smooth="yes"/>
      <point x="177" y="788"/>
      <point x="136" y="826"/>
      <point x="74" y="826" type="curve" smooth="yes"/>
      <point x="17" y="826"/>
      <point x="-21" y="785"/>
    </contour>
    <contour>
      <point x="30" y="595" type="curve" smooth="yes"/>
      <point x="54" y="595"/>
      <point x="75" y="608"/>
      <point x="75" y="649" type="curve" smooth="yes"/>
      <point x="75" y="689"/>
      <point x="54" y="702"/>
      <point x="30" y="702" type="curve" smooth="yes"/>
      <point x="8" y="702"/>
      <point x="-14" y="689"/>
      <point x="-14" y="649" type="curve" smooth="yes"/>
      <point x="-14" y="608"/>
      <point x="8" y="595"/>
    </contour>
    <contour>
      <point x="254" y="595" type="curve" smooth="yes"/>
      <point x="277" y="595"/>
      <point x="298" y="608"/>
      <point x="298" y="649" type="curve" smooth="yes"/>
      <point x="298" y="689"/>
      <point x="277" y="702"/>
      <point x="254" y="702" type="curve" smooth="yes"/>
      <point x="231" y="702"/>
      <point x="209" y="689"/>
      <point x="209" y="649" type="curve" smooth="yes"/>
      <point x="209" y="608"/>
      <point x="231" y="595"/>
    </contour>
  </outline>
</glyph>
<glyph name="uni1FEF" format="2">
  <advance width="473"/>
  <unicode hex="1FEF"/>
  <anchor x="240" y="536" name="_top"/>
  <anchor x="240" y="760" name="top"/>
  <outline>
    <contour>
      <point x="253" y="619" type="curve"/>
      <point x="316" y="619" type="line"/>
      <point x="316" y="625" type="line"/>
      <point x="302" y="659"/>
      <point x="271" y="728"/>
      <point x="263" y="760" type="curve"/>
      <point x="164" y="760" type="line"/>
      <point x="164" y="750" type="line"/>
      <point x="178" y="724"/>
      <point x="222" y="658"/>
    </contour>
  </outline>
</glyph>
<glyph name="quoteright" format="2">
  <advance width="294"/>
  <unicode hex="2019"/>
  <outline>
    <contour>
      <point x="67" y="451" type="line"/>
      <point x="180" y="472"/>
      <point x="232" y="556"/>
      <point x="232" y="624" type="curve" smooth="yes"/>
      <point x="232" y="690"/>
      <point x="194" y="714"/>
      <point x="149" y="714" type="curve" smooth="yes"/>
      <point x="117" y="714"/>
      <point x="88" y="698"/>
      <point x="88" y="657" type="curve" smooth="yes"/>
      <point x="88" y="589"/>
      <point x="166" y="594"/>
      <point x="166" y="575" type="curve" smooth="yes"/>
      <point x="166" y="543"/>
      <point x="126" y="496"/>
      <point x="67" y="485" type="curve"/>
    </contour>
  </outline>
</glyph>
<glyph name="quotesinglbase" format="2">
  <advance width="312"/>
  <unicode hex="201A"/>
  <outline>
    <contour>
      <point x="67" y="-133" type="line"/>
      <point x="180" y="-112"/>
      <point x="232" y="-28"/>
      <point x="232" y="40" type="curve" smooth="yes"/>
      <point x="232" y="106"/>
      <point x="194" y="130"/>
      <point x="149" y="130" type="curve" smooth="yes"/>
      <point x="117" y="130"/>
      <point x="88" y="114"/>
      <point x="88" y="73" type="curve" smooth="yes"/>
      <point x="88" y="5"/>
      <point x="166" y="10"/>
      <point x="166" y="-9" type="curve" smooth="yes"/>
      <point x="166" y="-41"/>
      <point x="126" y="-88"/>
      <point x="67" y="-99" type="curve"/>
    </contour>
  </outline>
</glyph>
<glyph name="quotedblright" format="2">
  <advance width="494"/>
  <unicode hex="201D"/>
  <outline>
    <contour>
      <point x="279" y="451" type="line"/>
      <point x="392" y="472"/>
      <point x="444" y="556"/>
      <point x="444" y="624" type="curve" smooth="yes"/>
      <point x="444" y="690"/>
      <point x="407" y="714"/>
      <point x="361" y="714" type="curve" smooth="yes"/>
      <point x="330" y="714"/>
      <point x="300" y="698"/>
      <point x="300" y="657" type="curve" smooth="yes"/>
      <point x="300" y="589"/>
      <point x="378" y="594"/>
      <point x="378" y="575" type="curve" smooth="yes"/>
      <point x="378" y="543"/>
      <point x="339" y="496"/>
      <point x="279" y="485" type="curve"/>
    </contour>
    <contour>
      <point x="50" y="451" type="line"/>
      <point x="162" y="472"/>
      <point x="215" y="556"/>
      <point x="215" y="624" type="curve" smooth="yes"/>
      <point x="215" y="690"/>
      <point x="177" y="714"/>
      <point x="131" y="714" type="curve" smooth="yes"/>
      <point x="100" y="714"/>
      <point x="70" y="698"/>
      <point x="70" y="657" type="curve" smooth="yes"/>
      <point x="70" y="589"/>
      <point x="148" y="594"/>
      <point x="148" y="575" type="curve" smooth="yes"/>
      <point x="148" y="543"/>
      <point x="109" y="496"/>
      <point x="50" y="485" type="curve"/>
    </contour>
  </outline>
</glyph>
<glyph name="uni201F" format="2">
  <advance width="534"/>
  <unicode hex="201F"/>
  <outline>
    <contour>
      <point x="472" y="453" type="curve"/>
      <point x="472" y="485" type="line"/>
      <point x="413" y="496"/>
      <point x="373" y="543"/>
      <point x="373" y="575" type="curve" smooth="yes"/>
      <point x="373" y="594"/>
      <point x="451" y="589"/>
      <point x="451" y="657" type="curve" smooth="yes"/>
      <point x="451" y="698"/>
      <point x="422" y="714"/>
      <point x="390" y="714" type="curve" smooth="yes"/>
      <point x="345" y="714"/>
      <point x="307" y="690"/>
      <point x="307" y="624" type="curve" smooth="yes"/>
      <point x="307" y="556"/>
      <point x="359" y="472"/>
    </contour>
    <contour>
      <point x="242" y="453" type="curve"/>
      <point x="242" y="485" type="line"/>
      <point x="183" y="496"/>
      <point x="144" y="543"/>
      <point x="144" y="575" type="curve" smooth="yes"/>
      <point x="144" y="594"/>
      <point x="221" y="589"/>
      <point x="221" y="657" type="curve" smooth="yes"/>
      <point x="221" y="698"/>
      <point x="192" y="714"/>
      <point x="161" y="714" type="curve" smooth="yes"/>
      <point x="115" y="714"/>
      <point x="77" y="690"/>
      <point x="77" y="624" type="curve" smooth="yes"/>
      <point x="77" y="556"/>
      <point x="130" y="472"/>
    </contour>
  </outline>
</glyph>
<glyph name="fourdotmark" format="2">
  <advance width="828"/>
  <unicode hex="205B"/>
  <outline>
    <contour>
      <point x="415" y="602" type="curve" smooth="yes"/>
      <point x="450" y="602"/>
      <point x="479" y="617"/>
      <point x="479" y="665" type="curve" smooth="yes"/>
      <point x="479" y="711"/>
      <point x="450" y="724"/>
      <point x="415" y="724" type="curve" smooth="yes"/>
      <point x="383" y="724"/>
      <point x="354" y="711"/>
      <point x="354" y="665" type="curve" smooth="yes"/>
      <point x="354" y="617"/>
      <point x="383" y="602"/>
    </contour>
    <contour>
      <point x="415" y="-8" type="curve" smooth="yes"/>
      <point x="450" y="-8"/>
      <point x="479" y="7"/>
      <point x="479" y="55" type="curve" smooth="yes"/>
      <point x="479" y="102"/>
      <point x="450" y="114"/>
      <point x="415" y="114" type="curve" smooth="yes"/>
      <point x="383" y="114"/>
      <point x="354" y="102"/>
      <point x="354" y="55" type="curve" smooth="yes"/>
      <point x="354" y="7"/>
      <point x="383" y="-8"/>
    </contour>
    <contour>
      <point x="175" y="298" type="curve" smooth="yes"/>
      <point x="209" y="298"/>
      <point x="238" y="312"/>
      <point x="238" y="360" type="curve" smooth="yes"/>
      <point x="238" y="406"/>
      <point x="209" y="420"/>
      <point x="175" y="420" type="curve" smooth="yes"/>
      <point x="142" y="420"/>
      <point x="114" y="406"/>
      <point x="114" y="360" type="curve" smooth="yes"/>
      <point x="114" y="312"/>
      <point x="142" y="298"/>
    </contour>
    <contour>
      <point x="651" y="298" type="curve" smooth="yes"/>
      <point x="685" y="298"/>
      <point x="714" y="312"/>
      <point x="714" y="360" type="curve" smooth="yes"/>
      <point x="714" y="406"/>
      <point x="685" y="419"/>
      <point x="651" y="419" type="curve" smooth="yes"/>
      <point x="618" y="419"/>
      <point x="589" y="406"/>
      <point x="589" y="360" type="curve" smooth="yes"/>
      <point x="589" y="312"/>
      <point x="618" y="298"/>
    </contour>
  </outline>
</glyph>
<glyph name="dottedcross" format="2">
  <advance width="845"/>
  <unicode hex="205C"/>
  <outline>
    <contour>
      <point x="147" y="0" type="curve" smooth="yes"/>
      <point x="177" y="0"/>
      <point x="200" y="12"/>
      <point x="200" y="56" type="curve" smooth="yes"/>
      <point x="200" y="100"/>
      <point x="177" y="110"/>
      <point x="147" y="110" type="curve" smooth="yes"/>
      <point x="122" y="110"/>
      <point x="98" y="100"/>
      <point x="98" y="56" type="curve" smooth="yes"/>
      <point x="98" y="12"/>
      <point x="122" y="0"/>
    </contour>
    <contour>
      <point x="147" y="426" type="curve" smooth="yes"/>
      <point x="177" y="426"/>
      <point x="200" y="438"/>
      <point x="200" y="482" type="curve" smooth="yes"/>
      <point x="200" y="526"/>
      <point x="177" y="536"/>
      <point x="147" y="536" type="curve" smooth="yes"/>
      <point x="121" y="536"/>
      <point x="98" y="526"/>
      <point x="98" y="482" type="curve" smooth="yes"/>
      <point x="98" y="438"/>
      <point x="121" y="426"/>
    </contour>
    <contour>
      <point x="689" y="0" type="curve" smooth="yes"/>
      <point x="719" y="0"/>
      <point x="742" y="12"/>
      <point x="742" y="56" type="curve" smooth="yes"/>
      <point x="742" y="100"/>
      <point x="719" y="110"/>
      <point x="689" y="110" type="curve" smooth="yes"/>
      <point x="663" y="110"/>
      <point x="639" y="100"/>
      <point x="639" y="56" type="curve" smooth="yes"/>
      <point x="639" y="12"/>
      <point x="663" y="0"/>
    </contour>
    <contour>
      <point x="689" y="426" type="curve" smooth="yes"/>
      <point x="718" y="426"/>
      <point x="742" y="438"/>
      <point x="742" y="481" type="curve" smooth="yes"/>
      <point x="742" y="525"/>
      <point x="718" y="536"/>
      <point x="689" y="536" type="curve" smooth="yes"/>
      <point x="663" y="536"/>
      <point x="639" y="525"/>
      <point x="639" y="481" type="curve" smooth="yes"/>
      <point x="639" y="438"/>
      <point x="663" y="426"/>
    </contour>
    <contour>
      <point x="395" y="0" type="line"/>
      <point x="450" y="0" type="line"/>
      <point x="450" y="243" type="line"/>
      <point x="748" y="243" type="line"/>
      <point x="748" y="295" type="line"/>
      <point x="450" y="295" type="line"/>
      <point x="450" y="536" type="line"/>
      <point x="395" y="536" type="line"/>
      <point x="395" y="295" type="line"/>
      <point x="98" y="295" type="line"/>
      <point x="98" y="243" type="line"/>
      <point x="395" y="243" type="line"/>
    </contour>
  </outline>
</glyph>
<glyph name="uni2066" format="2">
  <advance width="990"/>
  <unicode hex="2066"/>
  <outline>
    <contour>
      <point x="41" y="593" type="line"/>
      <point x="95" y="593" type="line"/>
      <point x="95" y="687" type="line"/>
      <point x="189" y="687" type="line"/>
      <point x="189" y="741" type="line"/>
      <point x="41" y="741" type="line"/>
    </contour>
    <contour>
      <point x="821" y="687" type="line"/>
      <point x="916" y="687" type="line"/>
      <point x="916" y="593" type="line"/>
      <point x="969" y="593" type="line"/>
      <point x="969" y="741" type="line"/>
      <point x="821" y="741" type="line"/>
    </contour>
    <contour>
      <point x="41" y="-187" type="line"/>
      <point x="189" y="-187" type="line"/>
      <point x="189" y="-134" type="line"/>
      <point x="95" y="-134" type="line"/>
      <point x="95" y="-39" type="line"/>
      <point x="41" y="-39" type="line"/>
    </contour>
    <contour>
      <point x="821" y="-187" type="line"/>
      <point x="969" y="-187" type="line"/>
      <point x="969" y="-39" type="line"/>
      <point x="916" y="-39" type="line"/>
      <point x="916" y="-134" type="line"/>
      <point x="821" y="-134" type="line"/>
    </contour>
    <contour>
      <point x="630" y="-187" type="line"/>
      <point x="763" y="-187" type="line"/>
      <point x="763" y="-134" type="line"/>
      <point x="630" y="-134" type="line"/>
    </contour>
    <contour>
      <point x="248" y="-187" type="line"/>
      <point x="380" y="-187" type="line"/>
      <point x="380" y="-134" type="line"/>
      <point x="248" y="-134" type="line"/>
    </contour>
    <contour>
      <point x="248" y="687" type="line"/>
      <point x="380" y="687" type="line"/>
      <point x="380" y="741" type="line"/>
      <point x="248" y="741" type="line"/>
    </contour>
    <contour>
      <point x="969" y="19" type="line"/>
      <point x="969" y="151" type="line"/>
      <point x="916" y="151" type="line"/>
      <point x="916" y="19" type="line"/>
    </contour>
    <contour>
      <point x="969" y="402" type="line"/>
      <point x="969" y="534" type="line"/>
      <point x="916" y="534" type="line"/>
      <point x="916" y="402" type="line"/>
    </contour>
    <contour>
      <point x="439" y="-187" type="line"/>
      <point x="572" y="-187" type="line"/>
      <point x="572" y="-134" type="line"/>
      <point x="439" y="-134" type="line"/>
    </contour>
    <contour>
      <point x="95" y="19" type="line"/>
      <point x="95" y="151" type="line"/>
      <point x="41" y="151" type="line"/>
      <point x="41" y="19" type="line"/>
    </contour>
    <contour>
      <point x="439" y="687" type="line"/>
      <point x="572" y="687" type="line"/>
      <point x="572" y="741" type="line"/>
      <point x="439" y="741" type="line"/>
    </contour>
    <contour>
      <point x="630" y="687" type="line"/>
      <point x="763" y="687" type="line"/>
      <point x="763" y="741" type="line"/>
      <point x="630" y="741" type="line"/>
    </contour>
    <contour>
      <point x="95" y="210" type="line"/>
      <point x="95" y="343" type="line"/>
      <point x="41" y="343" type="line"/>
      <point x="41" y="210" type="line"/>
    </contour>
    <contour>
      <point x="95" y="402" type="line"/>
      <point x="95" y="534" type="line"/>
      <point x="41" y="534" type="line"/>
      <point x="41" y="402" type="line"/>
    </contour>
    <contour>
      <point x="969" y="210" type="line"/>
      <point x="969" y="343" type="line"/>
      <point x="916" y="343" type="line"/>
      <point x="916" y="210" type="line"/>
    </contour>
    <contour>
      <point x="266" y="188" type="line"/>
      <point x="266" y="405" type="line"/>
      <point x="266" y="426"/>
      <point x="275" y="429"/>
      <point x="286" y="429" type="curve" smooth="yes"/>
      <point x="303" y="429" type="line"/>
      <point x="303" y="450" type="line"/>
      <point x="165" y="450" type="line"/>
      <point x="165" y="429" type="line"/>
      <point x="182" y="429" type="line" smooth="yes"/>
      <point x="194" y="429"/>
      <point x="202" y="426"/>
      <point x="202" y="403" type="curve" smooth="yes"/>
      <point x="202" y="211" type="line" smooth="yes"/>
      <point x="202" y="188"/>
      <point x="194" y="185"/>
      <point x="182" y="185" type="curve" smooth="yes"/>
      <point x="165" y="185" type="line"/>
      <point x="165" y="164" type="line"/>
      <point x="399" y="164" type="line"/>
      <point x="402" y="253" type="line"/>
      <point x="379" y="253" type="line"/>
      <point x="373" y="223" type="line" smooth="yes"/>
      <point x="368" y="201"/>
      <point x="358" y="188"/>
      <point x="340" y="188" type="curve" smooth="yes"/>
    </contour>
    <contour>
      <point x="426" y="185" type="line"/>
      <point x="426" y="164" type="line"/>
      <point x="564" y="164" type="line"/>
      <point x="564" y="185" type="line"/>
      <point x="547" y="185" type="line" smooth="yes"/>
      <point x="536" y="185"/>
      <point x="526" y="188"/>
      <point x="526" y="209" type="curve" smooth="yes"/>
      <point x="526" y="288" type="line"/>
      <point x="553" y="288" type="line"/>
      <point x="600" y="200" type="line" smooth="yes"/>
      <point x="616" y="170"/>
      <point x="638" y="164"/>
      <point x="685" y="164" type="curve" smooth="yes"/>
      <point x="699" y="164" type="line"/>
      <point x="699" y="185" type="line"/>
      <point x="697" y="185" type="line" smooth="yes"/>
      <point x="682" y="185"/>
      <point x="671" y="195"/>
      <point x="657" y="218" type="curve" smooth="yes"/>
      <point x="610" y="300" type="line"/>
      <point x="636" y="311"/>
      <point x="664" y="334"/>
      <point x="664" y="376" type="curve" smooth="yes"/>
      <point x="664" y="424"/>
      <point x="630" y="450"/>
      <point x="555" y="450" type="curve" smooth="yes"/>
      <point x="426" y="450" type="line"/>
      <point x="426" y="429" type="line"/>
      <point x="443" y="429" type="line" smooth="yes"/>
      <point x="454" y="429"/>
      <point x="463" y="426"/>
      <point x="463" y="405" type="curve" smooth="yes"/>
      <point x="463" y="209" type="line" smooth="yes"/>
      <point x="463" y="188"/>
      <point x="454" y="185"/>
      <point x="443" y="185" type="curve" smooth="yes"/>
    </contour>
    <contour>
      <point x="526" y="312" type="line"/>
      <point x="526" y="427" type="line"/>
      <point x="548" y="427" type="line" smooth="yes"/>
      <point x="583" y="427"/>
      <point x="597" y="411"/>
      <point x="597" y="371" type="curve" smooth="yes"/>
      <point x="597" y="331"/>
      <point x="585" y="312"/>
      <point x="549" y="312" type="curve" smooth="yes"/>
    </contour>
    <contour>
      <point x="708" y="164" type="line"/>
      <point x="846" y="164" type="line"/>
      <point x="846" y="185" type="line"/>
      <point x="829" y="185" type="line"/>
      <point x="818" y="185"/>
      <point x="809" y="188"/>
      <point x="809" y="211" type="curve"/>
      <point x="809" y="403" type="line"/>
      <point x="809" y="426"/>
      <point x="818" y="429"/>
      <point x="829" y="429" type="curve"/>
      <point x="846" y="429" type="line"/>
      <point x="846" y="450" type="line"/>
      <point x="708" y="450" type="line"/>
      <point x="708" y="429" type="line"/>
      <point x="725" y="429" type="line"/>
      <point x="737" y="429"/>
      <point x="745" y="426"/>
      <point x="745" y="403" type="curve"/>
      <point x="745" y="211" type="line"/>
      <point x="745" y="188"/>
      <point x="737" y="185"/>
      <point x="725" y="185" type="curve"/>
      <point x="708" y="185" type="line"/>
    </contour>
  </outline>
</glyph>
<glyph name="foursuperior" format="2">
  <advance width="485"/>
  <unicode hex="2074"/>
  <outline>
    <contour>
      <point x="165" y="388" type="line"/>
      <point x="418" y="388" type="line"/>
      <point x="418" y="424" type="line"/>
      <point x="391" y="424" type="line" smooth="yes"/>
      <point x="364" y="424"/>
      <point x="341" y="425"/>
      <point x="341" y="434" type="curve" smooth="yes"/>
      <point x="341" y="523" type="line"/>
      <point x="427" y="523" type="line"/>
      <point x="427" y="565" type="line"/>
      <point x="341" y="565" type="line"/>
      <point x="341" y="820" type="line"/>
      <point x="263" y="820" type="line"/>
      <point x="25" y="557" type="line"/>
      <point x="25" y="523" type="line"/>
      <point x="268" y="523" type="line"/>
      <point x="268" y="434" type="line" smooth="yes"/>
      <point x="268" y="425"/>
      <point x="238" y="424"/>
      <point x="211" y="424" type="curve" smooth="yes"/>
      <point x="165" y="424" type="line"/>
    </contour>
    <contour>
      <point x="80" y="565" type="line"/>
      <point x="229" y="725" type="line" smooth="yes"/>
      <point x="246" y="746"/>
      <point x="262" y="761"/>
      <point x="272" y="779" type="curve"/>
      <point x="269" y="755"/>
      <point x="269" y="717"/>
      <point x="269" y="696" type="curve" smooth="yes"/>
      <point x="269" y="565" type="line"/>
    </contour>
  </outline>
</glyph>
<glyph name="uni20A2" format="2">
  <advance width="744"/>
  <unicode hex="20A2"/>
  <outline>
    <contour>
      <point x="422" y="-10" type="curve" smooth="yes"/>
      <point x="627" y="-10"/>
      <point x="682" y="82"/>
      <point x="682" y="111" type="curve" smooth="yes"/>
      <point x="682" y="120"/>
      <point x="678" y="137"/>
      <point x="667" y="143" type="curve"/>
      <point x="635" y="97"/>
      <point x="571" y="46"/>
      <point x="455" y="44" type="curve"/>
      <point x="455" y="190" type="line" smooth="yes"/>
      <point x="455" y="279"/>
      <point x="442" y="389"/>
      <point x="547" y="389" type="curve" smooth="yes"/>
      <point x="580" y="389"/>
      <point x="611" y="381"/>
      <point x="611" y="314" type="curve"/>
      <point x="651" y="314"/>
      <point x="676" y="328"/>
      <point x="676" y="366" type="curve" smooth="yes"/>
      <point x="676" y="413"/>
      <point x="639" y="441"/>
      <point x="570" y="441" type="curve" smooth="yes"/>
      <point x="519" y="441"/>
      <point x="477" y="438"/>
      <point x="455" y="391" type="curve"/>
      <point x="452" y="391" type="line"/>
      <point x="442" y="430" type="line"/>
      <point x="293" y="430" type="line"/>
      <point x="293" y="400" type="line"/>
      <point x="313" y="400" type="line" smooth="yes"/>
      <point x="362" y="400"/>
      <point x="374" y="390"/>
      <point x="374" y="352" type="curve" smooth="yes"/>
      <point x="374" y="59" type="line"/>
      <point x="236" y="81"/>
      <point x="176" y="179"/>
      <point x="176" y="358" type="curve" smooth="yes"/>
      <point x="176" y="565"/>
      <point x="254" y="678"/>
      <point x="417" y="678" type="curve" smooth="yes"/>
      <point x="571" y="678"/>
      <point x="600" y="606"/>
      <point x="600" y="534" type="curve"/>
      <point x="650" y="534"/>
      <point x="686" y="562"/>
      <point x="686" y="600" type="curve" smooth="yes"/>
      <point x="686" y="649"/>
      <point x="619" y="724"/>
      <point x="429" y="724" type="curve" smooth="yes"/>
      <point x="188" y="724"/>
      <point x="64" y="585"/>
      <point x="64" y="358" type="curve" smooth="yes"/>
      <point x="64" y="130"/>
      <point x="183" y="-10"/>
    </contour>
  </outline>
</glyph>
<glyph name="franc" format="2">
  <advance width="686"/>
  <unicode hex="20A3"/>
  <outline>
    <contour>
      <point x="62" y="0" type="line"/>
      <point x="433" y="0" type="line"/>
      <point x="433" y="38" type="line"/>
      <point x="347" y="38" type="line" smooth="yes"/>
      <point x="295" y="38"/>
      <point x="285" y="49"/>
      <point x="285" y="114" type="curve" smooth="yes"/>
      <point x="285" y="183" type="line"/>
      <point x="464" y="183" type="line"/>
      <point x="464" y="226" type="line"/>
      <point x="285" y="226" type="line"/>
      <point x="285" y="338" type="line"/>
      <point x="546" y="338" type="line"/>
      <point x="546" y="382" type="line"/>
      <point x="285" y="382" type="line"/>
      <point x="285" y="670" type="line"/>
      <point x="514" y="670" type="line" smooth="yes"/>
      <point x="554" y="670"/>
      <point x="577" y="666"/>
      <point x="581" y="606" type="curve" smooth="yes"/>
      <point x="585" y="538" type="line"/>
      <point x="636" y="538" type="line"/>
      <point x="630" y="714" type="line"/>
      <point x="62" y="714" type="line"/>
      <point x="62" y="676" type="line"/>
      <point x="120" y="676" type="line" smooth="yes"/>
      <point x="173" y="676"/>
      <point x="180" y="664"/>
      <point x="180" y="598" type="curve" smooth="yes"/>
      <point x="180" y="226" type="line"/>
      <point x="75" y="226" type="line"/>
      <point x="75" y="183" type="line"/>
      <point x="180" y="183" type="line"/>
      <point x="180" y="112" type="line" smooth="yes"/>
      <point x="180" y="46"/>
      <point x="168" y="38"/>
      <point x="122" y="38" type="curve" smooth="yes"/>
      <point x="62" y="38" type="line"/>
    </contour>
  </outline>
</glyph>
<glyph name="uni20A5" format="2">
  <advance width="1133"/>
  <unicode hex="20A5"/>
  <anchor x="567" y="536" name="top"/>
  <anchor x="1056" y="536" name="topright"/>
  <anchor x="567" y="0" name="bottom"/>
  <outline>
    <contour>
      <point x="328" y="-122" type="line"/>
      <point x="386" y="-122" type="line"/>
      <point x="787" y="666" type="line"/>
      <point x="731" y="666" type="line"/>
    </contour>
    <component base="m"/>
  </outline>
</glyph>
<glyph name="uni20A6" format="2">
  <advance width="716"/>
  <unicode hex="20A6"/>
  <outline>
    <contour>
      <point x="5" y="0" type="line"/>
      <point x="266" y="0" type="line"/>
      <point x="266" y="38" type="line"/>
      <point x="228" y="38" type="line" smooth="yes"/>
      <point x="182" y="38"/>
      <point x="173" y="49"/>
      <point x="173" y="116" type="curve" smooth="yes"/>
      <point x="173" y="281" type="line"/>
      <point x="359" y="281" type="line"/>
      <point x="517" y="0" type="line"/>
      <point x="608" y="0" type="line"/>
      <point x="608" y="281" type="line"/>
      <point x="708" y="281" type="line"/>
      <point x="708" y="329" type="line"/>
      <point x="608" y="329" type="line"/>
      <point x="608" y="419" type="line"/>
      <point x="708" y="419" type="line"/>
      <point x="708" y="467" type="line"/>
      <point x="608" y="467" type="line"/>
      <point x="608" y="598" type="line" smooth="yes"/>
      <point x="608" y="661"/>
      <point x="618" y="676"/>
      <point x="651" y="676" type="curve" smooth="yes"/>
      <point x="718" y="676" type="line"/>
      <point x="718" y="714" type="line"/>
      <point x="448" y="714" type="line"/>
      <point x="448" y="676" type="line"/>
      <point x="505" y="676" type="line" smooth="yes"/>
      <point x="538" y="676"/>
      <point x="554" y="662"/>
      <point x="554" y="600" type="curve" smooth="yes"/>
      <point x="554" y="467" type="line"/>
      <point x="361" y="467" type="line"/>
      <point x="214" y="714" type="line"/>
      <point x="5" y="714" type="line"/>
      <point x="5" y="676" type="line"/>
      <point x="64" y="676" type="line" smooth="yes"/>
      <point x="98" y="676"/>
      <point x="119" y="665"/>
      <point x="119" y="599" type="curve" smooth="yes"/>
      <point x="119" y="467" type="line"/>
      <point x="13" y="467" type="line"/>
      <point x="13" y="419" type="line"/>
      <point x="119" y="419" type="line"/>
      <point x="119" y="329" type="line"/>
      <point x="13" y="329" type="line"/>
      <point x="13" y="281" type="line"/>
      <point x="119" y="281" type="line"/>
      <point x="119" y="116" type="line" smooth="yes"/>
      <point x="119" y="49"/>
      <point x="100" y="38"/>
      <point x="59" y="38" type="curve" smooth="yes"/>
      <point x="5" y="38" type="line"/>
    </contour>
    <contour>
      <point x="173" y="329" type="line"/>
      <point x="173" y="419" type="line"/>
      <point x="286" y="419" type="line"/>
      <point x="335" y="329" type="line"/>
    </contour>
    <contour>
      <point x="554" y="119" type="line"/>
      <point x="458" y="281" type="line"/>
      <point x="554" y="281" type="line"/>
    </contour>
    <contour>
      <point x="173" y="467" type="line"/>
      <point x="173" y="613" type="line"/>
      <point x="260" y="467" type="line"/>
    </contour>
    <contour>
      <point x="434" y="329" type="line"/>
      <point x="384" y="419" type="line"/>
      <point x="554" y="419" type="line"/>
      <point x="554" y="329" type="line"/>
    </contour>
  </outline>
</glyph>
